<svg width="24" height="24" viewBox="0 0 24 24" fill="none" xmlns="http://www.w3.org/2000/svg">
<rect x="0.5" y="3.5" width="23" height="17" rx="1.5" fill="#2F6EC8" stroke="#E4E4E5"/>
<path d="M4.54752 9.75L2.375 14.5577H4.97581L5.29824 13.7912H6.03523L6.35766 14.5577H9.22042V13.9727L9.47551 14.5577H10.9564L11.2114 13.9603V14.5577H17.1652L17.8892 13.8111L18.5671 14.5577L21.625 14.5639L19.4457 12.1673L21.625 9.75H18.6145L17.9098 10.4828L17.2532 9.75H10.7763L10.2201 10.9909L9.6509 9.75H7.05552V10.3151L6.7668 9.75C6.7668 9.75 4.54752 9.75 4.54752 9.75ZM5.05077 10.4327H6.31852L7.75956 13.6928V10.4327H9.14834L10.2614 12.7702L11.2872 10.4327H12.669V13.8826H11.8282L11.8213 11.1793L10.5955 13.8826H9.84333L8.61064 11.1793V13.8826H6.88088L6.55295 13.1091H4.78127L4.45402 13.8819H3.52724L5.05077 10.4327ZM13.4383 10.4327H16.8572L17.9029 11.5622L18.9823 10.4327H20.028L18.4392 12.1666L20.028 13.8805H18.9349L17.8892 12.7379L16.8043 13.8805H13.4383V10.4327ZM5.66749 11.0164L5.08379 12.3942H6.25051L5.66749 11.0164ZM14.2826 11.147V11.7768H16.1477V12.4787H14.2826V13.1662H16.3746L17.3467 12.1536L16.4159 11.1464H14.2826V11.147Z" fill="white"/>
</svg>
