<svg viewBox="0 0 24 24" xmlns="http://www.w3.org/2000/svg">
  <path fill-rule="evenodd" clip-rule="evenodd"
    d="M11.405 11L14.705 7.71268C15.0971 7.32088 15.0971 6.68565 14.705 6.29385C14.3129 5.90205 13.6771 5.90205 13.285 6.29385L8.28501 11.2897C8.19397 11.3848 8.12261 11.4968 8.07501 11.6195C7.975 11.8627 7.975 12.1356 8.07501 12.3788C8.12261 12.5015 8.19397 12.6135 8.28501 12.7086L13.285 17.7044C13.4728 17.8936 13.7284 18 13.995 18C14.2617 18 14.5172 17.8936 14.705 17.7044C14.8943 17.5168 15.0008 17.2614 15.0008 16.995C15.0008 16.7286 14.8943 16.4732 14.705 16.2856L11.405 12.9983L10.405 12L11.405 11Z"
    fill="currentColor" />
</svg>
