<svg width="24" height="24" viewBox="0 0 24 24" fill="none" xmlns="http://www.w3.org/2000/svg">
<path d="M10.1111 13.7778H13.6667C13.9024 13.7778 14.1285 13.6841 14.2952 13.5174C14.4619 13.3507 14.5556 13.1246 14.5556 12.8889C14.5556 12.6531 14.4619 12.427 14.2952 12.2604C14.1285 12.0937 13.9024 12 13.6667 12H10.1111C9.87536 12 9.64927 12.0937 9.48257 12.2604C9.31587 12.427 9.22222 12.6531 9.22222 12.8889C9.22222 13.1246 9.31587 13.3507 9.48257 13.5174C9.64927 13.6841 9.87536 13.7778 10.1111 13.7778ZM18.1111 4H5.66667C4.95942 4 4.28115 4.28095 3.78105 4.78105C3.28095 5.28115 3 5.95942 3 6.66667V9.33333C3 9.56908 3.09365 9.79517 3.26035 9.96187C3.42705 10.1286 3.65314 10.2222 3.88889 10.2222H4.77778V17.3333C4.77778 18.0406 5.05873 18.7189 5.55883 19.219C6.05892 19.719 6.7372 20 7.44444 20H16.3333C17.0406 20 17.7189 19.719 18.219 19.219C18.7191 18.7189 19 18.0406 19 17.3333V10.2222H19.8889C20.1246 10.2222 20.3507 10.1286 20.5174 9.96187C20.6841 9.79517 20.7778 9.56908 20.7778 9.33333V6.66667C20.7778 5.95942 20.4968 5.28115 19.9967 4.78105C19.4966 4.28095 18.8184 4 18.1111 4ZM17.2222 17.3333C17.2222 17.5691 17.1286 17.7952 16.9619 17.9619C16.7952 18.1286 16.5691 18.2222 16.3333 18.2222H7.44444C7.2087 18.2222 6.9826 18.1286 6.81591 17.9619C6.64921 17.7952 6.55556 17.5691 6.55556 17.3333V10.2222H17.2222V17.3333ZM19 8.44444H4.77778V6.66667C4.77778 6.43092 4.87143 6.20483 5.03813 6.03813C5.20483 5.87143 5.43092 5.77778 5.66667 5.77778H18.1111C18.3469 5.77778 18.573 5.87143 18.7397 6.03813C18.9064 6.20483 19 6.43092 19 6.66667V8.44444Z" fill="currentColor"/>
</svg>
