<svg width="24" height="24" viewBox="0 0 24 24" fill="none" xmlns="http://www.w3.org/2000/svg">
<path d="M10.3992 7C10.1869 7 9.98334 7.08429 9.83323 7.23431C9.68313 7.38434 9.5988 7.58783 9.5988 7.8V11H6.72537L7.36569 10.368C7.51641 10.2174 7.60108 10.013 7.60108 9.8C7.60108 9.58696 7.51641 9.38264 7.36569 9.232C7.21497 9.08136 7.01055 8.99673 6.79741 8.99673C6.58426 8.99673 6.37984 9.08136 6.22912 9.232L4.22812 11.232C4.15526 11.3081 4.09814 11.3978 4.06004 11.496C3.97999 11.6908 3.97999 11.9092 4.06004 12.104C4.09814 12.2022 4.15526 12.2919 4.22812 12.368L6.22912 14.368C6.30353 14.443 6.39205 14.5025 6.48959 14.5431C6.58713 14.5837 6.69174 14.6046 6.79741 14.6046C6.90307 14.6046 7.00768 14.5837 7.10522 14.5431C7.20276 14.5025 7.29128 14.443 7.36569 14.368C7.44071 14.2936 7.50025 14.2051 7.54089 14.1077C7.58152 14.0102 7.60245 13.9056 7.60245 13.8C7.60245 13.6944 7.58152 13.5898 7.54089 13.4923C7.50025 13.3949 7.44071 13.3064 7.36569 13.232L6.72537 12.6H9.5988V15.8C9.5988 16.0122 9.68313 16.2157 9.83323 16.3657C9.98334 16.5157 10.1869 16.6 10.3992 16.6C10.6115 16.6 10.8151 16.5157 10.9652 16.3657C11.1153 16.2157 11.1996 16.0122 11.1996 15.8V7.8C11.1996 7.58783 11.1153 7.38434 10.9652 7.23431C10.8151 7.08429 10.6115 7 10.3992 7ZM19.94 11.496C19.9019 11.3978 19.8447 11.3081 19.7719 11.232L17.7709 9.232C17.6962 9.15741 17.6077 9.09824 17.5101 9.05787C17.4126 9.0175 17.3081 8.99673 17.2026 8.99673C16.9894 8.99673 16.785 9.08136 16.6343 9.232C16.5597 9.30659 16.5005 9.39514 16.4601 9.4926C16.4197 9.59006 16.3989 9.69451 16.3989 9.8C16.3989 10.013 16.4836 10.2174 16.6343 10.368L17.2746 11H14.4012V7.8C14.4012 7.58783 14.3169 7.38434 14.1668 7.23431C14.0167 7.08429 13.8131 7 13.6008 7C13.3885 7 13.1849 7.08429 13.0348 7.23431C12.8847 7.38434 12.8004 7.58783 12.8004 7.8V15.8C12.8004 16.0122 12.8847 16.2157 13.0348 16.3657C13.1849 16.5157 13.3885 16.6 13.6008 16.6C13.8131 16.6 14.0167 16.5157 14.1668 16.3657C14.3169 16.2157 14.4012 16.0122 14.4012 15.8V12.6H17.2746L16.6343 13.232C16.5593 13.3064 16.4997 13.3949 16.4591 13.4923C16.4185 13.5898 16.3976 13.6944 16.3976 13.8C16.3976 13.9056 16.4185 14.0102 16.4591 14.1077C16.4997 14.2051 16.5593 14.2936 16.6343 14.368C16.7087 14.443 16.7972 14.5025 16.8948 14.5431C16.9923 14.5837 17.0969 14.6046 17.2026 14.6046C17.3083 14.6046 17.4129 14.5837 17.5104 14.5431C17.6079 14.5025 17.6965 14.443 17.7709 14.368L19.7719 12.368C19.8447 12.2919 19.9019 12.2022 19.94 12.104C20.02 11.9092 20.02 11.6908 19.94 11.496Z" fill="currentColor"/>
</svg>
