<svg width="24" height="24" viewBox="0 0 24 24" xmlns="http://www.w3.org/2000/svg">
  <path
    d="M9.96575 7.24632C9.88317 7.16829 9.78493 7.10635 9.67668 7.06409C9.56843 7.02182 9.45232 7.00006 9.33505 7.00006C9.21778 7.00006 9.10167 7.02182 8.99342 7.06409C8.88517 7.10635 8.78693 7.16829 8.70435 7.24632L4.26276 11.409C4.1795 11.4864 4.11342 11.5784 4.06832 11.6799C4.02322 11.7813 4 11.8902 4 12.0001C4 12.11 4.02322 12.2188 4.06832 12.3202C4.11342 12.4217 4.1795 12.5138 4.26276 12.5912L8.70435 16.7538C8.78693 16.8318 8.88517 16.8938 8.99342 16.936C9.10167 16.9783 9.21778 17.0001 9.33505 17.0001C9.45232 17.0001 9.56843 16.9783 9.67668 16.936C9.78493 16.8938 9.88317 16.8318 9.96575 16.7538C10.049 16.6764 10.1151 16.5843 10.1602 16.4829C10.2053 16.3814 10.2285 16.2726 10.2285 16.1627C10.2285 16.0528 10.2053 15.944 10.1602 15.8425C10.1151 15.7411 10.049 15.649 9.96575 15.5716L6.14599 12.0001L9.96575 8.42851C10.049 8.35112 10.1151 8.25904 10.1602 8.15759C10.2053 8.05614 10.2285 7.94732 10.2285 7.83742C10.2285 7.72751 10.2053 7.6187 10.1602 7.51725C10.1151 7.41579 10.049 7.32372 9.96575 7.24632ZM19.7372 11.409L15.2957 7.24632C15.2128 7.1687 15.1145 7.10712 15.0063 7.06511C14.8981 7.0231 14.7821 7.00148 14.6649 7.00148C14.4284 7.00148 14.2015 7.08955 14.0342 7.24632C13.9514 7.32395 13.8857 7.4161 13.8409 7.51752C13.7961 7.61894 13.773 7.72764 13.773 7.83742C13.773 8.05912 13.867 8.27174 14.0342 8.42851L17.854 12.0001L14.0342 15.5716C13.951 15.649 13.8849 15.7411 13.8398 15.8425C13.7947 15.944 13.7715 16.0528 13.7715 16.1627C13.7715 16.2726 13.7947 16.3814 13.8398 16.4829C13.8849 16.5843 13.951 16.6764 14.0342 16.7538C14.1168 16.8318 14.2151 16.8938 14.3233 16.936C14.4316 16.9783 14.5477 17.0001 14.6649 17.0001C14.7822 17.0001 14.8983 16.9783 15.0066 16.936C15.1148 16.8938 15.2131 16.8318 15.2957 16.7538L19.7372 12.5912C19.8205 12.5138 19.8866 12.4217 19.9317 12.3202C19.9768 12.2188 20 12.11 20 12.0001C20 11.8902 19.9768 11.7813 19.9317 11.6799C19.8866 11.5784 19.8205 11.4864 19.7372 11.409Z" />
</svg>
