<svg width="24" height="24" viewBox="0 0 24 24" fill="none" xmlns="http://www.w3.org/2000/svg">
<path d="M5.33333 20H2.66667C2.29867 20 2 19.7013 2 19.3333V16.6667C2 16.2987 2.29867 16 2.66667 16C3.03467 16 3.33333 16.2987 3.33333 16.6667V18.6667H5.33333C5.70133 18.6667 6 18.9653 6 19.3333C6 19.7013 5.70133 20 5.33333 20Z" fill="currentColor"/>
<path d="M21.3333 8C20.9653 8 20.6667 7.70133 20.6667 7.33333V5.33333H18.6667C18.2987 5.33333 18 5.03467 18 4.66667C18 4.29867 18.2987 4 18.6667 4H21.3333C21.7013 4 22 4.29867 22 4.66667V7.33333C22 7.70133 21.7013 8 21.3333 8Z" fill="currentColor"/>
<path d="M18.6667 20H21.3333C21.7013 20 22 19.7013 22 19.3333V16.6667C22 16.2987 21.7013 16 21.3333 16C20.9653 16 20.6667 16.2987 20.6667 16.6667V18.6667H18.6667C18.2987 18.6667 18 18.9653 18 19.3333C18 19.7013 18.2987 20 18.6667 20Z" fill="currentColor"/>
<path d="M5.33333 5.33333H3.33333V7.33333C3.33333 7.70133 3.03467 8 2.66667 8C2.29867 8 2 7.70133 2 7.33333V4.66667C2 4.29867 2.29867 4 2.66667 4H5.33333C5.70133 4 6 4.29867 6 4.66667C6 5.03467 5.70133 5.33333 5.33333 5.33333Z" fill="currentColor"/>
<path d="M4.66667 6.66667V17.3333H6V6.66667H4.66667Z" fill="currentColor"/>
<path d="M8.66667 17.3333H7.33333V9.33333H8.66667V17.3333Z" fill="currentColor"/>
<path d="M10 17.3333H11.3333V9.33333H10V17.3333Z" fill="currentColor"/>
<path d="M14 17.3333H12.6667V6.66667H14V17.3333Z" fill="currentColor"/>
<path d="M15.3333 17.3333H16.6667V9.33333H15.3333V17.3333Z" fill="currentColor"/>
<path d="M18 17.3333V6.66667H19.3333V17.3333H18Z" fill="currentColor"/>
<path d="M7.33333 8H8.66667V6.66667H7.33333V8Z" fill="currentColor"/>
<path d="M11.3333 8H10V6.66667H11.3333V8Z" fill="currentColor"/>
<path d="M15.3333 8H16.6667V6.66667H15.3333V8Z" fill="currentColor"/>
</svg>
