<svg width="24" height="24" viewBox="0 0 24 24" fill="none" xmlns="http://www.w3.org/2000/svg">
<path d="M6.66667 6H4.53333C4.23893 6 4 6.24267 4 6.54167V8.70833C4 9.00733 4.23893 9.25 4.53333 9.25C4.82773 9.25 5.06667 9.00733 5.06667 8.70833V7.08333H6.66667C6.96107 7.08333 7.2 6.84067 7.2 6.54167C7.2 6.24267 6.96107 6 6.66667 6Z" fill="currentColor"/>
<path d="M19.4667 15.75C19.1723 15.75 18.9333 15.9927 18.9333 16.2917V17.9167H17.3333C17.0389 17.9167 16.8 18.1593 16.8 18.4583C16.8 18.7573 17.0389 19 17.3333 19H19.4667C19.7611 19 20 18.7573 20 18.4583V16.2917C20 15.9927 19.7611 15.75 19.4667 15.75Z" fill="currentColor"/>
<path d="M17.3333 6H19.4667C19.7611 6 20 6.24267 20 6.54167V8.70833C20 9.00733 19.7611 9.25 19.4667 9.25C19.1723 9.25 18.9333 9.00733 18.9333 8.70833V7.08333H17.3333C17.0389 7.08333 16.8 6.84067 16.8 6.54167C16.8 6.24267 17.0389 6 17.3333 6Z" fill="currentColor"/>
<path d="M6.66667 17.9167H5.06667V16.2917C5.06667 15.9927 4.82773 15.75 4.53333 15.75C4.23893 15.75 4 15.9927 4 16.2917V18.4583C4 18.7573 4.23893 19 4.53333 19H6.66667C6.96107 19 7.2 18.7573 7.2 18.4583C7.2 18.1593 6.96107 17.9167 6.66667 17.9167Z" fill="currentColor"/>
<path d="M6.13333 16.8333V8.16667H7.2V16.8333H6.13333Z" fill="currentColor"/>
<path d="M9.33333 8.16667H8.26667V14.6667H9.33333V8.16667Z" fill="currentColor"/>
<path d="M10.4 8.16667H11.4667V14.6667H10.4V8.16667Z" fill="currentColor"/>
<path d="M13.6 8.16667H12.5333V16.8333H13.6V8.16667Z" fill="currentColor"/>
<path d="M14.6667 8.16667H15.7333V14.6667H14.6667V8.16667Z" fill="currentColor"/>
<path d="M16.8 8.16667V16.8333H17.8667V8.16667H16.8Z" fill="currentColor"/>
<path d="M8.26667 15.75H9.33333V16.8333H8.26667V15.75Z" fill="currentColor"/>
<path d="M11.4667 15.75H10.4V16.8333H11.4667V15.75Z" fill="currentColor"/>
<path d="M14.6667 15.75H15.7333V16.8333H14.6667V15.75Z" fill="currentColor"/>
</svg>
