<svg viewBox="0 0 24 24" fill="none" xmlns="http://www.w3.org/2000/svg">
  <path fill-rule="evenodd" clip-rule="evenodd"
    d="M9.99881 10.8018H11.9984C12.4402 10.8018 12.7983 10.4437 12.7983 10.002C12.7983 9.56025 12.4402 9.20215 11.9984 9.20215H11.1986V8.80223C11.1986 8.36049 10.8405 8.00238 10.3987 8.00238C9.95699 8.00238 9.59889 8.36049 9.59889 8.80223V9.24214C8.59214 9.44657 7.90408 10.3806 8.00733 11.4027C8.11057 12.4248 8.97151 13.2024 9.99881 13.2014H10.7987C11.0195 13.2014 11.1986 13.3804 11.1986 13.6013C11.1986 13.8221 11.0195 14.0012 10.7987 14.0012H8.79905C8.35731 14.0012 7.99921 14.3593 7.99921 14.801C7.99921 15.2428 8.35731 15.6009 8.79905 15.6009H9.59889V16.0008C9.59889 16.4425 9.95699 16.8006 10.3987 16.8006C10.8405 16.8006 11.1986 16.4425 11.1986 16.0008V15.5609C12.2053 15.3565 12.8934 14.4224 12.7901 13.4003C12.6869 12.3782 11.826 11.6006 10.7987 11.6017H9.99881C9.77794 11.6017 9.59889 11.4226 9.59889 11.2017C9.59889 10.9809 9.77794 10.8018 9.99881 10.8018ZM19.197 12.0016H16.7975V4.80302C16.7986 4.51613 16.646 4.2506 16.3975 4.10716C16.1501 3.96428 15.8452 3.96428 15.5977 4.10716L13.1982 5.48289L10.7987 4.10716C10.5512 3.96428 10.2463 3.96428 9.99881 4.10716L7.59929 5.48289L5.19977 4.10716C4.9523 3.96428 4.6474 3.96428 4.39993 4.10716C4.15147 4.2506 3.99887 4.51613 4.00001 4.80302V17.6005C4.00001 18.9257 5.07431 20 6.39953 20H17.5973C18.9225 20 19.9968 18.9257 19.9968 17.6005V12.8014C19.9968 12.3597 19.6387 12.0016 19.197 12.0016ZM6.39953 18.4003C5.95779 18.4003 5.59969 18.0422 5.59969 17.6005V6.18675L7.19937 7.09856C7.44993 7.22943 7.74866 7.22943 7.99921 7.09856L10.3987 5.72284L12.7983 7.09856C13.0488 7.22943 13.3475 7.22943 13.5981 7.09856L15.1978 6.18675V17.6005C15.1999 17.8733 15.2486 18.1438 15.3418 18.4003H6.39953ZM18.3971 17.6005C18.3971 18.0422 18.039 18.4003 17.5973 18.4003C17.1556 18.4003 16.7975 18.0422 16.7975 17.6005V13.6013H18.3971V17.6005Z"
    fill="currentColor" />
</svg>
