<svg viewBox="0 0 24 24" fill="none" xmlns="http://www.w3.org/2000/svg">
  <path
    d="M20 11.8593C19.9993 11.1895 19.7329 10.5473 19.2593 10.0737C18.7857 9.60009 18.1435 9.33368 17.4737 9.33294H14.2697C14.4047 9.08192 14.4985 8.81084 14.5475 8.53006C14.7072 7.60908 14.4092 6.59181 13.6616 5.50662C13.342 5.04433 12.9774 4.6149 12.573 4.22465C12.4173 4.08002 12.2126 3.99963 12 3.99963C11.7875 3.99963 11.5828 4.08002 11.427 4.22465C11.0227 4.6149 10.658 5.04433 10.3385 5.50662C9.59089 6.59181 9.29285 7.60908 9.45264 8.53006C9.50159 8.81084 9.59535 9.08192 9.73033 9.33294H6.52632C5.85653 9.33368 5.21438 9.60009 4.74076 10.0737C4.26715 10.5473 4.00074 11.1895 4 11.8593V12.7946C4.00155 13.2307 4.08913 13.6622 4.25771 14.0644C4.4263 14.4666 4.67258 14.8316 4.98246 15.1384V18.5961C4.98287 18.9682 5.13087 19.325 5.39399 19.5881C5.65711 19.8512 6.01386 19.9992 6.38597 19.9996H17.6141C17.9862 19.9992 18.3429 19.8512 18.606 19.5881C18.8692 19.325 19.0172 18.9682 19.0176 18.5961V15.1384C19.3275 14.8316 19.5737 14.4666 19.7423 14.0644C19.9109 13.6622 19.9985 13.2307 20 12.7946V11.8593ZM12.0014 6.09111C12.4834 6.69581 13.007 7.55638 12.888 8.2422C12.8218 8.62382 12.5236 8.95912 12 9.24178C11.4772 8.95954 11.1791 8.62494 11.1123 8.2441C10.9928 7.56255 11.5188 6.69841 12.0014 6.09111ZM5.68421 11.8593C5.68446 11.636 5.77326 11.4219 5.93113 11.2641C6.089 11.1062 6.30305 11.0174 6.52632 11.0172H17.4737C17.697 11.0174 17.911 11.1062 18.0689 11.2641C18.2268 11.4219 18.3156 11.636 18.3158 11.8593V12.7946C18.3149 13.0087 18.2715 13.2205 18.1882 13.4178C18.1049 13.6151 17.9833 13.7939 17.8306 13.944C17.6881 14.087 17.5182 14.1998 17.331 14.2757C17.1439 14.3515 16.9434 14.3888 16.7415 14.3854C16.338 14.3755 15.9542 14.2088 15.6716 13.9206C15.3891 13.6323 15.23 13.2453 15.2281 12.8417C15.2281 12.813 15.2266 12.7842 15.2237 12.7556C15.2024 12.5483 15.105 12.3562 14.9502 12.2166C14.7955 12.0769 14.5944 11.9996 14.386 11.9996C14.1775 11.9996 13.9765 12.0769 13.8218 12.2166C13.667 12.3562 13.5696 12.5483 13.5482 12.7556C13.5453 12.7842 13.5439 12.813 13.5439 12.8417C13.5439 13.2512 13.3812 13.6439 13.0917 13.9334C12.8022 14.2229 12.4095 14.3856 12 14.3856C11.5906 14.3856 11.1979 14.2229 10.9083 13.9334C10.6188 13.6439 10.4562 13.2512 10.4562 12.8417C10.4562 12.813 10.4547 12.7842 10.4518 12.7556C10.4305 12.5483 10.333 12.3562 10.1783 12.2166C10.0235 12.0769 9.82249 11.9996 9.61405 11.9996C9.40561 11.9996 9.20458 12.0769 9.04983 12.2166C8.89508 12.3562 8.79762 12.5483 8.77629 12.7556C8.77339 12.7842 8.77194 12.813 8.77194 12.8417C8.77005 13.2453 8.61093 13.6323 8.32837 13.9205C8.0458 14.2087 7.66203 14.3754 7.25853 14.3853C7.05667 14.3886 6.85621 14.3513 6.6691 14.2754C6.48199 14.1996 6.31207 14.0869 6.16948 13.944C6.01669 13.7939 5.89514 13.6151 5.81185 13.4178C5.72856 13.2205 5.68518 13.0087 5.68421 12.7946V11.8593ZM6.66667 18.3154V16.0196C6.87255 16.0566 7.08159 16.0733 7.29074 16.0692C7.72915 16.0598 8.16102 15.961 8.55989 15.7788C8.95877 15.5966 9.31624 15.3349 9.6104 15.0097C9.91259 15.3435 10.2813 15.6103 10.6929 15.7929C11.1045 15.9754 11.5498 16.0698 12 16.0698C12.4503 16.0698 12.8955 15.9754 13.3071 15.7929C13.7187 15.6103 14.0875 15.3435 14.3896 15.0097C14.6838 15.3349 15.0413 15.5966 15.4401 15.7788C15.839 15.961 16.2709 16.0598 16.7093 16.0692C16.7299 16.0696 16.7504 16.0698 16.771 16.0698C16.9596 16.0696 17.1478 16.0526 17.3334 16.019V18.3154H6.66667Z"
    fill="currentColor" />
</svg>
