<svg viewBox="0 0 24 24" fill="none" xmlns="http://www.w3.org/2000/svg">
  <path
    d="M18.6706 10.0649C18.6043 9.93328 18.5029 9.82261 18.3775 9.74514C18.2521 9.66767 18.1078 9.62643 17.9604 9.62598H13.9704V4.83797C13.979 4.66296 13.9297 4.48999 13.8302 4.34577C13.7307 4.20154 13.5864 4.09408 13.4198 4.03997C13.2596 3.98726 13.0868 3.98667 12.9262 4.03828C12.7656 4.08989 12.6255 4.19106 12.526 4.32725L6.14201 13.1053C6.06203 13.2209 6.014 13.3556 6.00279 13.4957C5.99158 13.6358 6.01758 13.7764 6.07817 13.9033C6.13397 14.0483 6.2309 14.1739 6.35707 14.2646C6.48323 14.3553 6.63314 14.4073 6.78839 14.414H10.7784V19.202C10.7785 19.3703 10.8318 19.5342 10.9307 19.6704C11.0296 19.8065 11.169 19.9079 11.329 19.9601C11.4092 19.985 11.4925 19.9984 11.5764 20C11.7023 20.0003 11.8265 19.9709 11.9389 19.914C12.0512 19.8571 12.1485 19.7745 12.2228 19.6728L18.6068 10.8948C18.6928 10.7757 18.7442 10.6353 18.7555 10.4888C18.7668 10.3424 18.7374 10.1957 18.6706 10.0649ZM12.3744 16.7442V13.616C12.3744 13.4043 12.2903 13.2014 12.1407 13.0517C11.991 12.9021 11.788 12.818 11.5764 12.818H8.3844L12.3744 7.29582V10.424C12.3744 10.6356 12.4585 10.8386 12.6081 10.9883C12.7578 11.1379 12.9608 11.222 13.1724 11.222H16.3644L12.3744 16.7442Z"
    fill="currentColor" />
</svg>
