<svg width="18" height="17" viewBox="0 0 18 17" fill="none" xmlns="http://www.w3.org/2000/svg">
<path d="M9.03503 2.5735L10.2354 3.7739C10.3098 3.84891 10.3983 3.90845 10.4959 3.94907C10.5934 3.9897 10.698 4.01062 10.8036 4.01062C10.9093 4.01062 11.0139 3.9897 11.1114 3.94907C11.2089 3.90845 11.2974 3.84891 11.3718 3.7739C11.4933 3.64642 11.5693 3.48245 11.5881 3.30739C11.6069 3.13233 11.5674 2.95595 11.4758 2.80558H14.4048C14.6171 2.80558 14.8206 2.72126 14.9707 2.57118C15.1208 2.42111 15.2051 2.21755 15.2051 2.00531C15.2051 1.79307 15.1208 1.58951 14.9707 1.43944C14.8206 1.28936 14.6171 1.20504 14.4048 1.20504H11.4758C11.5674 1.05467 11.6069 0.878295 11.5881 0.703233C11.5693 0.52817 11.4933 0.364197 11.3718 0.236718C11.2974 0.16171 11.2089 0.102175 11.1114 0.0615461C11.0139 0.0209176 10.9093 0 10.8036 0C10.698 0 10.5934 0.0209176 10.4959 0.0615461C10.3983 0.102175 10.3098 0.16171 10.2354 0.236718L9.03503 1.43712C8.96217 1.51323 8.90506 1.60297 8.86697 1.70121C8.78693 1.89604 8.78693 2.11458 8.86697 2.30941C8.90506 2.40765 8.96217 2.49739 9.03503 2.5735ZM17.5419 5.70255C17.5038 5.60431 17.4467 5.51457 17.3738 5.43846L16.1734 4.23806C16.099 4.16305 16.0105 4.10351 15.913 4.06289C15.8155 4.02226 15.7109 4.00134 15.6052 4.00134C15.4996 4.00134 15.395 4.02226 15.2975 4.06289C15.1999 4.10351 15.1114 4.16305 15.037 4.23806C14.9156 4.36554 14.8396 4.52951 14.8208 4.70457C14.802 4.87963 14.8414 5.05601 14.933 5.20638H12.004C11.7918 5.20638 11.5882 5.2907 11.4381 5.44078C11.2881 5.59085 11.2038 5.79441 11.2038 6.00665C11.2038 6.21889 11.2881 6.42245 11.4381 6.57253C11.5882 6.7226 11.7918 6.80692 12.004 6.80692H14.933C14.8414 6.95729 14.802 7.13367 14.8208 7.30873C14.8396 7.48379 14.9156 7.64776 15.037 7.77524C15.1114 7.85025 15.1999 7.90979 15.2975 7.95041C15.395 7.99104 15.4996 8.01196 15.6052 8.01196C15.7109 8.01196 15.8155 7.99104 15.913 7.95041C16.0105 7.90979 16.099 7.85025 16.1734 7.77524L17.3738 6.57484C17.4467 6.49873 17.5038 6.40899 17.5419 6.31075C17.6219 6.11592 17.6219 5.89738 17.5419 5.70255ZM8.00268 6.40678C7.36957 6.40678 6.75067 6.59452 6.22426 6.94626C5.69785 7.298 5.28756 7.79794 5.04528 8.38286C4.80299 8.96778 4.7396 9.61141 4.86312 10.2324C4.98663 10.8533 5.2915 11.4237 5.73918 11.8714C6.18686 12.319 6.75723 12.6239 7.37818 12.7474C7.99913 12.8709 8.64276 12.8075 9.22768 12.5653C9.8126 12.323 10.3125 11.9127 10.6643 11.3863C11.016 10.8599 11.2038 10.241 11.2038 9.60786C11.2038 8.75888 10.8665 7.94467 10.2662 7.34436C9.66586 6.74404 8.85166 6.40678 8.00268 6.40678ZM8.00268 11.2084C7.68612 11.2084 7.37668 11.1145 7.11347 10.9387C6.85026 10.7628 6.64512 10.5128 6.52398 10.2204C6.40284 9.92789 6.37114 9.60608 6.4329 9.29561C6.49465 8.98513 6.64709 8.69995 6.87093 8.47611C7.09477 8.25227 7.37996 8.09983 7.69043 8.03807C8.0009 7.97632 8.32272 8.00801 8.61518 8.12915C8.90764 8.25029 9.15761 8.45544 9.33348 8.71865C9.50935 8.98185 9.60322 9.2913 9.60322 9.60786C9.60322 10.0323 9.43459 10.4394 9.13443 10.7396C8.83427 11.0398 8.42717 11.2084 8.00268 11.2084ZM15.2051 8.80759C14.9928 8.80759 14.7893 8.8919 14.6392 9.04198C14.4891 9.19206 14.4048 9.39561 14.4048 9.60786V13.6092C14.4048 13.8214 14.3205 14.025 14.1704 14.1751C14.0204 14.3252 13.8168 14.4095 13.6046 14.4095H2.4008C2.18856 14.4095 1.98501 14.3252 1.83493 14.1751C1.68485 14.025 1.60054 13.8214 1.60054 13.6092V7.20705C1.60054 6.99481 1.68485 6.79126 1.83493 6.64118C1.98501 6.4911 2.18856 6.40678 2.4008 6.40678H4.00134C4.17685 6.41537 4.35031 6.36595 4.49495 6.26616C4.63958 6.16636 4.74734 6.02173 4.80161 5.8546L5.23375 4.55817C5.28378 4.40402 5.37942 4.2687 5.50803 4.1701C5.63664 4.0715 5.79215 4.01427 5.95399 4.00598H7.20241C7.41466 4.00598 7.61821 3.92167 7.76829 3.77159C7.91837 3.62151 8.00268 3.41796 8.00268 3.20571C8.00268 2.99347 7.91837 2.78992 7.76829 2.63984C7.61821 2.48976 7.41466 2.40544 7.20241 2.40544H5.95399C5.44871 2.40526 4.95625 2.56451 4.54674 2.86051C4.13723 3.1565 3.83155 3.57416 3.67323 4.054L3.42515 4.80625H2.4008C1.76407 4.80625 1.15342 5.05919 0.703179 5.50943C0.252941 5.95967 0 6.57032 0 7.20705V13.6092C0 14.2459 0.252941 14.8566 0.703179 15.3068C1.15342 15.7571 1.76407 16.01 2.4008 16.01H13.6046C14.2413 16.01 14.8519 15.7571 15.3022 15.3068C15.7524 14.8566 16.0054 14.2459 16.0054 13.6092V9.60786C16.0054 9.39561 15.921 9.19206 15.771 9.04198C15.6209 8.8919 15.4173 8.80759 15.2051 8.80759Z" fill="currentColor"/>
</svg>
