<svg viewBox="0 0 16 17" fill="none" xmlns="http://www.w3.org/2000/svg">
  <path fill-rule="evenodd" clip-rule="evenodd"
    d="M8 5.99316C6.067 5.99316 4.5 7.56017 4.5 9.49316C4.5 11.4262 6.067 12.9932 8 12.9932C9.933 12.9932 11.5 11.4262 11.5 9.49316C11.5 7.56017 9.933 5.99316 8 5.99316ZM6.5 9.49316C6.5 8.66474 7.17157 7.99316 8 7.99316C8.82843 7.99316 9.5 8.66474 9.5 9.49316C9.5 10.3216 8.82843 10.9932 8 10.9932C7.17157 10.9932 6.5 10.3216 6.5 9.49316Z" />
  <path fill-rule="evenodd" clip-rule="evenodd"
    d="M6 1.99316C5.73478 1.99316 5.48043 2.09852 5.29289 2.28606L3.58579 3.99316H2C0.89543 3.99316 0 4.88859 0 5.99316V13.9932C0 15.0977 0.895431 15.9932 2 15.9932H14C15.1046 15.9932 16 15.0977 16 13.9932V5.99316C16 4.88859 15.1046 3.99316 14 3.99316H12.4142L10.7071 2.28606C10.5196 2.09852 10.2652 1.99316 10 1.99316H6ZM4.70711 5.70027L6.41421 3.99316H9.58579L11.2929 5.70027C11.4804 5.88781 11.7348 5.99316 12 5.99316H14V13.9932H2V5.99316H4C4.26522 5.99316 4.51957 5.88781 4.70711 5.70027Z" />
</svg>
