<svg width="40" height="40" viewBox="0 0 20 18" fill="none" xmlns="http://www.w3.org/2000/svg">
<path d="M16.9996 3.16718H15.7197L15.3997 2.11146C15.1922 1.49199 14.8074 0.955979 14.2986 0.57767C13.7898 0.199362 13.1821 -0.00250933 12.5597 2.35463e-05H7.43984C6.81141 0.00126476 6.19921 0.210832 5.68965 0.599149C5.18009 0.987465 4.79891 1.53492 4.5999 2.16424L4.27991 3.21996H2.99994C2.2043 3.21996 1.44126 3.55364 0.878661 4.1476C0.316064 4.74155 0 5.54713 0 6.38711V14.8328C0 15.6728 0.316064 16.4784 0.878661 17.0724C1.44126 17.6663 2.2043 18 2.99994 18H16.9996C17.7953 18 18.5583 17.6663 19.1209 17.0724C19.6835 16.4784 19.9996 15.6728 19.9996 14.8328V6.38711C20.0062 5.96678 19.9335 5.54925 19.7857 5.15888C19.638 4.76851 19.418 4.41311 19.1388 4.1134C18.8596 3.81369 18.5266 3.57566 18.1593 3.41321C17.7921 3.25075 17.3978 3.16712 16.9996 3.16718ZM17.9996 14.7801C17.9996 15.0601 17.8943 15.3286 17.7067 15.5266C17.5192 15.7246 17.2649 15.8358 16.9996 15.8358H2.99994C2.73473 15.8358 2.48038 15.7246 2.29285 15.5266C2.10531 15.3286 1.99996 15.0601 1.99996 14.7801V6.33433C1.99996 6.05433 2.10531 5.78581 2.29285 5.58782C2.48038 5.38984 2.73473 5.27861 2.99994 5.27861H4.9999C5.21796 5.29063 5.43375 5.22696 5.61432 5.09733C5.79488 4.9677 5.9303 4.77923 5.99988 4.56072L6.53986 2.82935C6.60695 2.61966 6.73476 2.43753 6.90523 2.30871C7.0757 2.17989 7.2802 2.11089 7.48984 2.11146H12.6097C12.8194 2.11089 13.0239 2.17989 13.1944 2.30871C13.3648 2.43753 13.4926 2.61966 13.5597 2.82935L14.0997 4.56072C14.1639 4.76209 14.2841 4.93834 14.4447 5.06642C14.6052 5.1945 14.7987 5.26845 14.9997 5.27861H16.9996C17.2649 5.27861 17.5192 5.38984 17.7067 5.58782C17.8943 5.78581 17.9996 6.05433 17.9996 6.33433V14.7801ZM9.99979 5.27861C9.20868 5.27861 8.43534 5.52628 7.77756 5.99029C7.11977 6.45431 6.60709 7.11383 6.30435 7.88546C6.00161 8.65708 5.92239 9.50616 6.07673 10.3253C6.23107 11.1445 6.61203 11.8969 7.17142 12.4875C7.73082 13.0781 8.44354 13.4803 9.21945 13.6432C9.99535 13.8061 10.7996 13.7225 11.5305 13.4029C12.2614 13.0833 12.8861 12.542 13.3256 11.8476C13.7651 11.1531 13.9997 10.3367 13.9997 9.50148C13.9997 8.3815 13.5783 7.3074 12.8282 6.51546C12.078 5.72352 11.0606 5.27861 9.99979 5.27861ZM9.99979 11.6129C9.60424 11.6129 9.21757 11.4891 8.88867 11.2571C8.55978 11.0251 8.30344 10.6953 8.15207 10.3095C8.0007 9.92367 7.96109 9.49914 8.03826 9.08956C8.11543 8.67998 8.30591 8.30376 8.58561 8.00847C8.86531 7.71318 9.22167 7.51208 9.60962 7.43061C9.99757 7.34914 10.3997 7.39096 10.7651 7.55077C11.1306 7.71058 11.4429 7.9812 11.6627 8.32843C11.8825 8.67565 11.9998 9.08387 11.9998 9.50148C11.9998 10.0615 11.789 10.5985 11.414 10.9945C11.0389 11.3905 10.5302 11.6129 9.99979 11.6129Z" fill="currentColor"/>
</svg>
