<svg width="40" height="40" viewBox="0 0 40 40" xmlns="http://www.w3.org/2000/svg">
  <path
    d="M6.18299 3.81632C6.02759 3.66093 5.84311 3.53766 5.64007 3.45356C5.43704 3.36946 5.21942 3.32617 4.99966 3.32617C4.77989 3.32617 4.56228 3.36946 4.35924 3.45356C4.15621 3.53766 3.97172 3.66093 3.81632 3.81632C3.50248 4.13016 3.32617 4.55582 3.32617 4.99966C3.32617 5.44349 3.50248 5.86915 3.81632 6.18299L8.48299 10.833H8.33299C7.00691 10.833 5.73514 11.3598 4.79746 12.2975C3.85978 13.2351 3.33299 14.5069 3.33299 15.833V29.1663C3.33299 30.4924 3.85978 31.7642 4.79746 32.7019C5.73514 33.6395 7.00691 34.1663 8.33299 34.1663H31.7997L33.8163 36.1997C33.9713 36.3559 34.1556 36.4799 34.3587 36.5645C34.5618 36.6491 34.7796 36.6927 34.9997 36.6927C35.2197 36.6927 35.4375 36.6491 35.6406 36.5645C35.8437 36.4799 36.028 36.3559 36.183 36.1997C36.3392 36.0447 36.4632 35.8604 36.5478 35.6573C36.6324 35.4542 36.676 35.2363 36.676 35.0163C36.676 34.7963 36.6324 34.5785 36.5478 34.3754C36.4632 34.1723 36.3392 33.9879 36.183 33.833L6.18299 3.81632ZM16.9997 19.3663L21.4663 23.833C21.0092 24.0544 20.5076 24.1684 19.9997 24.1663C19.1156 24.1663 18.2678 23.8151 17.6426 23.19C17.0175 22.5649 16.6663 21.717 16.6663 20.833C16.6642 20.3251 16.7783 19.8234 16.9997 19.3663ZM8.33299 30.833C7.89096 30.833 7.46704 30.6574 7.15448 30.3448C6.84192 30.0323 6.66632 29.6084 6.66632 29.1663V15.833C6.66632 15.391 6.84192 14.967 7.15448 14.6545C7.46704 14.3419 7.89096 14.1663 8.33299 14.1663H11.783L14.6163 16.983C13.7907 18.0976 13.3412 19.446 13.333 20.833C13.333 22.6011 14.0354 24.2968 15.2856 25.547C16.5359 26.7973 18.2315 27.4997 19.9997 27.4997C21.3924 27.495 22.7472 27.0453 23.8663 26.2163L28.483 30.833H8.33299ZM31.6663 10.833H29.533L29.0163 9.16633C28.6696 8.18568 28.0258 7.33755 27.1744 6.74008C26.323 6.1426 25.3064 5.82552 24.2663 5.83299H16.933C16.491 5.83299 16.067 6.00859 15.7545 6.32115C15.4419 6.63371 15.2663 7.05763 15.2663 7.49966C15.2663 7.94169 15.4419 8.36561 15.7545 8.67817C16.067 8.99073 16.491 9.16633 16.933 9.16633H24.2663C24.6157 9.16542 24.9566 9.27436 25.2407 9.47773C25.5248 9.6811 25.7378 9.96862 25.8497 10.2997L26.7497 13.0163C26.8586 13.3505 27.0704 13.6416 27.3548 13.8482C27.6391 14.0547 27.9815 14.1661 28.333 14.1663H31.6663C32.1084 14.1663 32.5323 14.3419 32.8448 14.6545C33.1574 14.967 33.333 15.391 33.333 15.833V25.5663C33.333 26.0084 33.5086 26.4323 33.8211 26.7448C34.1337 27.0574 34.5576 27.233 34.9997 27.233C35.4417 27.233 35.8656 27.0574 36.1782 26.7448C36.4907 26.4323 36.6663 26.0084 36.6663 25.5663V15.833C36.6663 14.5069 36.1395 13.2351 35.2019 12.2975C34.2642 11.3598 32.9924 10.833 31.6663 10.833Z"
    fill="currentColor" />
</svg>
