<svg width="24" height="24" viewBox="0 0 24 24" fill="none" xmlns="http://www.w3.org/2000/svg">
<path fill-rule="evenodd" clip-rule="evenodd" d="M7.5 16C8.32843 16 9 15.3284 9 14.5C9.00488 14.4501 9.00488 14.3999 9 14.35L11.79 11.56H12.02H12.25L13.86 13.17C13.86 13.17 13.86 13.22 13.86 13.25C13.86 14.0784 14.5316 14.75 15.36 14.75C16.1884 14.75 16.86 14.0784 16.86 13.25V13.17L20.5 9.5C21.3284 9.5 22 8.82843 22 8C22 7.17157 21.3284 6.5 20.5 6.5C19.6716 6.5 19 7.17157 19 8C18.9951 8.04988 18.9951 8.10012 19 8.15L15.39 11.76H15.23L13.5 10C13.5 9.17157 12.8284 8.5 12 8.5C11.1716 8.5 10.5 9.17157 10.5 10L7.5 13C6.67157 13 6 13.6716 6 14.5C6 15.3284 6.67157 16 7.5 16ZM21 20H4V3C4 2.44772 3.55228 2 3 2C2.44772 2 2 2.44772 2 3V21C2 21.5523 2.44772 22 3 22H21C21.5523 22 22 21.5523 22 21C22 20.4477 21.5523 20 21 20Z" fill="currentColor"/>
</svg>
