<svg width="24" height="24" viewBox="0 0 24 24" fill="none" xmlns="http://www.w3.org/2000/svg">
<path fill-rule="evenodd" clip-rule="evenodd" d="M17.9637 7.76045C17.7967 7.59376 17.5693 7.5 17.3322 7.5C17.095 7.5 16.8677 7.59376 16.7007 7.76045L10.0744 14.3289L7.29045 11.5642C7.0569 11.3408 6.72072 11.2578 6.40855 11.3463C6.09639 11.4349 5.85566 11.6816 5.77705 11.9935C5.69845 12.3054 5.7939 12.6351 6.02746 12.8585L9.44288 16.2396C9.60989 16.4062 9.83722 16.5 10.0744 16.5C10.3115 16.5 10.5389 16.4062 10.7059 16.2396L17.9637 9.05477C18.1462 8.88808 18.25 8.65344 18.25 8.40761C18.25 8.16177 18.1462 7.92714 17.9637 7.76045Z" fill="currentColor"/>
</svg>
