<svg width="24" height="24" viewBox="0 0 24 24" fill="none" xmlns="http://www.w3.org/2000/svg">
<path fill-rule="evenodd" clip-rule="evenodd" d="M12 4C7.58172 4 4 7.58172 4 12C4 16.4183 7.58172 20 12 20C16.4183 20 20 16.4183 20 12C20 7.58172 16.4183 4 12 4ZM5.37143 12C5.37143 8.33914 8.33914 5.37143 12 5.37143C15.6609 5.37143 18.6286 8.33914 18.6286 12C18.6286 15.6609 15.6609 18.6286 12 18.6286C8.33914 18.6286 5.37143 15.6609 5.37143 12ZM15.2277 10.6563C15.4955 10.3885 15.4955 9.95434 15.2277 9.68656C14.9599 9.41877 14.5258 9.41877 14.258 9.68656L11.0857 12.8588L9.74202 11.5151C9.47423 11.2473 9.04006 11.2473 8.77227 11.5151C8.50448 11.7829 8.50448 12.2171 8.77227 12.4849L10.6008 14.3134C10.8686 14.5812 11.3028 14.5812 11.5706 14.3134L15.2277 10.6563Z" fill="currentColor"/>
</svg>
