<svg width="24" height="24" viewBox="0 0 24 24" fill="none" xmlns="http://www.w3.org/2000/svg">
<path d="M8.54868 14.9199C8.40859 15.0608 8.32997 15.2515 8.32997 15.4502C8.32997 15.6489 8.40859 15.8395 8.54868 15.9804C8.61859 16.0509 8.70178 16.1068 8.79343 16.145C8.88508 16.1832 8.98339 16.2029 9.08268 16.2029C9.18197 16.2029 9.28027 16.1832 9.37193 16.145C9.46358 16.1068 9.54676 16.0509 9.61668 15.9804C9.75676 15.8395 9.83539 15.6489 9.83539 15.4502C9.83539 15.2515 9.75676 15.0608 9.61668 14.9199C9.54676 14.8494 9.46358 14.7935 9.37193 14.7553C9.28027 14.7171 9.18197 14.6974 9.08268 14.6974C8.98339 14.6974 8.88508 14.7171 8.79343 14.7553C8.70178 14.7935 8.61859 14.8494 8.54868 14.9199ZM8.54868 8.53444C8.40859 8.67536 8.32997 8.86598 8.32997 9.06468C8.32997 9.26338 8.40859 9.45401 8.54868 9.59492C8.61859 9.66542 8.70178 9.72137 8.79343 9.75956C8.88508 9.79774 8.98339 9.8174 9.08268 9.8174C9.18197 9.8174 9.28027 9.79774 9.37193 9.75956C9.46358 9.72137 9.54676 9.66542 9.61668 9.59492C9.75676 9.45401 9.83539 9.26338 9.83539 9.06468C9.83539 8.86598 9.75676 8.67536 9.61668 8.53444C9.54676 8.46394 9.46358 8.40799 9.37193 8.36981C9.28027 8.33162 9.18197 8.31196 9.08268 8.31196C8.98339 8.31196 8.88508 8.33162 8.79343 8.36981C8.70178 8.40799 8.61859 8.46394 8.54868 8.53444ZM12.2717 16.0556C12.1229 16.0556 11.9775 16.0997 11.8538 16.1824C11.7301 16.265 11.6337 16.3825 11.5768 16.5199C11.5199 16.6573 11.505 16.8086 11.534 16.9545C11.563 17.1004 11.6346 17.2344 11.7398 17.3396C11.845 17.4447 11.979 17.5164 12.1249 17.5454C12.2708 17.5744 12.422 17.5595 12.5595 17.5026C12.6969 17.4457 12.8144 17.3493 12.897 17.2256C12.9797 17.1019 13.0238 16.9565 13.0238 16.8077C13.0289 16.7058 13.0132 16.604 12.9777 16.5083C12.9422 16.4127 12.8876 16.3253 12.8172 16.2514C12.7469 16.1775 12.6622 16.1188 12.5684 16.0786C12.4746 16.0385 12.3737 16.0179 12.2717 16.018V16.0556ZM7.75895 11.5429C7.6102 11.5429 7.46478 11.587 7.3411 11.6697C7.21741 11.7523 7.12101 11.8698 7.06409 12.0072C7.00716 12.1446 6.99227 12.2959 7.02129 12.4418C7.05031 12.5877 7.12194 12.7217 7.22713 12.8269C7.33231 12.932 7.46633 13.0037 7.61222 13.0327C7.75812 13.0617 7.90934 13.0468 8.04678 12.9899C8.18421 12.933 8.30167 12.8366 8.38432 12.7129C8.46696 12.5892 8.51107 12.4438 8.51107 12.295C8.51617 12.1931 8.50049 12.0913 8.46498 11.9956C8.42948 11.9 8.37489 11.8126 8.30453 11.7387C8.23417 11.6648 8.14953 11.6061 8.05573 11.5659C7.96194 11.5258 7.86097 11.5052 7.75895 11.5053V11.5429ZM12.2717 7.0302C12.1229 7.0302 11.9775 7.07431 11.8538 7.15696C11.7301 7.2396 11.6337 7.35707 11.5768 7.4945C11.5199 7.63193 11.505 7.78316 11.534 7.92905C11.563 8.07495 11.6346 8.20896 11.7398 8.31415C11.845 8.41933 11.979 8.49097 12.1249 8.51999C12.2708 8.54901 12.422 8.53411 12.5595 8.47719C12.6969 8.42026 12.8144 8.32386 12.897 8.20018C12.9797 8.07649 13.0238 7.93108 13.0238 7.78232C13.0289 7.68043 13.0132 7.57857 12.9777 7.48294C12.9422 7.3873 12.8876 7.29989 12.8172 7.22601C12.7469 7.15214 12.6622 7.09335 12.5684 7.05322C12.4746 7.0131 12.3737 6.99247 12.2717 6.9926V7.0302ZM14.9342 8.57204C14.8285 8.67705 14.7564 8.81106 14.7271 8.95707C14.6977 9.10309 14.7123 9.25455 14.7691 9.39224C14.8259 9.52993 14.9223 9.64766 15.0461 9.7305C15.1699 9.81334 15.3154 9.85757 15.4644 9.85757C15.6133 9.85757 15.7589 9.81334 15.8827 9.7305C16.0065 9.64766 16.1029 9.52993 16.1597 9.39224C16.2165 9.25455 16.2311 9.10309 16.2017 8.95707C16.1723 8.81106 16.1003 8.67705 15.9946 8.57204C15.8587 8.42685 15.6709 8.34138 15.4722 8.33434C15.2734 8.32729 15.08 8.39924 14.9342 8.53444V8.57204ZM19.6725 8.57204C18.9849 7.1974 17.9279 6.04148 16.6201 5.23392C15.3123 4.42636 13.8054 3.99908 12.2683 4C10.7313 4.00092 9.22492 4.43 7.91809 5.23912C6.61126 6.04825 5.55567 7.20542 4.86968 8.58089C4.18369 9.95636 3.89444 11.4957 4.03435 13.0264C4.17426 14.557 4.73781 16.0185 5.6618 17.2468C6.58579 18.4751 7.83368 19.4217 9.26555 19.9805C10.6974 20.5393 12.2566 20.6881 13.7684 20.4104C14.1485 20.3388 14.5106 20.1922 14.8335 19.9792C15.1563 19.7661 15.4334 19.4908 15.6487 19.1694C15.8806 18.8199 16.0406 18.4278 16.1194 18.0159C16.1981 17.604 16.1941 17.1805 16.1075 16.7701C16.0601 16.5221 16.0349 16.2704 16.0322 16.018C16.0355 15.2892 16.2506 14.577 16.6511 13.9681C17.0517 13.3592 17.6206 12.8799 18.2886 12.5883C18.6488 12.4271 18.9721 12.1937 19.2385 11.9027C19.505 11.6116 19.709 11.269 19.838 10.8961C19.9684 10.515 20.0209 10.1116 19.9925 9.70976C19.9641 9.30796 19.8553 8.91596 19.6725 8.557V8.57204ZM18.3939 10.4072C18.3297 10.5872 18.2301 10.7525 18.1009 10.8933C17.9717 11.0341 17.8156 11.1476 17.6418 11.227C16.7167 11.6411 15.9307 12.3135 15.3784 13.1633C14.8261 14.0132 14.5308 15.0044 14.528 16.018C14.5291 16.3716 14.5644 16.7242 14.6333 17.071C14.6792 17.2829 14.6823 17.5019 14.6422 17.715C14.6022 17.9282 14.5199 18.1311 14.4001 18.312C14.2988 18.4702 14.1655 18.6055 14.0088 18.7091C13.8521 18.8128 13.6754 18.8824 13.4901 18.9137C13.0883 18.9892 12.6804 19.0269 12.2717 19.0265C11.3647 19.0269 10.467 18.8451 9.63167 18.4918C8.79637 18.1386 8.04059 17.621 7.40919 16.97C6.77779 16.319 6.28366 15.5477 5.95614 14.702C5.62862 13.8562 5.47439 12.9533 5.5026 12.0468C5.56097 10.3567 6.24645 8.74876 7.42549 7.53635C8.60452 6.32394 10.1927 5.59387 11.8806 5.48836H12.2641C13.5245 5.48868 14.7597 5.84087 15.8308 6.50528C16.9018 7.16968 17.766 8.11991 18.3262 9.24895C18.4986 9.60619 18.5229 10.0171 18.3939 10.3922V10.4072ZM12.2717 11.5053C12.1229 11.5053 11.9775 11.5494 11.8538 11.6321C11.7301 11.7147 11.6337 11.8322 11.5768 11.9696C11.5199 12.107 11.505 12.2583 11.534 12.4041C11.563 12.55 11.6346 12.6841 11.7398 12.7892C11.845 12.8944 11.979 12.9661 12.1249 12.9951C12.2708 13.0241 12.422 13.0092 12.5595 12.9523C12.6969 12.8954 12.8144 12.799 12.897 12.6753C12.9797 12.5516 13.0238 12.4062 13.0238 12.2574C13.0238 12.0579 12.9445 11.8666 12.8035 11.7256C12.6624 11.5845 12.4711 11.5053 12.2717 11.5053Z" fill="currentColor"/>
</svg>
