<svg viewBox="0 0 24 24" fill="none" xmlns="http://www.w3.org/2000/svg">
  <path
    d="M12 9.6C11.7878 9.6 11.5843 9.68429 11.4343 9.83431C11.2843 9.98434 11.2 10.1878 11.2 10.4V12.8C11.2 13.0122 11.2843 13.2157 11.4343 13.3657C11.5843 13.5157 11.7878 13.6 12 13.6C12.2122 13.6 12.4157 13.5157 12.5657 13.3657C12.7157 13.2157 12.8 13.0122 12.8 12.8V10.4C12.8 10.1878 12.7157 9.98434 12.5657 9.83431C12.4157 9.68429 12.2122 9.6 12 9.6ZM17.6 4H6.4C5.76348 4 5.15303 4.25286 4.70294 4.70294C4.25286 5.15303 4 5.76348 4 6.4V14.4C4 15.0365 4.25286 15.647 4.70294 16.0971C5.15303 16.5471 5.76348 16.8 6.4 16.8H15.672L18.632 19.768C18.7068 19.8421 18.7954 19.9008 18.8929 19.9406C18.9903 19.9804 19.0947 20.0006 19.2 20C19.3049 20.0027 19.4091 19.9808 19.504 19.936C19.6501 19.876 19.7752 19.7741 19.8634 19.6431C19.9517 19.5121 19.9992 19.3579 20 19.2V6.4C20 5.76348 19.7471 5.15303 19.2971 4.70294C18.847 4.25286 18.2365 4 17.6 4ZM18.4 17.272L16.568 15.432C16.4932 15.3579 16.4046 15.2992 16.3071 15.2594C16.2097 15.2196 16.1053 15.1994 16 15.2H6.4C6.18783 15.2 5.98434 15.1157 5.83431 14.9657C5.68429 14.8157 5.6 14.6122 5.6 14.4V6.4C5.6 6.18783 5.68429 5.98434 5.83431 5.83431C5.98434 5.68429 6.18783 5.6 6.4 5.6H17.6C17.8122 5.6 18.0157 5.68429 18.1657 5.83431C18.3157 5.98434 18.4 6.18783 18.4 6.4V17.272ZM12 7.2C11.8418 7.2 11.6871 7.24692 11.5555 7.33482C11.424 7.42273 11.3214 7.54767 11.2609 7.69385C11.2003 7.84003 11.1845 8.00089 11.2154 8.15607C11.2462 8.31126 11.3224 8.4538 11.4343 8.56569C11.5462 8.67757 11.6887 8.75376 11.8439 8.78463C11.9991 8.8155 12.16 8.79965 12.3061 8.7391C12.4523 8.67855 12.5773 8.57602 12.6652 8.44446C12.7531 8.3129 12.8 8.15823 12.8 8C12.8 7.78783 12.7157 7.58434 12.5657 7.43431C12.4157 7.28429 12.2122 7.2 12 7.2Z"
    fill="currentColor" />
</svg>
