<svg width="24" height="24" viewBox="0 0 24 24" fill="none" xmlns="http://www.w3.org/2000/svg">
<path d="M19.4 9.552C19.3917 9.47851 19.3756 9.4061 19.352 9.336V9.264C19.3135 9.18174 19.2622 9.10613 19.2 9.04L14.4 4.24C14.3339 4.17777 14.2583 4.12646 14.176 4.088C14.1521 4.08461 14.1279 4.08461 14.104 4.088C14.0227 4.04139 13.933 4.01148 13.84 4H10.6C9.96348 4 9.35303 4.25286 8.90294 4.70294C8.45286 5.15303 8.2 5.76348 8.2 6.4V7.2H7.4C6.76348 7.2 6.15303 7.45286 5.70294 7.90294C5.25286 8.35303 5 8.96348 5 9.6V17.6C5 18.2365 5.25286 18.847 5.70294 19.2971C6.15303 19.7471 6.76348 20 7.4 20H13.8C14.4365 20 15.047 19.7471 15.4971 19.2971C15.9471 18.847 16.2 18.2365 16.2 17.6V16.8H17C17.6365 16.8 18.247 16.5471 18.6971 16.0971C19.1471 15.647 19.4 15.0365 19.4 14.4V9.6V9.552ZM14.6 6.728L16.672 8.8H15.4C15.1878 8.8 14.9843 8.71571 14.8343 8.56569C14.6843 8.41566 14.6 8.21217 14.6 8V6.728ZM14.6 17.6C14.6 17.8122 14.5157 18.0157 14.3657 18.1657C14.2157 18.3157 14.0122 18.4 13.8 18.4H7.4C7.18783 18.4 6.98434 18.3157 6.83431 18.1657C6.68429 18.0157 6.6 17.8122 6.6 17.6V9.6C6.6 9.38783 6.68429 9.18434 6.83431 9.03431C6.98434 8.88429 7.18783 8.8 7.4 8.8H8.2V14.4C8.2 15.0365 8.45286 15.647 8.90294 16.0971C9.35303 16.5471 9.96348 16.8 10.6 16.8H14.6V17.6ZM17.8 14.4C17.8 14.6122 17.7157 14.8157 17.5657 14.9657C17.4157 15.1157 17.2122 15.2 17 15.2H10.6C10.3878 15.2 10.1843 15.1157 10.0343 14.9657C9.88429 14.8157 9.8 14.6122 9.8 14.4V6.4C9.8 6.18783 9.88429 5.98434 10.0343 5.83431C10.1843 5.68429 10.3878 5.6 10.6 5.6H13V8C13 8.63652 13.2529 9.24697 13.7029 9.69706C14.153 10.1471 14.7635 10.4 15.4 10.4H17.8V14.4Z" fill="currentColor"/>
</svg>
