<svg width="22" height="22" viewBox="0 0 22 22" fill="none" xmlns="http://www.w3.org/2000/svg">
<path d="M19.5047 2.84507C19.0924 1.98219 18.442 1.25569 17.6304 0.751575C16.8188 0.247455 15.88 -0.0131816 14.9251 0.000513222C13.9703 0.014208 13.0393 0.301661 12.2424 0.82885C11.4456 1.35604 10.8162 2.10089 10.4287 2.97524H5.99065C5.19535 2.97524 4.43262 3.29173 3.87026 3.85507C3.3079 4.41841 2.99197 5.18247 2.99197 5.97915V9.98436C2.99197 10.2499 3.09728 10.5046 3.28473 10.6924C3.47219 10.8802 3.72643 10.9857 3.99153 10.9857C4.25663 10.9857 4.51087 10.8802 4.69832 10.6924C4.88578 10.5046 4.99109 10.2499 4.99109 9.98436V5.97915C4.99109 5.71359 5.0964 5.45891 5.28385 5.27113C5.47131 5.08334 5.72555 4.97785 5.99065 4.97785H8.76943C8.27186 5.5262 7.99418 6.23944 7.98977 6.98046C7.98977 7.77714 8.3057 8.5412 8.86807 9.10454C9.43043 9.66788 10.1932 9.98436 10.9885 9.98436H18.3152C19.1856 9.99065 20.0297 9.68587 20.6959 9.12477C21.3621 8.56366 21.8068 7.78301 21.9501 6.923C22.0934 6.06299 21.9259 5.17998 21.4777 4.43256C21.0295 3.68514 20.3299 3.12228 19.5047 2.84507ZM18.3152 7.98176H10.9885C10.7234 7.98176 10.4691 7.87626 10.2817 7.68848C10.0942 7.5007 9.9889 7.24602 9.9889 6.98046C9.9889 6.71489 10.0942 6.46021 10.2817 6.27243C10.4691 6.08465 10.7234 5.97915 10.9885 5.97915C11.2536 5.97915 11.5078 5.87366 11.6953 5.68588C11.8827 5.4981 11.988 5.24341 11.988 4.97785C11.98 4.26328 12.2265 3.56923 12.6833 3.02034C13.1401 2.47145 13.7773 2.10368 14.4804 1.98307C15.1835 1.86246 15.9066 1.99691 16.5197 2.36228C17.1328 2.72765 17.5957 3.3 17.8255 3.97655C17.8826 4.14861 17.9853 4.3019 18.1226 4.42006C18.2599 4.53821 18.4267 4.6168 18.6051 4.64742C18.996 4.71229 19.3505 4.91596 19.6038 5.22118C19.8571 5.52639 19.9922 5.91275 19.9845 6.30958C19.9845 6.52918 19.9413 6.74662 19.8574 6.9495C19.7736 7.15237 19.6506 7.33671 19.4956 7.49199C19.3406 7.64727 19.1566 7.77044 18.954 7.85447C18.7515 7.93851 18.5345 7.98176 18.3152 7.98176ZM17.9854 11.987C17.7203 11.987 17.466 12.0925 17.2786 12.2802C17.0911 12.468 16.9858 12.7227 16.9858 12.9883V15.9922C16.9858 16.2577 16.8805 16.5124 16.6931 16.7002C16.5056 16.888 16.2514 16.9935 15.9863 16.9935H13.7273C13.5341 16.498 13.2355 16.0505 12.8523 15.6822C12.4691 15.3139 12.0105 15.0336 11.5082 14.8607C11.0553 13.8978 10.3077 13.1045 9.37409 12.5961C8.44048 12.0878 7.3694 11.8907 6.31638 12.0336C5.26336 12.1765 4.28321 12.6518 3.51824 13.3907C2.75327 14.1296 2.2433 15.0934 2.06237 16.1424C1.38546 16.3653 0.809885 16.8223 0.438788 17.4316C0.0676919 18.041 -0.0746754 18.7628 0.0371959 19.4677C0.149067 20.1727 0.507865 20.8146 1.0493 21.2787C1.59074 21.7427 2.27943 21.9984 2.99197 22H10.3188C11.1746 22 12.0033 21.6994 12.6608 21.1506C13.3183 20.6017 13.7628 19.8394 13.9172 18.9961H15.9863C16.7816 18.9961 17.5443 18.6796 18.1067 18.1163C18.669 17.5529 18.9849 16.7889 18.9849 15.9922V12.9883C18.9849 12.7227 18.8796 12.468 18.6922 12.2802C18.5047 12.0925 18.2505 11.987 17.9854 11.987ZM10.3188 19.9974H2.99197C2.72687 19.9974 2.47262 19.8919 2.28517 19.7041C2.09772 19.5163 1.99241 19.2617 1.99241 18.9961C1.99241 18.7305 2.09772 18.4758 2.28517 18.2881C2.47262 18.1003 2.72687 17.9948 2.99197 17.9948C3.25707 17.9948 3.51131 17.8893 3.69876 17.7015C3.88622 17.5137 3.99153 17.259 3.99153 16.9935C3.98346 16.2789 4.22997 15.5849 4.68678 15.036C5.14358 14.4871 5.78077 14.1193 6.48391 13.9987C7.18706 13.8781 7.91009 14.0125 8.52318 14.3779C9.13626 14.7433 9.59924 15.3156 9.82897 15.9922C9.8861 16.1642 9.98881 16.3175 10.1261 16.4357C10.2634 16.5538 10.4302 16.6324 10.6086 16.6631C10.9995 16.7279 11.354 16.9316 11.6073 17.2368C11.8606 17.542 11.9957 17.9284 11.988 18.3252C11.988 18.5448 11.9448 18.7623 11.861 18.9651C11.7771 19.168 11.6541 19.3524 11.4991 19.5076C11.3441 19.6629 11.1601 19.7861 10.9576 19.8701C10.755 19.9541 10.538 19.9974 10.3188 19.9974Z" fill="currentColor"/>
</svg>
