<svg width="48" height="48" viewBox="0 0 48 48" fill="none" xmlns="http://www.w3.org/2000/svg">
<rect width="48" height="48" rx="24" fill="#FDE9E9"/>
<path d="M22.6 28.8C22.8122 28.8 23.0157 28.7157 23.1657 28.5657C23.3157 28.4157 23.4 28.2122 23.4 28V23.2C23.4 22.9878 23.3157 22.7843 23.1657 22.6343C23.0157 22.4843 22.8122 22.4 22.6 22.4C22.3878 22.4 22.1843 22.4843 22.0343 22.6343C21.8843 22.7843 21.8 22.9878 21.8 23.2V28C21.8 28.2122 21.8843 28.4157 22.0343 28.5657C22.1843 28.7157 22.3878 28.8 22.6 28.8ZM30.6 19.2H27.4V18.4C27.4 17.7635 27.1471 17.153 26.6971 16.7029C26.247 16.2529 25.6365 16 25 16H23.4C22.7635 16 22.153 16.2529 21.7029 16.7029C21.2529 17.153 21 17.7635 21 18.4V19.2H17.8C17.5878 19.2 17.3843 19.2843 17.2343 19.4343C17.0843 19.5843 17 19.7878 17 20C17 20.2122 17.0843 20.4157 17.2343 20.5657C17.3843 20.7157 17.5878 20.8 17.8 20.8H18.6V29.6C18.6 30.2365 18.8529 30.847 19.3029 31.2971C19.753 31.7471 20.3635 32 21 32H27.4C28.0365 32 28.647 31.7471 29.0971 31.2971C29.5471 30.847 29.8 30.2365 29.8 29.6V20.8H30.6C30.8122 20.8 31.0157 20.7157 31.1657 20.5657C31.3157 20.4157 31.4 20.2122 31.4 20C31.4 19.7878 31.3157 19.5843 31.1657 19.4343C31.0157 19.2843 30.8122 19.2 30.6 19.2ZM22.6 18.4C22.6 18.1878 22.6843 17.9843 22.8343 17.8343C22.9843 17.6843 23.1878 17.6 23.4 17.6H25C25.2122 17.6 25.4157 17.6843 25.5657 17.8343C25.7157 17.9843 25.8 18.1878 25.8 18.4V19.2H22.6V18.4ZM28.2 29.6C28.2 29.8122 28.1157 30.0157 27.9657 30.1657C27.8157 30.3157 27.6122 30.4 27.4 30.4H21C20.7878 30.4 20.5843 30.3157 20.4343 30.1657C20.2843 30.0157 20.2 29.8122 20.2 29.6V20.8H28.2V29.6ZM25.8 28.8C26.0122 28.8 26.2157 28.7157 26.3657 28.5657C26.5157 28.4157 26.6 28.2122 26.6 28V23.2C26.6 22.9878 26.5157 22.7843 26.3657 22.6343C26.2157 22.4843 26.0122 22.4 25.8 22.4C25.5878 22.4 25.3843 22.4843 25.2343 22.6343C25.0843 22.7843 25 22.9878 25 23.2V28C25 28.2122 25.0843 28.4157 25.2343 28.5657C25.3843 28.7157 25.5878 28.8 25.8 28.8Z" fill="#EF6363"/>
</svg>

