<svg width="24" height="24" viewBox="0 0 24 24" fill="none" xmlns="http://www.w3.org/2000/svg">
<rect x="0.5" y="3.5" width="23" height="17" rx="1.5" fill="white" stroke="#E4E4E5"/>
<path d="M23.0247 13.8645C23.0247 13.8645 16.956 18.1468 5.84131 20.0634H23.0247V13.8645Z" fill="#F48120"/>
<path d="M2.7715 10.2947H1.84473V13.5315H2.7666C3.25679 13.5315 3.61077 13.4158 3.92148 13.1578C4.2907 12.8522 4.50908 12.3917 4.50908 11.9153C4.50917 10.9602 3.79543 10.2947 2.7715 10.2947ZM3.50907 12.7262C3.31066 12.9053 3.05304 12.9835 2.6451 12.9835H2.47569V10.8431H2.6451C3.05304 10.8431 3.30059 10.9161 3.50907 11.1049C3.72745 11.2992 3.85876 11.6006 3.85876 11.9106C3.85876 12.2214 3.72745 12.5319 3.50907 12.7262Z" fill="#231F20"/>
<path d="M5.4312 10.2947H4.7998V13.5315H5.4312V10.2947Z" fill="#231F20"/>
<path d="M6.97493 11.5369C6.59607 11.3967 6.48483 11.3042 6.48483 11.1294C6.48483 10.9254 6.68306 10.7706 6.95514 10.7706C7.14435 10.7706 7.29974 10.8483 7.46425 11.0327L7.79458 10.6001C7.52312 10.3626 7.1983 10.2412 6.84345 10.2412C6.27074 10.2412 5.83389 10.6389 5.83389 11.1687C5.83389 11.6146 6.03729 11.8429 6.63024 12.0563C6.87744 12.1435 7.00323 12.2015 7.06673 12.2406C7.19287 12.323 7.25603 12.4396 7.25603 12.5755C7.25603 12.8378 7.04755 13.0321 6.76584 13.0321C6.46468 13.0321 6.22212 12.8815 6.0768 12.6004L5.66895 12.9932C5.95986 13.4201 6.30919 13.6094 6.78958 13.6094C7.44568 13.6094 7.90591 13.1732 7.90591 12.5466C7.90591 12.0323 7.69314 11.7995 6.97493 11.5369Z" fill="#231F20"/>
<path d="M8.10498 11.9154C8.10498 12.8668 8.8521 13.6045 9.81347 13.6045C10.0853 13.6045 10.318 13.5511 10.6051 13.4159V12.6727C10.3526 12.9253 10.1291 13.0272 9.84291 13.0272C9.20704 13.0272 8.75574 12.5662 8.75574 11.9107C8.75574 11.2892 9.22132 10.799 9.81356 10.799C10.1147 10.799 10.3426 10.9064 10.6052 11.1632V10.4203C10.328 10.2797 10.1002 10.2214 9.82845 10.2214C8.87181 10.2216 8.10498 10.9743 8.10498 11.9154Z" fill="#231F20"/>
<path d="M15.611 12.4688L14.7478 10.2947H14.0581L15.4318 13.6145H15.7715L17.1698 10.2947H16.4854L15.611 12.4688Z" fill="#231F20"/>
<path d="M17.4553 13.5315H19.2459V12.9836H18.0862V12.1099H19.2031V11.5616H18.0862V10.8431H19.2459V10.2947H17.4553V13.5315Z" fill="#231F20"/>
<path d="M21.7457 11.2503C21.7457 10.6443 21.3283 10.2947 20.6002 10.2947H19.6641V13.5315H20.2947V12.2312H20.377L21.2509 13.5315H22.0273L21.0084 12.1679C21.4839 12.0711 21.7457 11.7459 21.7457 11.2503ZM20.4792 11.7849H20.2948V10.8045H20.4891C20.8824 10.8045 21.0961 10.9693 21.0961 11.2843C21.0961 11.6097 20.8824 11.7849 20.4792 11.7849Z" fill="#231F20"/>
<path d="M12.5332 13.6462C13.4842 13.6462 14.2551 12.8753 14.2551 11.9243C14.2551 10.9733 13.4842 10.2024 12.5332 10.2024C11.5822 10.2024 10.8113 10.9733 10.8113 11.9243C10.8113 12.8753 11.5822 13.6462 12.5332 13.6462Z" fill="url(#paint0_linear_2049_2491)"/>
<path opacity="0.65" d="M12.5332 13.6462C13.4842 13.6462 14.2551 12.8753 14.2551 11.9243C14.2551 10.9733 13.4842 10.2024 12.5332 10.2024C11.5822 10.2024 10.8113 10.9733 10.8113 11.9243C10.8113 12.8753 11.5822 13.6462 12.5332 13.6462Z" fill="url(#paint1_linear_2049_2491)"/>
<path fill-rule="evenodd" clip-rule="evenodd" d="M21.8071 10.4704C21.8071 10.3326 21.9168 10.2224 22.0549 10.2224C22.1895 10.2224 22.2998 10.3345 22.2998 10.4704C22.2998 10.6069 22.1895 10.7185 22.0549 10.7185C21.918 10.7185 21.8071 10.6081 21.8071 10.4704ZM21.8563 10.4707C21.8563 10.5837 21.9452 10.6741 22.0539 10.6741C22.1622 10.6741 22.2503 10.5827 22.2503 10.4707C22.2503 10.3596 22.1621 10.2671 22.0539 10.2671C21.944 10.2671 21.8563 10.3575 21.8563 10.4707ZM22.0413 10.3289C22.11 10.3289 22.1491 10.3599 22.1491 10.4166C22.1491 10.4561 22.127 10.4853 22.0868 10.4961L22.1803 10.6134H22.0975L22.0178 10.503V10.6134H21.95V10.3289H22.0413ZM22.0179 10.4555H22.0294C22.0635 10.4555 22.0812 10.4428 22.0812 10.4178C22.0812 10.3932 22.0637 10.3812 22.0301 10.3812H22.0179V10.4555Z" fill="#231F20"/>
<rect x="0.5" y="3.5" width="23" height="17" rx="1.5" stroke="#E4E4E5"/>
<defs>
<linearGradient id="paint0_linear_2049_2491" x1="13.4146" y1="13.3043" x2="12.2223" y2="11.4376" gradientUnits="userSpaceOnUse">
<stop stop-color="#F89F20"/>
<stop offset="0.2502" stop-color="#F79A20"/>
<stop offset="0.5331" stop-color="#F68D20"/>
<stop offset="0.6196" stop-color="#F58720"/>
<stop offset="0.7232" stop-color="#F48120"/>
<stop offset="1" stop-color="#F37521"/>
</linearGradient>
<linearGradient id="paint1_linear_2049_2491" x1="13.2262" y1="13.2789" x2="11.4837" y2="9.87311" gradientUnits="userSpaceOnUse">
<stop stop-color="#F58720" stop-opacity="0"/>
<stop offset="0.3587" stop-color="#E16F27" stop-opacity="0.2704"/>
<stop offset="0.703" stop-color="#D4602C" stop-opacity="0.5299"/>
<stop offset="0.9816" stop-color="#D05B2E" stop-opacity="0.74"/>
</linearGradient>
</defs>
</svg>
