<svg width="25" height="24" viewBox="0 0 25 24" fill="none" xmlns="http://www.w3.org/2000/svg">
<path d="M13.9 11.2H10.7C10.2757 11.2 9.86869 11.0314 9.56863 10.7314C9.26857 10.4313 9.1 10.0243 9.1 9.6C9.1 9.17565 9.26857 8.76869 9.56863 8.46863C9.86869 8.16857 10.2757 8 10.7 8H14.7C14.9122 8 15.1157 8.08429 15.2657 8.23431C15.4157 8.38434 15.5 8.58783 15.5 8.8C15.5 9.01217 15.5843 9.21566 15.7343 9.36569C15.8843 9.51571 16.0878 9.6 16.3 9.6C16.5122 9.6 16.7157 9.51571 16.8657 9.36569C17.0157 9.21566 17.1 9.01217 17.1 8.8C17.1 8.16348 16.8471 7.55303 16.3971 7.10294C15.947 6.65286 15.3365 6.4 14.7 6.4H13.1V4.8C13.1 4.58783 13.0157 4.38434 12.8657 4.23431C12.7157 4.08429 12.5122 4 12.3 4C12.0878 4 11.8843 4.08429 11.7343 4.23431C11.5843 4.38434 11.5 4.58783 11.5 4.8V6.4H10.7C9.85131 6.4 9.03737 6.73714 8.43726 7.33726C7.83714 7.93737 7.5 8.75131 7.5 9.6C7.5 10.4487 7.83714 11.2626 8.43726 11.8627C9.03737 12.4629 9.85131 12.8 10.7 12.8H13.9C14.3243 12.8 14.7313 12.9686 15.0314 13.2686C15.3314 13.5687 15.5 13.9757 15.5 14.4C15.5 14.8243 15.3314 15.2313 15.0314 15.5314C14.7313 15.8314 14.3243 16 13.9 16H9.9C9.68783 16 9.48434 15.9157 9.33431 15.7657C9.18429 15.6157 9.1 15.4122 9.1 15.2C9.1 14.9878 9.01571 14.7843 8.86569 14.6343C8.71566 14.4843 8.51217 14.4 8.3 14.4C8.08783 14.4 7.88434 14.4843 7.73431 14.6343C7.58429 14.7843 7.5 14.9878 7.5 15.2C7.5 15.8365 7.75286 16.447 8.20294 16.8971C8.65303 17.3471 9.26348 17.6 9.9 17.6H11.5V19.2C11.5 19.4122 11.5843 19.6157 11.7343 19.7657C11.8843 19.9157 12.0878 20 12.3 20C12.5122 20 12.7157 19.9157 12.8657 19.7657C13.0157 19.6157 13.1 19.4122 13.1 19.2V17.6H13.9C14.7487 17.6 15.5626 17.2629 16.1627 16.6627C16.7629 16.0626 17.1 15.2487 17.1 14.4C17.1 13.5513 16.7629 12.7374 16.1627 12.1373C15.5626 11.5371 14.7487 11.2 13.9 11.2Z" fill="currentColor"/>
</svg>
