<svg width="24" height="24" viewBox="0 0 24 24" fill="none" xmlns="http://www.w3.org/2000/svg">
<path d="M8.77778 10.2222C8.42617 10.2222 8.08245 10.3265 7.7901 10.5218C7.49774 10.7172 7.26988 10.9948 7.13533 11.3197C7.00077 11.6445 6.96556 12.002 7.03416 12.3468C7.10276 12.6917 7.27207 13.0085 7.5207 13.2571C7.76933 13.5057 8.0861 13.675 8.43095 13.7436C8.77581 13.8122 9.13326 13.777 9.4581 13.6425C9.78295 13.5079 10.0606 13.28 10.2559 12.9877C10.4513 12.6953 10.5556 12.3516 10.5556 12C10.5556 11.5285 10.3683 11.0763 10.0349 10.7429C9.70146 10.4095 9.24927 10.2222 8.77778 10.2222ZM8.77778 16.4444C8.42617 16.4444 8.08245 16.5487 7.7901 16.7441C7.49774 16.9394 7.26988 17.217 7.13533 17.5419C7.00077 17.8667 6.96556 18.2242 7.03416 18.569C7.10276 18.9139 7.27207 19.2307 7.5207 19.4793C7.76933 19.7279 8.0861 19.8972 8.43095 19.9658C8.77581 20.0344 9.13326 19.9992 9.4581 19.8647C9.78295 19.7301 10.0606 19.5023 10.2559 19.2099C10.4513 18.9175 10.5556 18.5738 10.5556 18.2222C10.5556 17.7507 10.3683 17.2985 10.0349 16.9651C9.70146 16.6317 9.24927 16.4444 8.77778 16.4444ZM15 7.55556C15.3516 7.55556 15.6953 7.45129 15.9877 7.25595C16.28 7.0606 16.5079 6.78295 16.6425 6.4581C16.777 6.13326 16.8122 5.77581 16.7436 5.43095C16.675 5.0861 16.5057 4.76933 16.2571 4.5207C16.0085 4.27207 15.6917 4.10276 15.3468 4.03416C15.002 3.96556 14.6445 4.00077 14.3197 4.13533C13.9948 4.26988 13.7172 4.49774 13.5218 4.7901C13.3265 5.08245 13.2222 5.42617 13.2222 5.77778C13.2222 6.24927 13.4095 6.70146 13.7429 7.03486C14.0763 7.36825 14.5285 7.55556 15 7.55556ZM8.77778 4C8.42617 4 8.08245 4.10427 7.7901 4.29961C7.49774 4.49495 7.26988 4.77261 7.13533 5.09745C7.00077 5.4223 6.96556 5.77975 7.03416 6.12461C7.10276 6.46946 7.27207 6.78623 7.5207 7.03486C7.76933 7.28348 8.0861 7.4528 8.43095 7.5214C8.77581 7.58999 9.13326 7.55479 9.4581 7.42023C9.78295 7.28568 10.0606 7.05781 10.2559 6.76546C10.4513 6.4731 10.5556 6.12939 10.5556 5.77778C10.5556 5.30628 10.3683 4.8541 10.0349 4.5207C9.70146 4.1873 9.24927 4 8.77778 4ZM15 16.4444C14.6484 16.4444 14.3047 16.5487 14.0123 16.7441C13.72 16.9394 13.4921 17.217 13.3575 17.5419C13.223 17.8667 13.1878 18.2242 13.2564 18.569C13.325 18.9139 13.4943 19.2307 13.7429 19.4793C13.9915 19.7279 14.3083 19.8972 14.6532 19.9658C14.998 20.0344 15.3555 19.9992 15.6803 19.8647C16.0052 19.7301 16.2828 19.5023 16.4782 19.2099C16.6735 18.9175 16.7778 18.5738 16.7778 18.2222C16.7778 17.7507 16.5905 17.2985 16.2571 16.9651C15.9237 16.6317 15.4715 16.4444 15 16.4444ZM15 10.2222C14.6484 10.2222 14.3047 10.3265 14.0123 10.5218C13.72 10.7172 13.4921 10.9948 13.3575 11.3197C13.223 11.6445 13.1878 12.002 13.2564 12.3468C13.325 12.6917 13.4943 13.0085 13.7429 13.2571C13.9915 13.5057 14.3083 13.675 14.6532 13.7436C14.998 13.8122 15.3555 13.777 15.6803 13.6425C16.0052 13.5079 16.2828 13.28 16.4782 12.9877C16.6735 12.6953 16.7778 12.3516 16.7778 12C16.7778 11.5285 16.5905 11.0763 16.2571 10.7429C15.9237 10.4095 15.4715 10.2222 15 10.2222Z" fill="#78797D"/>
</svg>
