<svg width="24" height="24" viewBox="0 0 24 24" fill="none" xmlns="http://www.w3.org/2000/svg">
<path fill-rule="evenodd" clip-rule="evenodd" d="M6.4 16.8009H9.792C10.0046 16.8022 10.209 16.7187 10.36 16.569L15.896 11.0266L18.168 8.80325C18.3194 8.65308 18.4046 8.44866 18.4046 8.23541C18.4046 8.02216 18.3194 7.81775 18.168 7.66758L14.776 4.23657C14.6258 4.08516 14.4213 4 14.208 4C13.9947 4 13.7902 4.08516 13.64 4.23657L11.384 6.49991L5.832 12.0423C5.68225 12.1932 5.59877 12.3976 5.6 12.6101V16.0012C5.6 16.4429 5.95817 16.8009 6.4 16.8009ZM14.208 5.93208L16.472 8.19542L15.336 9.33109L13.072 7.06775L14.208 5.93208ZM7.2 12.938L11.944 8.19542L14.208 10.4588L9.464 15.2014H7.2V12.938ZM19.2 18.4005H4.8C4.35817 18.4005 4 18.7585 4 19.2002C4 19.6419 4.35817 20 4.8 20H19.2C19.6418 20 20 19.6419 20 19.2002C20 18.7585 19.6418 18.4005 19.2 18.4005Z" fill="currentColor"/>
</svg>
