<svg width="28" height="22" viewBox="0 0 28 22" fill="none" xmlns="http://www.w3.org/2000/svg">
<path d="M23.3337 0.332275H4.66699C3.60613 0.332275 2.58871 0.753703 1.83857 1.50385C1.08842 2.25399 0.666992 3.27141 0.666992 4.33227V17.6656C0.666992 18.7265 1.08842 19.7439 1.83857 20.494C2.58871 21.2442 3.60613 21.6656 4.66699 21.6656H23.3337C24.3945 21.6656 25.4119 21.2442 26.1621 20.494C26.9122 19.7439 27.3337 18.7265 27.3337 17.6656V4.33227C27.3337 3.27141 26.9122 2.25399 26.1621 1.50385C25.4119 0.753703 24.3945 0.332275 23.3337 0.332275V0.332275ZM4.66699 18.9989C4.31337 18.9989 3.97423 18.8585 3.72418 18.6084C3.47413 18.3584 3.33366 18.0192 3.33366 17.6656V14.4389L7.73366 10.0523C7.9829 9.80797 8.31799 9.67113 8.66699 9.67113C9.016 9.67113 9.35109 9.80797 9.60032 10.0523L18.547 18.9989H4.66699ZM24.667 17.6656C24.667 18.0192 24.5265 18.3584 24.2765 18.6084C24.0264 18.8585 23.6873 18.9989 23.3337 18.9989H22.307L17.227 13.8923L18.4003 12.7189C18.6496 12.4746 18.9847 12.3378 19.3337 12.3378C19.6827 12.3378 20.0178 12.4746 20.267 12.7189L24.667 17.1056V17.6656ZM24.667 13.3456L22.1603 10.8523C21.4004 10.1222 20.3875 9.71444 19.3337 9.71444C18.2798 9.71444 17.2669 10.1222 16.507 10.8523L15.3337 12.0256L11.4937 8.18561C10.7337 7.45552 9.7208 7.04778 8.66699 7.04778C7.61318 7.04778 6.60025 7.45552 5.84033 8.18561L3.33366 10.6789V4.33227C3.33366 3.97865 3.47413 3.63951 3.72418 3.38947C3.97423 3.13942 4.31337 2.99894 4.66699 2.99894H23.3337C23.6873 2.99894 24.0264 3.13942 24.2765 3.38947C24.5265 3.63951 24.667 3.97865 24.667 4.33227V13.3456Z" fill="#434449"/>
</svg>
