<svg width="24" height="24" viewBox="0 0 24 24" fill="none" xmlns="http://www.w3.org/2000/svg">
<path fill-rule="evenodd" clip-rule="evenodd" d="M17.6 5.59998H6.4C5.07452 5.59998 4 6.67449 4 7.99998V16C4 17.3255 5.07452 18.4 6.4 18.4H17.6C18.9255 18.4 20 17.3255 20 16V7.99998C20 6.67449 18.9255 5.59998 17.6 5.59998ZM6.4 7.19998H17.6C18.0418 7.19998 18.4 7.55815 18.4 7.99998L12 11.904L5.6 7.99998C5.6 7.55815 5.95817 7.19998 6.4 7.19998ZM18.4 16C18.4 16.4418 18.0418 16.8 17.6 16.8H6.4C5.95817 16.8 5.6 16.4418 5.6 16V9.82398L11.584 13.48C11.8315 13.6229 12.1365 13.6229 12.384 13.48L18.4 9.82398V16Z" fill="currentColor"/>
</svg>
