<svg width="24" height="24" viewBox="0 0 24 24" fill="none" xmlns="http://www.w3.org/2000/svg">
<path fill-rule="evenodd" clip-rule="evenodd" d="M12 8C11.5582 8 11.2 8.35817 11.2 8.8V12C11.2 12.4418 11.5582 12.8 12 12.8C12.4418 12.8 12.8 12.4418 12.8 12V8.8C12.8 8.35817 12.4418 8 12 8ZM12.736 14.896C12.7185 14.845 12.6943 14.7966 12.664 14.752L12.568 14.632C12.338 14.405 11.9939 14.3387 11.696 14.464C11.5991 14.5045 11.5098 14.5613 11.432 14.632C11.2823 14.783 11.1988 14.9874 11.2 15.2C11.2013 15.3045 11.223 15.4078 11.264 15.504C11.3367 15.705 11.495 15.8633 11.696 15.936C11.8896 16.0216 12.1104 16.0216 12.304 15.936C12.505 15.8633 12.6633 15.705 12.736 15.504C12.777 15.4078 12.7987 15.3045 12.8 15.2C12.8039 15.1467 12.8039 15.0933 12.8 15.04C12.7862 14.989 12.7646 14.9404 12.736 14.896ZM12 4C7.58172 4 4 7.58172 4 12C4 16.4183 7.58172 20 12 20C16.4183 20 20 16.4183 20 12C20 9.87827 19.1571 7.84344 17.6569 6.34315C16.1566 4.84285 14.1217 4 12 4ZM12 18.4C8.46538 18.4 5.6 15.5346 5.6 12C5.6 8.46538 8.46538 5.6 12 5.6C15.5346 5.6 18.4 8.46538 18.4 12C18.4 13.6974 17.7257 15.3253 16.5255 16.5255C15.3253 17.7257 13.6974 18.4 12 18.4Z" fill="currentColor"/>
</svg>
