<svg width="16" height="16" viewBox="0 0 16 16" fill="none" xmlns="http://www.w3.org/2000/svg">
<path fill-rule="evenodd" clip-rule="evenodd" d="M8 7.2C7.55817 7.2 7.2 7.55817 7.2 8V11.2C7.2 11.6418 7.55817 12 8 12C8.44183 12 8.8 11.6418 8.8 11.2V8C8.8 7.55817 8.44183 7.2 8 7.2ZM8.304 4.064C8.10923 3.98399 7.89077 3.98399 7.696 4.064C7.5978 4.10208 7.50808 4.15917 7.432 4.232C7.36134 4.30976 7.30451 4.39905 7.264 4.496C7.21921 4.59094 7.1973 4.69506 7.2 4.8C7.19877 5.01264 7.28225 5.21702 7.432 5.368C7.50976 5.43866 7.59905 5.49549 7.696 5.536C7.94211 5.63711 8.22239 5.60924 8.44377 5.46166C8.66515 5.31407 8.79867 5.06607 8.8 4.8C8.79705 4.58819 8.71419 4.38531 8.568 4.232C8.49192 4.15917 8.4022 4.10208 8.304 4.064ZM8 0C3.58172 0 0 3.58172 0 8C0 12.4183 3.58172 16 8 16C12.4183 16 16 12.4183 16 8C16 5.87827 15.1571 3.84344 13.6569 2.34315C12.1566 0.842855 10.1217 0 8 0ZM8 14.4C4.46538 14.4 1.6 11.5346 1.6 8C1.6 4.46538 4.46538 1.6 8 1.6C11.5346 1.6 14.4 4.46538 14.4 8C14.4 9.69739 13.7257 11.3253 12.5255 12.5255C11.3253 13.7257 9.69739 14.4 8 14.4Z" fill="currentColor"/>
</svg>
