<svg width="24" height="24" viewBox="0 0 24 24" fill="none" xmlns="http://www.w3.org/2000/svg">
<path fill-rule="evenodd" clip-rule="evenodd" d="M11.9796 15.4173C11.5304 15.4173 11.1662 15.7965 11.1662 16.2644C11.1662 16.7322 11.5304 17.1114 11.9796 17.1114C12.4289 17.1114 12.7931 16.7322 12.7931 16.2644C12.7931 15.7965 12.4289 15.4173 11.9796 15.4173ZM20.6587 16.6625L14.1108 4.80334C13.6798 3.9987 12.8644 3.5 11.9796 3.5C11.0949 3.5 10.2795 3.9987 9.84851 4.80334L3.34124 16.6625C2.89553 17.4453 2.88582 18.4165 3.31577 19.2088C3.74572 20.0012 4.54969 20.4935 5.42357 20.4998H18.5357C19.4169 20.5088 20.2343 20.0224 20.6742 19.2273C21.1141 18.4322 21.1082 17.4518 20.6587 16.6625ZM19.2515 18.3566C19.1063 18.6257 18.8321 18.7912 18.5357 18.7887H5.42357C5.12721 18.7912 4.85298 18.6257 4.70777 18.3566C4.56247 18.0946 4.56247 17.7716 4.70777 17.5096L11.215 5.65043C11.3542 5.36753 11.6337 5.18958 11.939 5.18958C12.2442 5.18958 12.5237 5.36753 12.6629 5.65043L19.2109 17.5096C19.3752 17.7681 19.3909 18.0995 19.2515 18.3736V18.3566ZM11.9796 8.64062C11.5304 8.64062 11.1662 9.01987 11.1662 9.4877V12.876C11.1662 13.3439 11.5304 13.7231 11.9796 13.7231C12.4289 13.7231 12.7931 13.3439 12.7931 12.876V9.4877C12.7931 9.01987 12.4289 8.64062 11.9796 8.64062Z" fill="currentColor"/>
</svg>
