<svg width="24" height="24" viewBox="0 0 24 24" fill="none" xmlns="http://www.w3.org/2000/svg">
<path d="M11.1517 7.26572C11.4322 7.22273 11.7156 7.20134 11.9993 7.20175C14.5421 7.20175 16.9329 9.03285 18.3242 11.9994C18.1114 12.4508 17.8711 12.8888 17.6045 13.3107C17.5199 13.4417 17.4755 13.5946 17.4766 13.7505C17.4784 13.925 17.5372 14.0941 17.6441 14.2321C17.751 14.37 17.9001 14.4692 18.0686 14.5145C18.2371 14.5598 18.4158 14.5488 18.5775 14.483C18.7391 14.4172 18.8748 14.3004 18.9639 14.1503C19.3364 13.5649 19.66 12.9498 19.9314 12.3112C19.9743 12.2115 19.9964 12.104 19.9964 11.9954C19.9964 11.8868 19.9743 11.7793 19.9314 11.6795C18.3162 7.92939 15.2777 5.60254 11.9993 5.60254C11.624 5.60065 11.2494 5.63277 10.8799 5.69849C10.7749 5.71635 10.6744 5.7547 10.5842 5.81138C10.494 5.86806 10.4159 5.94194 10.3543 6.02881C10.2927 6.11568 10.2487 6.21385 10.225 6.31769C10.2014 6.42153 10.1983 6.52903 10.2162 6.63403C10.234 6.73904 10.2724 6.8395 10.3291 6.92968C10.3858 7.01986 10.4596 7.098 10.5465 7.15962C10.6334 7.22125 10.7316 7.26517 10.8354 7.28886C10.9392 7.31255 11.0467 7.31555 11.1517 7.2977V7.26572ZM5.3706 4.23522C5.29604 4.16066 5.20753 4.10152 5.11012 4.06118C5.01271 4.02083 4.90831 4.00006 4.80288 4.00006C4.69744 4.00006 4.59304 4.02083 4.49563 4.06118C4.39822 4.10152 4.30971 4.16066 4.23516 4.23522C4.08459 4.38579 4 4.59 4 4.80294C4 5.01587 4.08459 5.22009 4.23516 5.37066L6.71393 7.84143C5.58295 8.93012 4.68282 10.2354 4.06724 11.6795C4.02321 11.7804 4.00049 11.8893 4.00049 11.9994C4.00049 12.1095 4.02321 12.2183 4.06724 12.3192C5.68244 16.0694 8.72094 18.3962 11.9993 18.3962C13.4363 18.3863 14.8393 17.9584 16.0373 17.1648L18.628 19.7635C18.7024 19.8385 18.7908 19.898 18.8882 19.9386C18.9857 19.9792 19.0902 20.0001 19.1958 20.0001C19.3013 20.0001 19.4058 19.9792 19.5033 19.9386C19.6007 19.898 19.6891 19.8385 19.7635 19.7635C19.8384 19.6892 19.8979 19.6008 19.9385 19.5033C19.9791 19.4059 20 19.3014 20 19.1958C20 19.0903 19.9791 18.9857 19.9385 18.8883C19.8979 18.7909 19.8384 18.7024 19.7635 18.6281L5.3706 4.23522ZM10.4561 11.5836L12.4151 13.5426C12.28 13.5814 12.1399 13.6002 11.9993 13.5986C11.5752 13.5986 11.1684 13.4301 10.8685 13.1302C10.5686 12.8303 10.4001 12.4235 10.4001 11.9994C10.3985 11.8588 10.4173 11.7187 10.4561 11.5836ZM11.9993 16.797C9.45657 16.797 7.06576 14.9659 5.68244 11.9994C6.19906 10.8589 6.93228 9.82971 7.84137 8.96888L9.25667 10.4002C8.92424 11.0069 8.79749 11.7051 8.89546 12.39C8.99343 13.0748 9.31082 13.7095 9.80003 14.1987C10.2892 14.6879 10.9239 15.0053 11.6087 15.1032C12.2936 15.2012 12.9918 15.0745 13.5985 14.742L14.8699 15.9974C13.9992 16.5099 13.0096 16.7855 11.9993 16.797Z" fill="#818285"/>
</svg>
