<svg width="24" height="24" viewBox="0 0 24 24" fill="none" xmlns="http://www.w3.org/2000/svg">
<path fill-rule="evenodd" clip-rule="evenodd" d="M19.9332 12.175C18.3178 8.36438 15.2789 6 12 6C8.72114 6 5.6822 8.36438 4.06676 12.175C3.97775 12.3822 3.97775 12.6178 4.06676 12.825C5.6822 16.6356 8.72114 19 12 19C15.2789 19 18.3178 16.6356 19.9332 12.825C20.0223 12.6178 20.0223 12.3822 19.9332 12.175ZM12 17.375C9.46488 17.375 7.06572 15.5144 5.6822 12.5C7.06572 9.48563 9.46488 7.625 12 7.625C14.5351 7.625 16.9343 9.48563 18.3178 12.5C16.9343 15.5144 14.5351 17.375 12 17.375ZM12 9.25C10.2333 9.25 8.80111 10.7051 8.80111 12.5C8.80111 14.2949 10.2333 15.75 12 15.75C13.7667 15.75 15.1989 14.2949 15.1989 12.5C15.1989 11.638 14.8619 10.8114 14.262 10.2019C13.662 9.59241 12.8484 9.25 12 9.25ZM12 14.125C11.1167 14.125 10.4006 13.3975 10.4006 12.5C10.4006 11.6025 11.1167 10.875 12 10.875C12.8833 10.875 13.5994 11.6025 13.5994 12.5C13.5994 13.3975 12.8833 14.125 12 14.125Z" fill="currentColor"/>
</svg>
