<svg width="24" height="24" viewBox="0 0 24 24" fill="none" xmlns="http://www.w3.org/2000/svg">
<path d="M11.4974 19.9948H5.49913C5.23399 19.9948 4.97971 19.8895 4.79223 19.702C4.60475 19.5145 4.49942 19.2602 4.49942 18.9951V4.99913C4.49942 4.73399 4.60475 4.47971 4.79223 4.29223C4.97971 4.10475 5.23399 3.99942 5.49913 3.99942H10.4977V6.99855C10.4977 7.79397 10.8137 8.55681 11.3761 9.11926C11.9386 9.6817 12.7014 9.99768 13.4968 9.99768H16.4959V14.9962C16.4959 15.2614 16.6013 15.5157 16.7887 15.7031C16.9762 15.8906 17.2305 15.9959 17.4957 15.9959C17.7608 15.9959 18.0151 15.8906 18.2026 15.7031C18.39 15.5157 18.4954 15.2614 18.4954 14.9962V8.99797C18.4954 8.99797 18.4954 8.99797 18.4954 8.93799C18.4849 8.84615 18.4648 8.75567 18.4354 8.66807V8.57809C18.3873 8.4753 18.3232 8.38082 18.2454 8.29817L12.2472 2.29991C12.1645 2.22215 12.07 2.15804 11.9673 2.10997C11.9342 2.10418 11.9004 2.10418 11.8673 2.10997C11.7701 2.05799 11.6656 2.02092 11.5574 2H5.49913C4.70371 2 3.94087 2.31598 3.37843 2.87843C2.81598 3.44087 2.5 4.20371 2.5 4.99913V18.9951C2.5 19.7905 2.81598 20.5533 3.37843 21.1158C3.94087 21.6782 4.70371 21.9942 5.49913 21.9942H11.4974C11.7625 21.9942 12.0168 21.8889 12.2043 21.7014C12.3918 21.5139 12.4971 21.2596 12.4971 20.9945C12.4971 20.7294 12.3918 20.4751 12.2043 20.2876C12.0168 20.1001 11.7625 19.9948 11.4974 19.9948ZM12.4971 5.40901L15.0864 7.99826H13.4968C13.2317 7.99826 12.9774 7.89293 12.7899 7.70545C12.6024 7.51797 12.4971 7.26369 12.4971 6.99855V5.40901ZM7.49855 13.9965H13.4968C13.762 13.9965 14.0162 13.8912 14.2037 13.7037C14.3912 13.5162 14.4965 13.262 14.4965 12.9968C14.4965 12.7317 14.3912 12.4774 14.2037 12.2899C14.0162 12.1024 13.762 11.9971 13.4968 11.9971H7.49855C7.23341 11.9971 6.97913 12.1024 6.79165 12.2899C6.60417 12.4774 6.49884 12.7317 6.49884 12.9968C6.49884 13.262 6.60417 13.5162 6.79165 13.7037C6.97913 13.8912 7.23341 13.9965 7.49855 13.9965ZM11.4974 15.9959H7.49855C7.23341 15.9959 6.97913 16.1013 6.79165 16.2887C6.60417 16.4762 6.49884 16.7305 6.49884 16.9957C6.49884 17.2608 6.60417 17.5151 6.79165 17.7026C6.97913 17.89 7.23341 17.9954 7.49855 17.9954H11.4974C11.7625 17.9954 12.0168 17.89 12.2043 17.7026C12.3918 17.5151 12.4971 17.2608 12.4971 16.9957C12.4971 16.7305 12.3918 16.4762 12.2043 16.2887C12.0168 16.1013 11.7625 15.9959 11.4974 15.9959ZM7.49855 9.99768H8.49826C8.7634 9.99768 9.01768 9.89235 9.20516 9.70487C9.39264 9.51739 9.49797 9.26311 9.49797 8.99797C9.49797 8.73283 9.39264 8.47855 9.20516 8.29107C9.01768 8.10359 8.7634 7.99826 8.49826 7.99826H7.49855C7.23341 7.99826 6.97913 8.10359 6.79165 8.29107C6.60417 8.47855 6.49884 8.73283 6.49884 8.99797C6.49884 9.26311 6.60417 9.51739 6.79165 9.70487C6.97913 9.89235 7.23341 9.99768 7.49855 9.99768ZM21.2046 16.2859C21.1116 16.1922 21.0011 16.1178 20.8792 16.067C20.7574 16.0163 20.6268 15.9901 20.4948 15.9901C20.3628 15.9901 20.2321 16.0163 20.1103 16.067C19.9885 16.1178 19.8779 16.1922 19.785 16.2859L16.4959 19.5849L15.2063 18.2853C15.1131 18.1921 15.0024 18.1181 14.8807 18.0677C14.7589 18.0172 14.6283 17.9913 14.4965 17.9913C14.3647 17.9913 14.2342 18.0172 14.1124 18.0677C13.9906 18.1181 13.8799 18.1921 13.7867 18.2853C13.6935 18.3785 13.6196 18.4891 13.5691 18.6109C13.5187 18.7327 13.4927 18.8633 13.4927 18.9951C13.4927 19.1269 13.5187 19.2574 13.5691 19.3792C13.6196 19.501 13.6935 19.6117 13.7867 19.7049L15.7861 21.7043C15.8791 21.798 15.9897 21.8724 16.1115 21.9231C16.2333 21.9739 16.364 22 16.4959 22C16.6279 22 16.7586 21.9739 16.8804 21.9231C17.0022 21.8724 17.1128 21.798 17.2057 21.7043L21.2046 17.7054C21.2983 17.6125 21.3727 17.5019 21.4234 17.3801C21.4742 17.2583 21.5003 17.1276 21.5003 16.9957C21.5003 16.8637 21.4742 16.733 21.4234 16.6112C21.3727 16.4894 21.2983 16.3788 21.2046 16.2859Z" fill="currentColor"/>
</svg>
