<svg width="24" height="24" viewBox="0 0 24 24" fill="none" xmlns="http://www.w3.org/2000/svg">
<path d="M10 10.4H10.8C11.0122 10.4 11.2157 10.3157 11.3657 10.1657C11.5157 10.0157 11.6 9.81217 11.6 9.6C11.6 9.38783 11.5157 9.18434 11.3657 9.03431C11.2157 8.88429 11.0122 8.8 10.8 8.8H10C9.78783 8.8 9.58434 8.88429 9.43431 9.03431C9.28429 9.18434 9.2 9.38783 9.2 9.6C9.2 9.81217 9.28429 10.0157 9.43431 10.1657C9.58434 10.3157 9.78783 10.4 10 10.4ZM10 12C9.78783 12 9.58434 12.0843 9.43431 12.2343C9.28429 12.3843 9.2 12.5878 9.2 12.8C9.2 13.0122 9.28429 13.2157 9.43431 13.3657C9.58434 13.5157 9.78783 13.6 10 13.6H14.8C15.0122 13.6 15.2157 13.5157 15.3657 13.3657C15.5157 13.2157 15.6 13.0122 15.6 12.8C15.6 12.5878 15.5157 12.3843 15.3657 12.2343C15.2157 12.0843 15.0122 12 14.8 12H10ZM18.8 9.552C18.7917 9.47851 18.7756 9.4061 18.752 9.336V9.264C18.7135 9.18174 18.6622 9.10613 18.6 9.04L13.8 4.24C13.7339 4.17777 13.6583 4.12646 13.576 4.088C13.5521 4.08461 13.5279 4.08461 13.504 4.088C13.4227 4.04139 13.333 4.01148 13.24 4H8.4C7.76348 4 7.15303 4.25286 6.70294 4.70294C6.25286 5.15303 6 5.76348 6 6.4V17.6C6 18.2365 6.25286 18.847 6.70294 19.2971C7.15303 19.7471 7.76348 20 8.4 20H16.4C17.0365 20 17.647 19.7471 18.0971 19.2971C18.5471 18.847 18.8 18.2365 18.8 17.6V9.6C18.8 9.6 18.8 9.6 18.8 9.552ZM14 6.728L16.072 8.8H14.8C14.5878 8.8 14.3843 8.71571 14.2343 8.56569C14.0843 8.41566 14 8.21217 14 8V6.728ZM17.2 17.6C17.2 17.8122 17.1157 18.0157 16.9657 18.1657C16.8157 18.3157 16.6122 18.4 16.4 18.4H8.4C8.18783 18.4 7.98434 18.3157 7.83431 18.1657C7.68429 18.0157 7.6 17.8122 7.6 17.6V6.4C7.6 6.18783 7.68429 5.98434 7.83431 5.83431C7.98434 5.68429 8.18783 5.6 8.4 5.6H12.4V8C12.4 8.63652 12.6529 9.24697 13.1029 9.69706C13.553 10.1471 14.1635 10.4 14.8 10.4H17.2V17.6ZM14.8 15.2H10C9.78783 15.2 9.58434 15.2843 9.43431 15.4343C9.28429 15.5843 9.2 15.7878 9.2 16C9.2 16.2122 9.28429 16.4157 9.43431 16.5657C9.58434 16.7157 9.78783 16.8 10 16.8H14.8C15.0122 16.8 15.2157 16.7157 15.3657 16.5657C15.5157 16.4157 15.6 16.2122 15.6 16C15.6 15.7878 15.5157 15.5843 15.3657 15.4343C15.2157 15.2843 15.0122 15.2 14.8 15.2Z" fill="currentColor"/>
</svg>
