<svg width="24" height="24" viewBox="0 0 24 24" fill="none" xmlns="http://www.w3.org/2000/svg">
<path d="M17.6 4H6.4C5.76348 4 5.15303 4.25286 4.70294 4.70294C4.25286 5.15303 4 5.76348 4 6.4V7.336C3.99989 7.66635 4.06797 7.99317 4.2 8.296V8.344C4.31302 8.60078 4.47311 8.83413 4.672 9.032L9.6 13.928V19.2C9.59973 19.336 9.63411 19.4697 9.69989 19.5887C9.76568 19.7077 9.86071 19.8079 9.976 19.88C10.1033 19.9589 10.2502 20.0005 10.4 20C10.5252 19.9992 10.6485 19.9691 10.76 19.912L13.96 18.312C14.0919 18.2455 14.2029 18.1438 14.2805 18.0181C14.3582 17.8925 14.3995 17.7477 14.4 17.6V13.928L19.296 9.032C19.4949 8.83413 19.655 8.60078 19.768 8.344V8.296C19.911 7.99554 19.9901 7.66862 20 7.336V6.4C20 5.76348 19.7471 5.15303 19.2971 4.70294C18.847 4.25286 18.2365 4 17.6 4ZM13.032 13.032C12.9579 13.1067 12.8992 13.1954 12.8594 13.2929C12.8196 13.3903 12.7994 13.4947 12.8 13.6V17.104L11.2 17.904V13.6C11.2006 13.4947 11.1804 13.3903 11.1406 13.2929C11.1008 13.1954 11.0421 13.1067 10.968 13.032L6.728 8.8H17.272L13.032 13.032ZM18.4 7.2H5.6V6.4C5.6 6.18783 5.68429 5.98434 5.83431 5.83431C5.98434 5.68429 6.18783 5.6 6.4 5.6H17.6C17.8122 5.6 18.0157 5.68429 18.1657 5.83431C18.3157 5.98434 18.4 6.18783 18.4 6.4V7.2Z" fill="currentColor"/>
</svg>
