<svg width="24" height="24" viewBox="0 0 24 24" fill="none" xmlns="http://www.w3.org/2000/svg">
<path fill-rule="evenodd" clip-rule="evenodd" d="M16.8333 8.00317H16.5514C16.7352 7.62948 16.8316 7.21936 16.8333 6.80348C16.8383 5.66355 16.1446 4.63515 15.081 4.20572C14.0175 3.77629 12.7977 4.03214 12 4.852C11.2023 4.03214 9.98254 3.77629 8.91896 4.20572C7.85537 4.63515 7.16168 5.66355 7.16667 6.80348C7.16839 7.21936 7.26477 7.62948 7.44861 8.00317H7.16667C5.83198 8.00317 4.75 9.0774 4.75 10.4025V12.0021C4.75 12.4438 5.11066 12.8019 5.55556 12.8019H6.36111V17.6006C6.36111 18.9258 7.44309 20 8.77778 20H15.2222C16.5569 20 17.6389 18.9258 17.6389 17.6006V12.8019H18.4444C18.8893 12.8019 19.25 12.4438 19.25 12.0021V10.4025C19.25 9.0774 18.168 8.00317 16.8333 8.00317ZM11.1944 18.4004H8.77778C8.33288 18.4004 7.97222 18.0423 7.97222 17.6006V12.8019H11.1944V18.4004ZM11.1944 11.2023H6.36111V10.4025C6.36111 9.96082 6.72177 9.60274 7.16667 9.60274H11.1944V11.2023ZM11.1944 8.00317H9.98611C9.31877 8.00317 8.77778 7.46605 8.77778 6.80348C8.77778 6.14092 9.31877 5.6038 9.98611 5.6038C10.6535 5.6038 11.1944 6.14092 11.1944 6.80348V8.00317ZM12.8056 6.80348C12.8056 6.14092 13.3465 5.6038 14.0139 5.6038C14.6812 5.6038 15.2222 6.14092 15.2222 6.80348C15.2222 7.46605 14.6812 8.00317 14.0139 8.00317H12.8056V6.80348ZM16.0278 17.6006C16.0278 18.0423 15.6671 18.4004 15.2222 18.4004H12.8056V12.8019H16.0278V17.6006ZM17.6389 11.2023H12.8056V9.60274H16.8333C17.2782 9.60274 17.6389 9.96082 17.6389 10.4025V11.2023Z" fill="currentColor"/>
</svg>
