<svg width="24" height="24" viewBox="0 0 24 24" xmlns="http://www.w3.org/2000/svg">
  <path fill-rule="evenodd" clip-rule="evenodd"
    d="M6.4 4H17.6C18.2365 4 18.847 4.25286 19.2971 4.70294C19.7471 5.15303 20 5.76348 20 6.4V17.6C20 18.2365 19.7471 18.847 19.2971 19.2971C18.847 19.7471 18.2365 20 17.6 20H6.4C5.76348 20 5.15303 19.7471 4.70294 19.2971C4.25286 18.847 4 18.2365 4 17.6V6.4C4 5.76348 4.25286 5.15303 4.70294 4.70294C5.15303 4.25286 5.76348 4 6.4 4ZM7.66677 15.1571C7.29852 15.1571 7 14.8586 7 14.4903V9.46682C7 9.09857 7.29852 8.80005 7.66677 8.80005C8.03501 8.80005 8.33354 9.09857 8.33354 9.46682V11.5547H10.4665V9.46682C10.4665 9.09857 10.765 8.80005 11.1333 8.80005C11.5015 8.80005 11.8 9.09857 11.8 9.46682V14.4903C11.8 14.8586 11.5015 15.1571 11.1333 15.1571C10.765 15.1571 10.4665 14.8586 10.4665 14.4903V12.7688H8.33354V14.4903C8.33354 14.8586 8.03501 15.1571 7.66677 15.1571ZM16.4334 13.7815H14.4334V13.7106C14.4334 13.356 14.7001 13.0722 15.0334 13.0722C15.9667 13.0722 16.7667 12.4339 17.0334 11.5119C17.3001 10.377 16.7001 9.17129 15.6334 8.88758C14.7667 8.60387 13.8334 9.02943 13.3667 9.88055C13.1667 10.2352 13.3001 10.6607 13.6334 10.8735C13.9667 11.0863 14.3667 10.9445 14.5667 10.5898C14.7667 10.2352 15.1667 10.1643 15.5001 10.377C15.5255 10.4041 15.551 10.4209 15.5727 10.4352C15.6079 10.4583 15.6334 10.4751 15.6334 10.5189C15.7667 10.7317 15.7667 10.9444 15.7667 11.1572C15.6334 11.4409 15.3667 11.6537 15.1001 11.6537C13.9667 11.6537 13.1001 12.5758 13.1001 13.7106V14.4908C13.1001 14.9163 13.3667 15.2 13.7667 15.2H16.4334C16.8334 15.2 17.1001 14.9163 17.1001 14.4908C17.1001 14.0652 16.8334 13.7815 16.4334 13.7815Z" />
</svg>
