<svg width="24" height="24" viewBox="0 0 24 24" xmlns="http://www.w3.org/2000/svg">
  <path fill-rule="evenodd" clip-rule="evenodd"
    d="M6.4 4H17.6C18.2365 4 18.847 4.25286 19.2971 4.70294C19.7471 5.15303 20 5.76348 20 6.4V17.6C20 18.2365 19.7471 18.847 19.2971 19.2971C18.847 19.7471 18.2365 20 17.6 20H6.4C5.76348 20 5.15303 19.7471 4.70294 19.2971C4.25286 18.847 4 18.2365 4 17.6V6.4C4 5.76348 4.25286 5.15303 4.70294 4.70294C5.15303 4.25286 5.76348 4 6.4 4ZM8.16677 15.1571C7.79852 15.1571 7.5 14.8586 7.5 14.4903V9.46682C7.5 9.09857 7.79852 8.80005 8.16677 8.80005C8.53501 8.80005 8.83354 9.09857 8.83354 9.46682V11.5547H11.1665V9.46682C11.1665 9.09857 11.465 8.80005 11.8332 8.80005C12.2015 8.80005 12.5 9.09857 12.5 9.46682V14.4903C12.5 14.8586 12.2015 15.1571 11.8332 15.1571C11.465 15.1571 11.1665 14.8586 11.1665 14.4903V12.7688H8.83354V14.4903C8.83354 14.8586 8.53501 15.1571 8.16677 15.1571ZM15.9 15.2C15.57 15.2 15.3 14.912 15.3 14.56V10.08H14.7C14.37 10.08 14.1 9.79205 14.1 9.44005C14.1 9.08805 14.37 8.80005 14.7 8.80005H15.9C16.23 8.80005 16.5 9.08805 16.5 9.44005V14.56C16.5 14.912 16.23 15.2 15.9 15.2Z" />
</svg>
