<svg width="24" height="24" viewBox="0 0 24 24" fill="none" xmlns="http://www.w3.org/2000/svg">
<path fill-rule="evenodd" clip-rule="evenodd" d="M14 15.0084C14 14.4567 13.5523 14.0096 13 14.0096H11C10.4478 14.0096 10 14.4567 10 15.0084V21C10 21.5523 9.55233 22 9.00005 22H6.00007C4.34323 22 3.00009 20.6585 3.00009 19.0036V10.274C2.99324 9.41304 3.35754 8.59072 4.00009 8.01673L10 2.76302C11.1388 1.74566 12.8612 1.74566 14 2.76302L20 8.01673C20.6399 8.58841 21.0039 9.40653 21 10.264V19.0036C21 20.6585 19.6568 22 18 22H15C14.4477 22 14 21.5523 14 21V15.0084ZM18.9999 19.0036V10.2641C18.9995 9.97721 18.8757 9.70433 18.6599 9.51499L12.6599 4.27126C12.2824 3.94001 11.7174 3.94001 11.3399 4.27126L5.33997 9.51499C5.12419 9.70433 5.00034 9.97721 4.99998 10.2641V19.0036C4.99998 19.5553 5.44769 20.0024 5.99997 20.0024H7.49996C7.7761 20.0024 7.99996 19.7786 7.99996 19.5024V15.0084C7.99996 13.3535 9.34309 12.012 10.9999 12.012H12.9999C14.6568 12.012 15.9999 13.3535 15.9999 15.0084V19.5024C15.9999 19.7786 16.2238 20.0024 16.4999 20.0024H17.9999C18.5522 20.0024 18.9999 19.5553 18.9999 19.0036Z" fill="currentColor"/>
</svg>
