<svg width="24" height="24" viewBox="0 0 24 24" fill="none" xmlns="http://www.w3.org/2000/svg">
<path fill-rule="evenodd" clip-rule="evenodd" d="M12 11.2C11.5582 11.2 11.2 11.5582 11.2 12V15.2C11.2 15.6418 11.5582 16 12 16C12.4418 16 12.8 15.6418 12.8 15.2V12C12.8 11.5582 12.4418 11.2 12 11.2ZM12.304 8.064C12.1092 7.98399 11.8908 7.98399 11.696 8.064C11.5978 8.10208 11.5081 8.15917 11.432 8.232C11.3613 8.30976 11.3045 8.39905 11.264 8.496C11.2192 8.59094 11.1973 8.69506 11.2 8.8C11.1988 9.01264 11.2823 9.21702 11.432 9.368C11.5098 9.43866 11.5991 9.49549 11.696 9.536C11.9421 9.63711 12.2224 9.60924 12.4438 9.46166C12.6652 9.31407 12.7987 9.06607 12.8 8.8C12.7971 8.58819 12.7142 8.38531 12.568 8.232C12.4919 8.15917 12.4022 8.10208 12.304 8.064ZM12 4C7.58172 4 4 7.58172 4 12C4 16.4183 7.58172 20 12 20C16.4183 20 20 16.4183 20 12C20 9.87827 19.1571 7.84344 17.6569 6.34315C16.1566 4.84285 14.1217 4 12 4ZM12 18.4C8.46538 18.4 5.6 15.5346 5.6 12C5.6 8.46538 8.46538 5.6 12 5.6C15.5346 5.6 18.4 8.46538 18.4 12C18.4 13.6974 17.7257 15.3253 16.5255 16.5255C15.3253 17.7257 13.6974 18.4 12 18.4Z" fill="#818285"/>
</svg>
