<svg width="20" height="20" viewBox="0 0 20 20" fill="none" xmlns="http://www.w3.org/2000/svg">
<path d="M18.9963 2.41323L19.706 1.7135C19.8943 1.52527 20 1.26997 20 1.00377C20 0.737571 19.8943 0.482273 19.706 0.294041C19.5178 0.105809 19.2625 6.10352e-05 18.9963 6.10352e-05C18.7301 6.10352e-05 18.4748 0.105809 18.2866 0.294041L16.8871 1.7035L14.0582 4.53243L7.75057 10.83C6.717 10.1481 5.4671 9.87416 4.24307 10.0612C3.01903 10.2483 1.90801 10.883 1.12527 11.8425C0.342538 12.802 -0.0561759 14.0178 0.00638867 15.2545C0.0689532 16.4912 0.588342 17.6606 1.46391 18.5361C2.33949 19.4117 3.5089 19.9311 4.74557 19.9937C5.98223 20.0562 7.19809 19.6575 8.15756 18.8748C9.11703 18.0921 9.75179 16.981 9.93884 15.757C10.1259 14.533 9.85193 13.2831 9.17003 12.2495L14.7579 6.65162L16.8771 8.78081C16.9703 8.87336 17.0808 8.94664 17.2023 8.99648C17.3239 9.04631 17.454 9.07172 17.5854 9.07126C17.7167 9.07079 17.8467 9.04446 17.9678 8.99377C18.089 8.94308 18.199 8.86902 18.2916 8.77581C18.3841 8.68261 18.4574 8.57209 18.5072 8.45057C18.5571 8.32904 18.5825 8.19889 18.582 8.06755C18.5815 7.9362 18.5552 7.80624 18.5045 7.68507C18.4538 7.5639 18.3798 7.4539 18.2866 7.36135L16.1674 5.24216L17.5868 3.8327L18.2866 4.53243C18.3791 4.62563 18.4891 4.69969 18.6103 4.75039C18.7314 4.80108 18.8614 4.82741 18.9928 4.82787C19.1241 4.82834 19.2543 4.80293 19.3758 4.75309C19.4973 4.70326 19.6078 4.62997 19.701 4.53743C19.7942 4.44488 19.8683 4.33488 19.919 4.21371C19.9697 4.09254 19.996 3.96258 19.9965 3.83123C19.9969 3.69989 19.9715 3.56974 19.9217 3.44821C19.8719 3.32669 19.7986 3.21617 19.706 3.12297L18.9963 2.41323ZM5.00161 17.9973C4.40849 17.9973 3.82869 17.8214 3.33553 17.4919C2.84238 17.1624 2.458 16.694 2.23103 16.1461C2.00405 15.5981 1.94466 14.9951 2.06037 14.4134C2.17609 13.8317 2.4617 13.2973 2.8811 12.8779C3.3005 12.4585 3.83484 12.1729 4.41656 12.0572C4.99829 11.9415 5.60126 12.0009 6.14923 12.2279C6.6972 12.4548 7.16555 12.8392 7.49507 13.3324C7.82459 13.8255 8.00047 14.4053 8.00047 14.9984C8.00047 15.7938 7.68452 16.5566 7.12213 17.119C6.55973 17.6814 5.79696 17.9973 5.00161 17.9973Z" fill="currentColor"/>
</svg>
