<svg width="20" height="20" viewBox="0 0 20 20" fill="none" xmlns="http://www.w3.org/2000/svg">
<path d="M8.00008 15.55L6.23008 17.27C5.76595 17.7341 5.13646 17.9948 4.48008 17.9948C3.8237 17.9948 3.19421 17.7341 2.73008 17.27C2.26595 16.8058 2.00521 16.1763 2.00521 15.52C2.00521 14.8636 2.26595 14.2341 2.73008 13.77L7.27008 9.21997C7.71569 8.77291 8.3161 8.51425 8.94709 8.4975C9.57809 8.48075 10.1914 8.70719 10.6601 9.12997L10.7801 9.22997C10.9697 9.41562 11.2253 9.51834 11.4907 9.51553C11.7561 9.51272 12.0094 9.4046 12.1951 9.21497C12.3807 9.02534 12.4835 8.76973 12.4806 8.50437C12.4778 8.239 12.3697 7.98562 12.1801 7.79997C12.1236 7.727 12.0636 7.65691 12.0001 7.58997C11.1464 6.84729 10.0424 6.45682 8.91165 6.49767C7.78088 6.53852 6.70791 7.00763 5.91008 7.80997L1.31008 12.36C0.528437 13.2108 0.105701 14.3306 0.130155 15.4857C0.154609 16.6408 0.624362 17.7418 1.44131 18.5587C2.25826 19.3757 3.35924 19.8454 4.51433 19.8699C5.66941 19.8944 6.78929 19.4716 7.64008 18.69L9.37008 17C9.5409 16.8136 9.6348 16.5695 9.63289 16.3167C9.63098 16.0639 9.5334 15.8212 9.35979 15.6375C9.18618 15.4537 8.94942 15.3426 8.69715 15.3263C8.44488 15.3101 8.19582 15.39 8.00008 15.55ZM18.6901 1.30997C17.8489 0.47398 16.7111 0.00476074 15.5251 0.00476074C14.3391 0.00476074 13.2013 0.47398 12.3601 1.30997L10.6301 2.99997C10.4593 3.18632 10.3654 3.43045 10.3673 3.68324C10.3692 3.93603 10.4668 4.17871 10.6404 4.36246C10.814 4.54621 11.0507 4.65739 11.303 4.67362C11.5553 4.68986 11.8043 4.60995 12.0001 4.44997L13.7301 2.72997C14.1942 2.26584 14.8237 2.0051 15.4801 2.0051C16.1365 2.0051 16.766 2.26584 17.2301 2.72997C17.6942 3.1941 17.955 3.8236 17.955 4.47997C17.955 5.13635 17.6942 5.76584 17.2301 6.22997L12.6901 10.78C12.2445 11.227 11.6441 11.4857 11.0131 11.5024C10.3821 11.5192 9.76879 11.2928 9.30008 10.87L9.18008 10.77C8.99045 10.5843 8.73484 10.4816 8.46947 10.4844C8.20411 10.4872 7.95073 10.5953 7.76508 10.785C7.57943 10.9746 7.47671 11.2302 7.47952 11.4956C7.48234 11.7609 7.59045 12.0143 7.78008 12.2C7.85272 12.2743 7.92951 12.3444 8.01008 12.41C8.86476 13.1504 9.96831 13.5394 11.0984 13.4986C12.2285 13.4578 13.3011 12.9902 14.1001 12.19L18.6501 7.63997C19.4914 6.80405 19.9678 5.6692 19.9753 4.48322C19.9828 3.29724 19.5208 2.15646 18.6901 1.30997Z" fill="currentColor"/>
</svg>
