<svg width="24" height="24" viewBox="0 0 24 24" xmlns="http://www.w3.org/2000/svg">
  <path fill-rule="evenodd" clip-rule="evenodd"
    d="M10.4489 16.2375L9.11114 17.5362C8.38066 18.2659 7.1963 18.2659 6.46581 17.5362C5.73532 16.8064 5.73532 15.6232 6.46581 14.8935L9.89719 11.458C10.5967 10.7569 11.7236 10.727 12.4594 11.39L12.5501 11.4655C12.8485 11.7574 13.3274 11.7524 13.6195 11.4542C13.9117 11.156 13.9067 10.6777 13.6082 10.3858C13.5656 10.3307 13.5201 10.2778 13.4722 10.2272C12.1333 9.06357 10.1206 9.13621 8.86928 10.3934L5.39256 13.8288C4.16509 15.1636 4.20884 17.2276 5.49175 18.5092C6.77466 19.7909 8.84078 19.8346 10.1768 18.6083L11.4844 17.3323C11.7522 17.0404 11.7488 16.5914 11.4766 16.3035C11.2044 16.0157 10.7558 15.9869 10.4489 16.2375ZM18.5285 5.4855C17.205 4.1715 15.0678 4.1715 13.7443 5.4855L12.4367 6.76154C12.1689 7.05345 12.1723 7.50247 12.4445 7.79029C12.7167 8.07812 13.1653 8.10696 13.4722 7.85637L14.7797 6.55768C15.5102 5.82792 16.6946 5.82792 17.425 6.55768C18.1555 7.28744 18.1555 8.47061 17.425 9.20037L13.9937 12.6359C13.2942 13.3369 12.1672 13.3668 11.4315 12.7038L11.3408 12.6283C11.0423 12.3364 10.5635 12.3415 10.2713 12.6396C9.97912 12.9378 9.98419 13.4161 10.2826 13.708C10.3375 13.7641 10.3956 13.8171 10.4565 13.8666C11.7967 15.0265 13.8064 14.954 15.0594 13.7005L18.4983 10.265C19.822 8.95109 19.8355 6.81601 18.5285 5.4855Z" />
</svg>
