<svg width="24" height="24" viewBox="0 0 24 24" xmlns="http://www.w3.org/2000/svg">
  <path
    d="M8 18.4H5.6V18.32C5.6 17.92 5.92 17.6 6.32 17.6C7.44 17.6 8.4 16.88 8.72 15.84C9.04 14.56 8.32 13.2 7.04 12.88C6 12.56 4.88 13.04 4.32 14C4.08 14.4 4.24 14.88 4.64 15.12C5.04 15.36 5.52 15.2 5.76 14.8C6 14.4 6.48 14.32 6.88 14.56C6.96 14.64 7.04 14.64 7.04 14.72C7.2 14.96 7.2 15.2 7.2 15.44C7.04 15.76 6.72 16 6.4 16C5.04 16 4 17.04 4 18.32V19.2C4 19.68 4.32 20 4.8 20H8C8.48 20 8.8 19.68 8.8 19.2C8.8 18.72 8.48 18.4 8 18.4ZM11.2 8H19.2C19.68 8 20 7.68 20 7.2C20 6.72 19.68 6.4 19.2 6.4H11.2C10.72 6.4 10.4 6.72 10.4 7.2C10.4 7.68 10.72 8 11.2 8ZM8 9.6H7.2V4.8C7.2 4.32 6.88 4 6.4 4C5.92 4 5.6 4.32 5.6 4.8V5.6H4.8C4.32 5.6 4 5.92 4 6.4C4 6.88 4.32 7.2 4.8 7.2H5.6V9.6H4.8C4.32 9.6 4 9.92 4 10.4C4 10.88 4.32 11.2 4.8 11.2H8C8.48 11.2 8.8 10.88 8.8 10.4C8.8 9.92 8.48 9.6 8 9.6ZM19.2 15.2H11.2C10.72 15.2 10.4 15.52 10.4 16C10.4 16.48 10.72 16.8 11.2 16.8H19.2C19.68 16.8 20 16.48 20 16C20 15.52 19.68 15.2 19.2 15.2Z" />
</svg>
