<svg width="24" height="24" viewBox="0 0 24 24" xmlns="http://www.w3.org/2000/svg">
  <path
    d="M5.36817 15.2319C5.29209 15.1591 5.20237 15.102 5.10417 15.0639C4.90941 14.9839 4.69095 14.9839 4.49618 15.0639C4.39798 15.102 4.30827 15.1591 4.23218 15.2319C4.15935 15.308 4.10226 15.3977 4.06419 15.4959C4.00292 15.6416 3.98618 15.8022 4.01608 15.9573C4.04598 16.1125 4.12118 16.2554 4.23218 16.3679C4.30994 16.4386 4.39923 16.4954 4.49618 16.5359C4.59194 16.5782 4.69548 16.6001 4.80018 16.6001C4.90487 16.6001 5.00841 16.5782 5.10417 16.5359C5.20112 16.4954 5.29041 16.4386 5.36817 16.3679C5.47918 16.2554 5.55437 16.1125 5.58427 15.9573C5.61417 15.8022 5.59743 15.6416 5.53617 15.4959C5.49809 15.3977 5.441 15.308 5.36817 15.2319ZM8.00014 8.59998H19.2C19.4122 8.59998 19.6157 8.5157 19.7657 8.36567C19.9157 8.21564 20 8.01216 20 7.79999C20 7.58782 19.9157 7.38434 19.7657 7.23431C19.6157 7.08428 19.4122 7 19.2 7H8.00014C7.78797 7 7.58449 7.08428 7.43446 7.23431C7.28443 7.38434 7.20015 7.58782 7.20015 7.79999C7.20015 8.01216 7.28443 8.21564 7.43446 8.36567C7.58449 8.5157 7.78797 8.59998 8.00014 8.59998ZM5.36817 11.232C5.25567 11.1209 5.11282 11.0457 4.95763 11.0159C4.80244 10.986 4.64187 11.0027 4.49618 11.064C4.39923 11.1045 4.30994 11.1613 4.23218 11.232C4.15935 11.308 4.10226 11.3977 4.06419 11.4959C4.02186 11.5917 4 11.6952 4 11.7999C4 11.9046 4.02186 12.0082 4.06419 12.1039C4.1047 12.2009 4.16152 12.2902 4.23218 12.3679C4.30994 12.4386 4.39923 12.4954 4.49618 12.5359C4.59194 12.5783 4.69548 12.6001 4.80018 12.6001C4.90487 12.6001 5.00841 12.5783 5.10417 12.5359C5.20112 12.4954 5.29041 12.4386 5.36817 12.3679C5.43883 12.2902 5.49566 12.2009 5.53617 12.1039C5.57849 12.0082 5.60035 11.9046 5.60035 11.7999C5.60035 11.6952 5.57849 11.5917 5.53617 11.4959C5.49809 11.3977 5.441 11.308 5.36817 11.232ZM19.2 11H8.00014C7.78797 11 7.58449 11.0842 7.43446 11.2343C7.28443 11.3843 7.20015 11.5878 7.20015 11.7999C7.20015 12.0121 7.28443 12.2156 7.43446 12.3656C7.58449 12.5157 7.78797 12.5999 8.00014 12.5999H19.2C19.4122 12.5999 19.6157 12.5157 19.7657 12.3656C19.9157 12.2156 20 12.0121 20 11.7999C20 11.5878 19.9157 11.3843 19.7657 11.2343C19.6157 11.0842 19.4122 11 19.2 11ZM5.36817 7.232C5.29209 7.15917 5.20237 7.10207 5.10417 7.064C4.95849 7.00274 4.79792 6.986 4.64273 7.0159C4.48754 7.0458 4.34468 7.12099 4.23218 7.232C4.16152 7.30976 4.1047 7.39905 4.06419 7.49599C4.02186 7.59175 4 7.6953 4 7.79999C4 7.90469 4.02186 8.00823 4.06419 8.10399C4.1047 8.20093 4.16152 8.29022 4.23218 8.36798C4.30994 8.43865 4.39923 8.49547 4.49618 8.53598C4.64187 8.59725 4.80244 8.61398 4.95763 8.58408C5.11282 8.55418 5.25567 8.47899 5.36817 8.36798C5.43883 8.29022 5.49566 8.20093 5.53617 8.10399C5.57849 8.00823 5.60035 7.90469 5.60035 7.79999C5.60035 7.6953 5.57849 7.59175 5.53617 7.49599C5.49566 7.39905 5.43883 7.30976 5.36817 7.232ZM19.2 14.9999H8.00014C7.78797 14.9999 7.58449 15.0842 7.43446 15.2342C7.28443 15.3842 7.20015 15.5877 7.20015 15.7999C7.20015 16.0121 7.28443 16.2156 7.43446 16.3656C7.58449 16.5156 7.78797 16.5999 8.00014 16.5999H19.2C19.4122 16.5999 19.6157 16.5156 19.7657 16.3656C19.9157 16.2156 20 16.0121 20 15.7999C20 15.5877 19.9157 15.3842 19.7657 15.2342C19.6157 15.0842 19.4122 14.9999 19.2 14.9999Z" />
</svg>
