<svg width="24" height="24" viewBox="0 0 24 24" fill="none" xmlns="http://www.w3.org/2000/svg">
<path fill-rule="evenodd" clip-rule="evenodd" d="M12 12.8C11.5513 12.8 11.1875 13.1582 11.1875 13.6V16C11.1875 16.4418 11.5513 16.8 12 16.8C12.4487 16.8 12.8125 16.4418 12.8125 16V13.6C12.8125 13.1582 12.4487 12.8 12 12.8ZM16.0625 9.6V8C16.0625 5.79086 14.2437 4 12 4C9.75634 4 7.9375 5.79086 7.9375 8V9.6C6.59131 9.6 5.5 10.6745 5.5 12V17.6C5.5 18.9255 6.59131 20 7.9375 20H16.0625C17.4087 20 18.5 18.9255 18.5 17.6V12C18.5 10.6745 17.4087 9.6 16.0625 9.6ZM9.5625 8C9.5625 6.67452 10.6538 5.6 12 5.6C13.3462 5.6 14.4375 6.67452 14.4375 8V9.6H9.5625V8ZM16.875 17.6C16.875 18.0418 16.5112 18.4 16.0625 18.4H7.9375C7.48877 18.4 7.125 18.0418 7.125 17.6V12C7.125 11.5582 7.48877 11.2 7.9375 11.2H16.0625C16.5112 11.2 16.875 11.5582 16.875 12V17.6Z" fill="currentColor"/>
</svg>
