<svg width="24" height="24" viewBox="0 0 24 24" fill="none" xmlns="http://www.w3.org/2000/svg">
<path d="M18.0193 4.47771C16.4243 2.89126 14.2609 2 12.0052 2C9.74948 2 7.58615 2.89126 5.99112 4.47771C4.39608 6.06417 3.5 8.21586 3.5 10.4594C3.5 12.703 4.39608 14.8547 5.99112 16.4412L11.2735 21.7051C11.3667 21.7985 11.4775 21.8727 11.5997 21.9233C11.7218 21.9739 11.8528 22 11.9852 22C12.1175 22 12.2485 21.9739 12.3706 21.9233C12.4928 21.8727 12.6036 21.7985 12.6968 21.7051L18.0193 16.3913C19.6077 14.8115 20.5 12.6688 20.5 10.4345C20.5 8.20029 19.6077 6.05757 18.0193 4.47771ZM16.5859 14.9657L12.0052 19.5417L7.42447 14.9657C6.5195 14.0648 5.90339 12.9172 5.65402 11.668C5.40466 10.4189 5.53323 9.12427 6.0235 7.9478C6.51376 6.77132 7.3437 5.76583 8.40841 5.05842C9.47312 4.35101 10.7248 3.97344 12.0052 3.97344C13.2856 3.97344 14.5373 4.35101 15.602 5.05842C16.6667 5.76583 17.4966 6.77132 17.9869 7.9478C18.4772 9.12427 18.6058 10.4189 18.3564 11.668C18.107 12.9172 17.4909 14.0648 16.5859 14.9657ZM8.99816 7.39879C8.18898 8.2061 7.7346 9.29956 7.7346 10.4395C7.7346 11.5795 8.18898 12.6729 8.99816 13.4802C9.59933 14.0792 10.365 14.4882 11.199 14.656C12.033 14.8238 12.8983 14.7429 13.6862 14.4235C14.4742 14.104 15.1498 13.5603 15.6282 12.8604C16.1066 12.1605 16.3666 11.3356 16.3754 10.4894C16.38 9.92429 16.2705 9.36405 16.0536 8.84177C15.8367 8.3195 15.5167 7.84578 15.1125 7.44864C14.7152 7.04446 14.2415 6.7224 13.7186 6.501C13.1958 6.27961 12.634 6.16324 12.0657 6.15861C11.4975 6.15398 10.9339 6.26117 10.4074 6.47401C9.88097 6.68685 9.40203 7.00114 8.99816 7.39879ZM13.6992 12.0645C13.3193 12.4481 12.8173 12.6885 12.279 12.7447C11.7406 12.8009 11.1994 12.6693 10.7478 12.3725C10.2962 12.0757 9.96222 11.6321 9.80305 11.1175C9.64389 10.6029 9.66938 10.0493 9.87517 9.55137C10.081 9.05341 10.4543 8.64201 10.9313 8.38751C11.4083 8.13301 11.9593 8.05121 12.4903 8.1561C13.0212 8.26099 13.499 8.54605 13.842 8.96255C14.185 9.37905 14.3719 9.90112 14.3707 10.4395C14.3562 11.0549 14.0966 11.6394 13.6491 12.0645H13.6992Z" fill="#818285"/>
</svg>
