<svg width="24" height="24" viewBox="0 0 24 24" fill="none" xmlns="http://www.w3.org/2000/svg">
<path fill-rule="evenodd" clip-rule="evenodd" d="M11.4003 11.9196V15.9998C11.4003 16.4416 11.7585 16.7998 12.2004 16.7998C12.6422 16.7998 13.0004 16.4416 13.0004 15.9998V11.9196C15.0125 11.5089 16.3867 9.64131 16.1803 7.59815C15.9739 5.55498 14.2539 4 12.2004 4C10.1468 4 8.42682 5.55498 8.22042 7.59815C8.01402 9.64131 9.38825 11.5089 11.4003 11.9196ZM12.2004 5.59927C13.5259 5.59927 14.6005 6.67384 14.6005 7.99939C14.6005 9.32494 13.5259 10.3995 12.2004 10.3995C10.8748 10.3995 9.80024 9.32494 9.80024 7.99939C9.80024 6.67384 10.8748 5.59927 12.2004 5.59927ZM15.5685 13.9357C15.2827 13.8757 14.9866 13.9727 14.7917 14.1902C14.5968 14.4077 14.5327 14.7127 14.6237 14.9903C14.7146 15.2678 14.9467 15.4757 15.2325 15.5358C17.0486 15.8958 17.8007 16.5438 17.8007 16.7998C17.8007 17.2639 15.8406 18.3999 12.2004 18.3999C8.56018 18.3999 6.60008 17.2639 6.60008 16.7998C6.60008 16.5438 7.35212 15.8958 9.16821 15.5038C9.45404 15.4437 9.68613 15.2358 9.77706 14.9583C9.868 14.6807 9.80395 14.3757 9.60906 14.1582C9.41416 13.9407 9.11802 13.8437 8.8322 13.9037C6.40007 14.4637 5 15.5118 5 16.7998C5 18.9039 8.62419 20 12.2004 20C15.7766 20 19.4007 18.9039 19.4007 16.7998C19.4007 15.5118 18.0007 14.4637 15.5685 13.9357Z" fill="currentColor"/>
</svg>
