<svg viewBox="0 0 24 24" fill="none" xmlns="http://www.w3.org/2000/svg">
  <path fill-rule="evenodd" clip-rule="evenodd"
    d="M16.78 5.98217C14.1424 3.33928 9.86589 3.33928 7.22824 5.98217C4.59059 8.62507 4.59059 12.91 7.22824 15.5529L11.4231 19.7641C11.5725 19.9151 11.776 20 11.9882 20C12.2005 20 12.4039 19.9151 12.5534 19.7641L16.78 15.5131C19.4067 12.8812 19.4067 8.61407 16.78 5.98217ZM15.6418 14.3725L12.0041 18.0334L8.36649 14.3725C6.35975 12.36 6.36075 9.0986 8.36871 7.08726C10.3767 5.07591 13.6316 5.07591 15.6396 7.08726C17.6475 9.0986 17.6485 12.36 15.6418 14.3725ZM9.61619 8.31904C8.27829 9.66372 8.27829 11.8395 9.61619 13.1842C10.5923 14.1639 12.0597 14.4613 13.3391 13.9388C14.6184 13.4163 15.4602 12.1757 15.4746 10.7915C15.4819 9.87819 15.1201 9.00079 14.4717 8.35891C13.8345 7.70583 12.9637 7.33437 12.0522 7.32689C11.1408 7.3194 10.264 7.6765 9.61619 8.31904ZM13.3493 12.0516C12.7273 12.6845 11.7452 12.7877 11.0056 12.298C10.266 11.8083 9.97561 10.8627 10.3126 10.0411C10.6497 9.21954 11.5198 8.75183 12.3893 8.92488C13.2589 9.09793 13.8846 9.86335 13.8827 10.7516C13.8711 11.2439 13.6649 11.7115 13.3095 12.0516H13.3493Z"
    fill="currentColor" />
</svg>
