<svg viewBox="0 0 24 24" fill="none" xmlns="http://www.w3.org/2000/svg">
  <path
    d="M15.4 13.6H9C8.78783 13.6 8.58434 13.6843 8.43431 13.8343C8.28429 13.9843 8.2 14.1878 8.2 14.4C8.2 14.6122 8.28429 14.8157 8.43431 14.9657C8.58434 15.1157 8.78783 15.2 9 15.2H15.4C15.6122 15.2 15.8157 15.1157 15.9657 14.9657C16.1157 14.8157 16.2 14.6122 16.2 14.4C16.2 14.1878 16.1157 13.9843 15.9657 13.8343C15.8157 13.6843 15.6122 13.6 15.4 13.6ZM15.4 10.4H10.6C10.3878 10.4 10.1843 10.4843 10.0343 10.6343C9.88429 10.7843 9.8 10.9878 9.8 11.2C9.8 11.4122 9.88429 11.6157 10.0343 11.7657C10.1843 11.9157 10.3878 12 10.6 12H15.4C15.6122 12 15.8157 11.9157 15.9657 11.7657C16.1157 11.6157 16.2 11.4122 16.2 11.2C16.2 10.9878 16.1157 10.7843 15.9657 10.6343C15.8157 10.4843 15.6122 10.4 15.4 10.4ZM18.6 5.6H16.2V4.8C16.2 4.58783 16.1157 4.38434 15.9657 4.23431C15.8157 4.08429 15.6122 4 15.4 4C15.1878 4 14.9843 4.08429 14.8343 4.23431C14.6843 4.38434 14.6 4.58783 14.6 4.8V5.6H13V4.8C13 4.58783 12.9157 4.38434 12.7657 4.23431C12.6157 4.08429 12.4122 4 12.2 4C11.9878 4 11.7843 4.08429 11.6343 4.23431C11.4843 4.38434 11.4 4.58783 11.4 4.8V5.6H9.8V4.8C9.8 4.58783 9.71571 4.38434 9.56568 4.23431C9.41566 4.08429 9.21217 4 9 4C8.78783 4 8.58434 4.08429 8.43431 4.23431C8.28429 4.38434 8.2 4.58783 8.2 4.8V5.6H5.8C5.58783 5.6 5.38434 5.68429 5.23431 5.83431C5.08429 5.98434 5 6.18783 5 6.4V17.6C5 18.2365 5.25286 18.847 5.70294 19.2971C6.15303 19.7471 6.76348 20 7.4 20H17C17.6365 20 18.247 19.7471 18.6971 19.2971C19.1471 18.847 19.4 18.2365 19.4 17.6V6.4C19.4 6.18783 19.3157 5.98434 19.1657 5.83431C19.0157 5.68429 18.8122 5.6 18.6 5.6ZM17.8 17.6C17.8 17.8122 17.7157 18.0157 17.5657 18.1657C17.4157 18.3157 17.2122 18.4 17 18.4H7.4C7.18783 18.4 6.98434 18.3157 6.83431 18.1657C6.68429 18.0157 6.6 17.8122 6.6 17.6V7.2H8.2V8C8.2 8.21217 8.28429 8.41566 8.43431 8.56569C8.58434 8.71571 8.78783 8.8 9 8.8C9.21217 8.8 9.41566 8.71571 9.56568 8.56569C9.71571 8.41566 9.8 8.21217 9.8 8V7.2H11.4V8C11.4 8.21217 11.4843 8.41566 11.6343 8.56569C11.7843 8.71571 11.9878 8.8 12.2 8.8C12.4122 8.8 12.6157 8.71571 12.7657 8.56569C12.9157 8.41566 13 8.21217 13 8V7.2H14.6V8C14.6 8.21217 14.6843 8.41566 14.8343 8.56569C14.9843 8.71571 15.1878 8.8 15.4 8.8C15.6122 8.8 15.8157 8.71571 15.9657 8.56569C16.1157 8.41566 16.2 8.21217 16.2 8V7.2H17.8V17.6Z"
    fill="currentColor" />
</svg>
