<svg viewBox="0 0 24 24" fill="none" xmlns="http://www.w3.org/2000/svg">
  <path fill-rule="evenodd" clip-rule="evenodd"
    d="M19.6239 8.37021C19.625 8.16755 19.5455 7.97277 19.4028 7.82888L16.17 4.59612C16.0261 4.4534 15.8313 4.37384 15.6287 4.37501C15.426 4.37384 15.2312 4.4534 15.0873 4.59612L12.9296 6.75383L4.59612 15.0873C4.4534 15.2312 4.37384 15.426 4.37501 15.6287V18.8614C4.37501 19.2825 4.71637 19.6239 5.13746 19.6239H8.37021C8.58597 19.6356 8.79658 19.5552 8.94967 19.4028L17.2374 11.0693L19.4028 8.94967C19.4724 8.87578 19.5291 8.79073 19.5705 8.69806C19.5778 8.63729 19.5778 8.57585 19.5705 8.51508C19.5741 8.47959 19.5741 8.44383 19.5705 8.40834L19.6239 8.37021ZM8.05761 18.099H5.8999V15.9413L13.471 8.37021L15.6287 10.5279L8.05761 18.099ZM16.7037 9.45288L14.546 7.29517L15.6287 6.22012L17.7788 8.37021L16.7037 9.45288Z"
    fill="currentColor" />
</svg>
