<svg width="24" height="24" viewBox="0 0 24 24" fill="none" xmlns="http://www.w3.org/2000/svg">
  <path
    d="M12.3154 12.22C12.8497 11.7581 13.2783 11.1869 13.572 10.545C13.8657 9.90316 14.0177 9.20571 14.0177 8.5C14.0177 7.17392 13.4902 5.90215 12.5513 4.96447C11.6123 4.02678 10.3388 3.5 9.01094 3.5C7.68305 3.5 6.40955 4.02678 5.4706 4.96447C4.53164 5.90215 4.00414 7.17392 4.00414 8.5C4.00413 9.20571 4.15615 9.90316 4.44987 10.545C4.74359 11.1869 5.17215 11.7581 5.70645 12.22C4.30469 12.8539 3.1154 13.8775 2.28078 15.1685C1.44616 16.4596 1.00153 17.9633 1.00006 19.5C1.00006 19.7652 1.10556 20.0196 1.29335 20.2071C1.48114 20.3946 1.73584 20.5 2.00142 20.5C2.267 20.5 2.5217 20.3946 2.70949 20.2071C2.89728 20.0196 3.00278 19.7652 3.00278 19.5C3.00278 17.9087 3.63578 16.3826 4.76253 15.2574C5.88928 14.1321 7.41748 13.5 9.01094 13.5C10.6044 13.5 12.1326 14.1321 13.2593 15.2574C14.3861 16.3826 15.0191 17.9087 15.0191 19.5C15.0191 19.7652 15.1246 20.0196 15.3124 20.2071C15.5002 20.3946 15.7549 20.5 16.0205 20.5C16.286 20.5 16.5407 20.3946 16.7285 20.2071C16.9163 20.0196 17.0218 19.7652 17.0218 19.5C17.0203 17.9633 16.5757 16.4596 15.7411 15.1685C14.9065 13.8775 13.7172 12.8539 12.3154 12.22V12.22ZM9.01094 11.5C8.41679 11.5 7.83598 11.3241 7.34196 10.9944C6.84794 10.6648 6.4629 10.1962 6.23553 9.64805C6.00816 9.09987 5.94867 8.49667 6.06458 7.91473C6.1805 7.33279 6.46661 6.79824 6.88673 6.37868C7.30686 5.95912 7.84214 5.6734 8.42487 5.55764C9.00761 5.44189 9.61163 5.5013 10.1605 5.72836C10.7095 5.95543 11.1786 6.33994 11.5087 6.83329C11.8388 7.32664 12.015 7.90666 12.015 8.5C12.015 9.29565 11.6985 10.0587 11.1351 10.6213C10.5718 11.1839 9.80767 11.5 9.01094 11.5ZM18.7642 11.82C19.405 11.0993 19.8236 10.2091 19.9696 9.25634C20.1156 8.30362 19.9828 7.32907 19.5871 6.45C19.1914 5.57093 18.5497 4.8248 17.7393 4.30142C16.9288 3.77805 15.9842 3.49974 15.0191 3.5C14.7535 3.5 14.4988 3.60536 14.311 3.79289C14.1232 3.98043 14.0177 4.23478 14.0177 4.5C14.0177 4.76522 14.1232 5.01957 14.311 5.20711C14.4988 5.39464 14.7535 5.5 15.0191 5.5C15.8158 5.5 16.5799 5.81607 17.1433 6.37868C17.7067 6.94129 18.0232 7.70435 18.0232 8.5C18.0218 9.02524 17.8823 9.5409 17.6187 9.99542C17.3551 10.4499 16.9766 10.8274 16.5211 11.09C16.3727 11.1755 16.2487 11.2977 16.161 11.4447C16.0733 11.5918 16.025 11.7589 16.0205 11.93C16.0163 12.0998 16.0554 12.2678 16.1343 12.4183C16.2131 12.5687 16.329 12.6967 16.4711 12.79L16.8616 13.05L16.9918 13.12C18.1988 13.6917 19.2171 14.596 19.9267 15.7263C20.6364 16.8566 21.0078 18.1659 20.9972 19.5C20.9972 19.7652 21.1027 20.0196 21.2905 20.2071C21.4783 20.3946 21.733 20.5 21.9986 20.5C22.2642 20.5 22.5189 20.3946 22.7066 20.2071C22.8944 20.0196 22.9999 19.7652 22.9999 19.5C23.0081 17.9654 22.6232 16.4543 21.8819 15.1101C21.1405 13.7659 20.0673 12.6333 18.7642 11.82V11.82Z" />
</svg>
