<svg viewBox="0 0 24 24" fill="none" xmlns="http://www.w3.org/2000/svg">
  <path
    d="M8.29651 10.9086C8.8153 10.9086 9.32243 10.7548 9.75379 10.4665C10.1851 10.1783 10.5213 9.76866 10.7199 9.28937C10.9184 8.81008 10.9703 8.28267 10.8691 7.77386C10.7679 7.26504 10.5181 6.79766 10.1513 6.43083C9.78443 6.06399 9.31706 5.81417 8.80824 5.71296C8.29942 5.61175 7.77202 5.6637 7.29273 5.86223C6.81343 6.06076 6.40377 6.39696 6.11555 6.82831C5.82733 7.25967 5.67349 7.7668 5.67349 8.28558C5.67419 8.98104 5.95076 9.64781 6.44253 10.1396C6.93429 10.6313 7.60106 10.9079 8.29651 10.9086ZM8.29651 7.41124C8.46944 7.41124 8.63849 7.46252 8.78227 7.5586C8.92606 7.65467 9.03812 7.79122 9.1043 7.95099C9.17048 8.11075 9.18779 8.28655 9.15405 8.45616C9.12032 8.62576 9.03705 8.78156 8.91477 8.90384C8.79249 9.02611 8.63669 9.10939 8.46709 9.14312C8.29748 9.17686 8.12168 9.15955 7.96192 9.09337C7.80215 9.02719 7.6656 8.91513 7.56953 8.77134C7.47345 8.62756 7.42217 8.45851 7.42217 8.28558C7.42217 8.05369 7.51429 7.8313 7.67826 7.66733C7.84223 7.50336 8.06462 7.41124 8.29651 7.41124ZM15.7144 13.0805C15.1956 13.0805 14.6885 13.2343 14.2571 13.5225C13.8258 13.8107 13.4896 14.2204 13.2911 14.6997C13.0925 15.179 13.0406 15.7064 13.1418 16.2152C13.243 16.724 13.4928 17.1914 13.8597 17.5582C14.2265 17.9251 14.6939 18.1749 15.2027 18.2761C15.7115 18.3773 16.2389 18.3254 16.7182 18.1268C17.1975 17.9283 17.6072 17.5921 17.8954 17.1608C18.1836 16.7294 18.3374 16.2223 18.3374 15.7035C18.3367 15.008 18.0602 14.3413 17.5684 13.8495C17.0766 13.3577 16.4099 13.0812 15.7144 13.0805ZM15.7144 16.5778C15.5415 16.5778 15.3724 16.5265 15.2287 16.4305C15.0849 16.3344 14.9728 16.1978 14.9066 16.0381C14.8405 15.8783 14.8231 15.7025 14.8569 15.5329C14.8906 15.3633 14.9739 15.2075 15.0962 15.0852C15.2184 14.963 15.3742 14.8797 15.5438 14.8459C15.7134 14.8122 15.8892 14.8295 16.049 14.8957C16.2088 14.9619 16.3453 15.0739 16.4414 15.2177C16.5375 15.3615 16.5888 15.5306 16.5888 15.7035C16.5888 15.9354 16.4966 16.1578 16.3327 16.3217C16.1687 16.4857 15.9463 16.5778 15.7144 16.5778ZM18.744 5.256C18.58 5.09208 18.3577 5 18.1258 5C17.894 5 17.6716 5.09208 17.5077 5.256L5.26693 17.4968C5.18342 17.5774 5.11681 17.6739 5.07098 17.7806C5.02516 17.8872 5.00104 18.002 5.00003 18.1181C4.99902 18.2342 5.02115 18.3493 5.06511 18.4567C5.10907 18.5642 5.17399 18.6618 5.25609 18.7439C5.33818 18.826 5.4358 18.8909 5.54326 18.9349C5.65071 18.9789 5.76584 19.001 5.88194 19C5.99803 18.999 6.11276 18.9748 6.21944 18.929C6.32611 18.8832 6.42259 18.8166 6.50324 18.7331L18.744 6.49231C18.9079 6.32835 19 6.106 19 5.87415C19 5.64231 18.9079 5.41996 18.744 5.256Z"
    fill="currentColor" />
</svg>
