<svg width="24" height="24" viewBox="0 0 24 24" fill="none" xmlns="http://www.w3.org/2000/svg">
<path fill-rule="evenodd" clip-rule="evenodd" d="M12 2C8.02964 2.00754 4.43832 4.35695 2.84373 7.98996C1.24915 11.623 1.95218 15.8541 4.63616 18.7773C6.53288 20.8316 9.20275 22 12 22C14.7972 22 17.4671 20.8316 19.3638 18.7773C22.0478 15.8541 22.7509 11.623 21.1563 7.98996C19.5617 4.35695 15.9704 2.00754 12 2ZM12 20.0186C9.92456 20.0155 7.93127 19.2081 6.43955 17.7663C7.36582 15.5133 9.56223 14.0422 12 14.0422C14.4378 14.0422 16.6342 15.5133 17.5605 17.7663C16.0687 19.2081 14.0754 20.0155 12 20.0186ZM9.99623 10.0083C9.99623 8.90257 10.8934 8.00621 12 8.00621C13.1066 8.00621 14.0038 8.90257 14.0038 10.0083C14.0038 11.114 13.1066 12.0103 12 12.0103C10.8934 12.0103 9.99623 11.114 9.99623 10.0083ZM18.923 16.0145C18.0279 14.4847 16.6501 13.2947 15.0056 12.631C16.4265 11.0212 16.3243 8.57831 14.7739 7.09263C13.2235 5.60694 10.7765 5.60694 9.22605 7.09263C7.67565 8.57831 7.57345 11.0212 8.99435 12.631C7.34986 13.2947 5.97214 14.4847 5.07699 16.0145C4.36359 14.8003 3.98666 13.4183 3.98493 12.0103C3.98493 7.5875 7.5734 4.00207 12 4.00207C16.4266 4.00207 20.0151 7.5875 20.0151 12.0103C20.0133 13.4183 19.6364 14.8003 18.923 16.0145Z" fill="currentColor"/>
</svg>
