<svg width="24" height="24" viewBox="0 0 24 24" fill="none" xmlns="http://www.w3.org/2000/svg">
<path fill-rule="evenodd" clip-rule="evenodd" d="M11.2901 15.2899C11.2471 15.3374 11.207 15.3875 11.1701 15.4399C11.1323 15.4956 11.102 15.5562 11.0801 15.6199C11.0513 15.6766 11.031 15.7372 11.0201 15.7999C11.0152 15.8665 11.0152 15.9333 11.0201 15.9999C11.0167 16.1311 11.0441 16.2612 11.1001 16.3799C11.191 16.6311 11.3889 16.829 11.6401 16.9199C11.8821 17.0269 12.1581 17.0269 12.4001 16.9199C12.6513 16.829 12.8492 16.6311 12.9401 16.3799C12.9845 16.2583 13.0049 16.1292 13.0001 15.9999C13.0016 15.7341 12.8973 15.4786 12.7101 15.2899C12.5223 15.1006 12.2667 14.9941 12.0001 14.9941C11.7335 14.9941 11.4779 15.1006 11.2901 15.2899ZM12 2C6.47715 2 2 6.47715 2 12C2 17.5228 6.47715 22 12 22C17.5228 22 22 17.5228 22 12C22 9.34784 20.9464 6.8043 19.0711 4.92893C17.1957 3.05357 14.6522 2 12 2ZM12.0001 20.0001C7.58184 20.0001 4.00012 16.4184 4.00012 12.0001C4.00012 7.58184 7.58184 4.00012 12.0001 4.00012C16.4184 4.00012 20.0001 7.58184 20.0001 12.0001C20.0001 14.1219 19.1573 16.1567 17.657 17.657C16.1567 19.1573 14.1219 20.0001 12.0001 20.0001ZM12 7C10.9276 6.99931 9.93628 7.5712 9.40004 8.5C9.20298 8.80999 9.19173 9.20306 9.37074 9.52381C9.54975 9.84456 9.8902 10.0414 10.2575 10.0364C10.6248 10.0314 10.9598 9.82548 11.13 9.5C11.3094 9.18937 11.6414 8.99858 12 9C12.5523 9 13 9.44772 13 10C13 10.5523 12.5523 11 12 11C11.4478 11 11 11.4477 11 12V13C11 13.5523 11.4478 14 12 14C12.5523 14 13 13.5523 13 13V12.82C14.365 12.3247 15.1793 10.923 14.9334 9.49189C14.6876 8.06081 13.452 7.01127 12 7Z" fill="currentColor"/>
</svg>
