<svg width="24" height="24" viewBox="0 0 24 24" xmlns="http://www.w3.org/2000/svg">
  <path
    d="M8.71714 16.5C9.15429 16.5 9.55714 16.2535 9.74571 15.871L10.9629 13.457C11.0829 13.219 11.1429 12.964 11.1429 12.7005V8.85C11.1429 8.3825 10.7571 8 10.2857 8H6.85714C6.38571 8 6 8.3825 6 8.85V12.25C6 12.7175 6.38571 13.1 6.85714 13.1H8.57143L7.68857 14.851C7.30286 15.6075 7.86 16.5 8.71714 16.5ZM15.5743 16.5C16.0114 16.5 16.4143 16.2535 16.6029 15.871L17.82 13.457C17.94 13.219 18 12.964 18 12.7005V8.85C18 8.3825 17.6143 8 17.1429 8H13.7143C13.2429 8 12.8571 8.3825 12.8571 8.85V12.25C12.8571 12.7175 13.2429 13.1 13.7143 13.1H15.4286L14.5457 14.851C14.16 15.6075 14.7171 16.5 15.5743 16.5Z" />
</svg>
