<svg width="24" height="24" viewBox="0 0 24 24" fill="none" xmlns="http://www.w3.org/2000/svg">
<path d="M18.9143 14.5329C18.7924 14.8657 18.8559 15.2444 19.1065 15.495C19.5067 15.8952 20.1797 15.7963 20.3853 15.269C20.7895 14.2323 21 13.1241 21 12C21 9.61305 20.0518 7.32387 18.364 5.63604C16.6761 3.94821 14.387 3 12 3C10.8759 3 9.76774 3.2105 8.73094 3.6147C8.20367 3.82026 8.10483 4.49332 8.505 4.8935C8.75562 5.14412 9.13428 5.20762 9.46708 5.0857C9.82254 4.95548 10.189 4.85233 10.5634 4.77785C11.9918 4.49373 13.4724 4.63955 14.8179 5.19689C16.1635 5.75422 17.3135 6.69804 18.1226 7.90898C18.9318 9.11993 19.3636 10.5436 19.3636 12C19.3636 12.8725 19.2088 13.7291 18.9143 14.5329Z" fill="#EF6363"/>
<path fill-rule="evenodd" clip-rule="evenodd" d="M5.24004 6.05837C4.5917 6.79602 4.06495 7.63878 3.68509 8.55585C3.0039 10.2004 2.82567 12.01 3.17294 13.7558C3.5202 15.5016 4.37737 17.1053 5.63604 18.364C6.89472 19.6226 8.49836 20.4798 10.2442 20.8271C11.99 21.1743 13.7996 20.9961 15.4442 20.3149C16.3612 19.9351 17.204 19.4083 17.9416 18.76L18.785 19.6033C19.1045 19.9228 19.6225 19.9228 19.9421 19.6033C20.2616 19.2838 20.2616 18.7657 19.9421 18.4462L5.55368 4.05785C5.23416 3.73833 4.71612 3.73833 4.3966 4.05785C4.07708 4.37737 4.07708 4.89541 4.3966 5.21493L5.24004 6.05837ZM6.40006 7.21839C5.58422 8.17384 5.02422 9.3249 4.77786 10.5634C4.49373 11.9918 4.63955 13.4724 5.19689 14.8179C5.75423 16.1635 6.69804 17.3135 7.90899 18.1226C9.11993 18.9318 10.5436 19.3636 12 19.3636C13.7592 19.3636 15.4534 18.7342 16.7816 17.6L13.8574 14.6758C13.5752 14.9571 13.2152 15.1516 12.8202 15.2318V15.6818C12.8202 15.8988 12.734 16.1069 12.5806 16.2604C12.4272 16.4138 12.2191 16.5 12.0021 16.5C11.7851 16.5 11.577 16.4138 11.4235 16.2604C11.2701 16.1069 11.1839 15.8988 11.1839 15.6818V15.2727H10.3657C10.1487 15.2727 9.94059 15.1865 9.78715 15.0331C9.63371 14.8796 9.54751 14.6715 9.54751 14.4545C9.54751 14.2375 9.63371 14.0294 9.78715 13.876C9.94059 13.7226 10.1487 13.6364 10.3657 13.6364H12.4111C12.5191 13.6364 12.6227 13.5937 12.6993 13.5176L11.9999 12.8182H11.593C11.0857 12.8187 10.5964 12.6307 10.2199 12.2907C9.84348 11.9507 9.60679 11.483 9.55581 10.9783C9.53611 10.7832 9.54469 10.588 9.58001 10.3983L6.40006 7.21839Z" fill="#EF6363"/>
<path d="M13.9238 10.3123L11.3885 7.77696C11.3997 7.76419 11.4114 7.75175 11.4235 7.73964C11.577 7.5862 11.7851 7.5 12.0021 7.5C12.2191 7.5 12.4272 7.5862 12.5806 7.73964C12.734 7.89308 12.8202 8.10119 12.8202 8.31818V8.72727H13.6384C13.8554 8.72727 14.0635 8.81347 14.217 8.96691C14.3704 9.12035 14.4566 9.32846 14.4566 9.54545C14.4566 9.76245 14.3704 9.97056 14.217 10.124C14.1331 10.2079 14.0329 10.2717 13.9238 10.3123Z" fill="#EF6363"/>
</svg>
