<svg width="24" height="24" viewBox="0 0 24 24" fill="none" xmlns="http://www.w3.org/2000/svg">
<path fill-rule="evenodd" clip-rule="evenodd" d="M19.7753 18.6511L16.8091 15.7067C19.1999 12.7235 18.8437 8.39047 15.998 5.83835C13.1523 3.28623 8.80958 3.40515 6.10759 6.10919C3.4056 8.81324 3.28677 13.1593 5.83695 16.0071C8.38714 18.855 12.7169 19.2114 15.6978 16.8188L18.64 19.7633C18.7901 19.9148 18.9945 20 19.2077 20C19.4209 20 19.6252 19.9148 19.7753 19.7633C20.0749 19.4532 20.0749 18.9613 19.7753 18.6511ZM11.2124 16.8188C8.12148 16.8188 5.61577 14.3112 5.61577 11.2179C5.61577 8.12462 8.12148 5.617 11.2124 5.617C14.3034 5.617 16.8091 8.12462 16.8091 11.2179C16.8091 12.7034 16.2195 14.128 15.1699 15.1784C14.1203 16.2287 12.6968 16.8188 11.2124 16.8188Z" fill="currentColor"/>
</svg>
