<svg viewBox="0 0 24 24" xmlns="http://www.w3.org/2000/svg">
  <path
    d="M21.7192 20.311L18.0114 16.631C19.4506 14.8354 20.1476 12.5563 19.959 10.2623C19.7705 7.96832 18.7106 5.83381 16.9975 4.29767C15.2844 2.76153 13.0481 1.94053 10.7486 2.00349C8.44911 2.06645 6.26109 3.00858 4.63448 4.63616C3.00786 6.26374 2.06629 8.45306 2.00337 10.7539C1.94045 13.0548 2.76095 15.2924 4.29618 17.0065C5.83141 18.7207 7.96466 19.7811 10.2573 19.9698C12.5499 20.1585 14.8277 19.4611 16.6222 18.021L20.3 21.701C20.3929 21.7948 20.5035 21.8691 20.6253 21.9199C20.747 21.9707 20.8777 21.9968 21.0096 21.9968C21.1415 21.9968 21.2722 21.9707 21.3939 21.9199C21.5157 21.8691 21.6263 21.7948 21.7192 21.701C21.8993 21.5146 22 21.2654 22 21.006C22 20.7467 21.8993 20.4975 21.7192 20.311ZM11.0155 18.021C9.63189 18.021 8.27932 17.6105 7.12886 16.8413C5.9784 16.0721 5.08172 14.9789 4.55223 13.6998C4.02273 12.4207 3.88419 11.0133 4.15412 9.65539C4.42406 8.29752 5.09035 7.05024 6.06873 6.07128C7.04712 5.09231 8.29366 4.42562 9.65072 4.15553C11.0078 3.88543 12.4144 4.02405 13.6927 4.55387C14.9711 5.08368 16.0637 5.98089 16.8324 7.13203C17.6011 8.28317 18.0114 9.63655 18.0114 11.021C18.0114 12.8775 17.2743 14.658 15.9623 15.9708C14.6504 17.2835 12.871 18.021 11.0155 18.021Z"
    fill="currentColor" />
</svg>
