<svg width="24" height="24" viewBox="0 0 24 24" fill="none" xmlns="http://www.w3.org/2000/svg">
<path d="M20.3659 12.66C20.2027 12.4775 20.1127 12.2429 20.1127 12C20.1127 11.7571 20.2027 11.5225 20.3659 11.34L21.6688 9.90002C21.8123 9.74269 21.9015 9.54472 21.9234 9.33452C21.9454 9.12433 21.899 8.9127 21.7909 8.73002L19.7552 5.27002C19.6482 5.08754 19.4853 4.94289 19.2898 4.8567C19.0942 4.77051 18.8759 4.74718 18.6661 4.79002L16.7525 5.17002C16.509 5.21945 16.2555 5.17961 16.0398 5.05802C15.8242 4.93643 15.6613 4.7415 15.5819 4.51002L14.961 2.68002C14.8927 2.4814 14.7626 2.30888 14.5891 2.18686C14.4156 2.06484 14.2074 1.99948 13.994 2.00002H9.92255C9.70058 1.98864 9.48093 2.04894 9.29713 2.17173C9.11333 2.29452 8.9755 2.47304 8.90468 2.68002L8.33467 4.51002C8.25528 4.7415 8.09239 4.93643 7.87674 5.05802C7.6611 5.17961 7.40761 5.21945 7.16412 5.17002L5.19963 4.79002C5.00068 4.7624 4.79787 4.79324 4.61674 4.87866C4.43561 4.96407 4.28426 5.10025 4.18176 5.27002L2.14601 8.73002C2.03523 8.91067 1.98542 9.1211 2.0037 9.33124C2.02198 9.54138 2.10742 9.74046 2.2478 9.90002L3.5405 11.34C3.70368 11.5225 3.79368 11.7571 3.79368 12C3.79368 12.2429 3.70368 12.4775 3.5405 12.66L2.2478 14.1C2.10742 14.2596 2.02198 14.4587 2.0037 14.6688C1.98542 14.8789 2.03523 15.0894 2.14601 15.27L4.18176 18.73C4.28873 18.9125 4.45161 19.0571 4.64718 19.1433C4.84275 19.2295 5.06102 19.2529 5.27088 19.21L7.18447 18.83C7.42797 18.7806 7.68145 18.8204 7.8971 18.942C8.11274 19.0636 8.27563 19.2585 8.35503 19.49L8.97593 21.32C9.04675 21.527 9.18459 21.7055 9.36838 21.8283C9.55218 21.9511 9.77183 22.0114 9.9938 22H14.0653C14.2787 22.0006 14.4868 21.9352 14.6604 21.8132C14.8339 21.6912 14.964 21.5186 15.0323 21.32L15.6532 19.49C15.7326 19.2585 15.8954 19.0636 16.1111 18.942C16.3267 18.8204 16.5802 18.7806 16.8237 18.83L18.7373 19.21C18.9472 19.2529 19.1654 19.2295 19.361 19.1433C19.5566 19.0571 19.7195 18.9125 19.8264 18.73L21.8622 15.27C21.9702 15.0873 22.0166 14.8757 21.9947 14.6655C21.9727 14.4553 21.8836 14.2573 21.74 14.1L20.3659 12.66ZM18.8493 14L19.6636 14.9L18.3607 17.12L17.1596 16.88C16.4265 16.7328 15.6639 16.8551 15.0166 17.2238C14.3692 17.5925 13.8822 18.1819 13.648 18.88L13.2612 20H10.6554L10.289 18.86C10.0547 18.1619 9.5677 17.5725 8.92036 17.2038C8.27301 16.8351 7.51042 16.7128 6.77733 16.86L5.57624 17.1L4.25301 14.89L5.0673 13.99C5.56805 13.44 5.84489 12.7279 5.84489 11.99C5.84489 11.2521 5.56805 10.54 5.0673 9.99002L4.25301 9.09002L5.55588 6.89002L6.75697 7.13002C7.49006 7.27724 8.25266 7.1549 8.9 6.78622C9.54734 6.41753 10.0344 5.82818 10.2686 5.13002L10.6554 4.00002H13.2612L13.648 5.14002C13.8822 5.83818 14.3692 6.42753 15.0166 6.79622C15.6639 7.1649 16.4265 7.28724 17.1596 7.14002L18.3607 6.90002L19.6636 9.12002L18.8493 10.02C18.3541 10.5688 18.0808 11.2767 18.0808 12.01C18.0808 12.7433 18.3541 13.4513 18.8493 14ZM11.9583 8.00002C11.153 8.00002 10.3658 8.23461 9.69629 8.67414C9.02674 9.11366 8.50489 9.73838 8.19673 10.4693C7.88857 11.2002 7.80794 12.0045 7.96504 12.7804C8.12214 13.5563 8.50991 14.269 9.07931 14.8284C9.64872 15.3879 10.3742 15.7688 11.164 15.9232C11.9538 16.0775 12.7724 15.9983 13.5164 15.6955C14.2603 15.3928 14.8962 14.8801 15.3436 14.2223C15.791 13.5645 16.0298 12.7911 16.0298 12C16.0298 10.9392 15.6008 9.92174 14.8373 9.17159C14.0737 8.42144 13.0381 8.00002 11.9583 8.00002ZM11.9583 14C11.5557 14 11.1621 13.8827 10.8273 13.663C10.4925 13.4432 10.2316 13.1308 10.0775 12.7654C9.92343 12.3999 9.88311 11.9978 9.96166 11.6098C10.0402 11.2219 10.2341 10.8655 10.5188 10.5858C10.8035 10.3061 11.1662 10.1156 11.5611 10.0384C11.956 9.96128 12.3653 10.0009 12.7373 10.1523C13.1093 10.3036 13.4273 10.56 13.6509 10.8889C13.8746 11.2178 13.994 11.6045 13.994 12C13.994 12.5304 13.7795 13.0392 13.3978 13.4142C13.016 13.7893 12.4982 14 11.9583 14Z" fill="currentColor"/>
</svg>
