<svg width="24" height="24" viewBox="0 0 24 24" fill="none" xmlns="http://www.w3.org/2000/svg">
<path fill-rule="evenodd" clip-rule="evenodd" d="M19.456 10.04L17.944 9.536L18.656 8.112C18.8039 7.80654 18.743 7.44098 18.504 7.2L16.8 5.496C16.5576 5.25337 16.1875 5.19223 15.88 5.344L14.456 6.056L13.952 4.544C13.8429 4.22093 13.541 4.00254 13.2 4H10.8C10.4561 3.99911 10.1501 4.21815 10.04 4.544L9.536 6.056L8.112 5.344C7.80654 5.19608 7.44098 5.25701 7.2 5.496L5.496 7.2C5.25337 7.44239 5.19223 7.81246 5.344 8.12L6.056 9.544L4.544 10.048C4.22093 10.1571 4.00254 10.459 4 10.8V13.2C3.99911 13.5439 4.21815 13.8499 4.544 13.96L6.056 14.464L5.344 15.888C5.19608 16.1935 5.25701 16.559 5.496 16.8L7.2 18.504C7.44239 18.7466 7.81246 18.8078 8.12 18.656L9.544 17.944L10.048 19.456C10.1581 19.7819 10.4641 20.0009 10.808 20H13.208C13.5519 20.0009 13.8579 19.7819 13.968 19.456L14.472 17.944L15.896 18.656C16.1994 18.8001 16.5605 18.7394 16.8 18.504L18.504 16.8C18.7466 16.5576 18.8078 16.1875 18.656 15.88L17.944 14.456L19.456 13.952C19.7791 13.8429 19.9975 13.541 20 13.2V10.8C20.0009 10.4561 19.7819 10.1501 19.456 10.04ZM18.4 12.624L17.44 12.944C16.9932 13.0889 16.6327 13.4229 16.454 13.8573C16.2753 14.2917 16.2965 14.7826 16.512 15.2L16.968 16.112L16.088 16.992L15.2 16.512C14.7849 16.3052 14.3005 16.2887 13.8723 16.4667C13.444 16.6448 13.1141 16.9999 12.968 17.44L12.648 18.4H11.376L11.056 17.44C10.9111 16.9932 10.5771 16.6327 10.1427 16.454C9.70834 16.2753 9.21737 16.2965 8.8 16.512L7.888 16.968L7.008 16.088L7.488 15.2C7.7035 14.7826 7.72472 14.2917 7.54603 13.8573C7.36734 13.4229 7.0068 13.0889 6.56 12.944L5.6 12.624V11.376L6.56 11.056C7.0068 10.9111 7.36734 10.5771 7.54603 10.1427C7.72472 9.70834 7.7035 9.21737 7.488 8.8L7.032 7.912L7.912 7.032L8.8 7.488C9.21737 7.7035 9.70834 7.72472 10.1427 7.54603C10.5771 7.36734 10.9111 7.0068 11.056 6.56L11.376 5.6H12.624L12.944 6.56C13.0889 7.0068 13.4229 7.36734 13.8573 7.54603C14.2917 7.72472 14.7826 7.7035 15.2 7.488L16.112 7.032L16.992 7.912L16.512 8.8C16.3052 9.21511 16.2887 9.69952 16.4667 10.1277C16.6448 10.556 16.9999 10.8859 17.44 11.032L18.4 11.352V12.624ZM12 8.8C10.2327 8.8 8.8 10.2327 8.8 12C8.8 13.7673 10.2327 15.2 12 15.2C13.7673 15.2 15.2 13.7673 15.2 12C15.2 11.1513 14.8629 10.3374 14.2627 9.73726C13.6626 9.13714 12.8487 8.8 12 8.8ZM12 13.6C11.1163 13.6 10.4 12.8837 10.4 12C10.4 11.1163 11.1163 10.4 12 10.4C12.8837 10.4 13.6 11.1163 13.6 12C13.6 12.8837 12.8837 13.6 12 13.6Z" fill="currentColor"/>
</svg>

