<svg width="24" height="24" viewBox="0 0 24 24" xmlns="http://www.w3.org/2000/svg">
  <path
    d="M9.47083 17.4737C9.22113 17.4737 8.97704 17.5478 8.76943 17.6866C8.56181 17.8254 8.39999 18.0226 8.30444 18.2535C8.20888 18.4843 8.18388 18.7382 8.23259 18.9833C8.28131 19.2283 8.40155 19.4534 8.57811 19.63C8.75467 19.8067 8.97963 19.927 9.22453 19.9757C9.46943 20.0245 9.72328 19.9995 9.95397 19.9038C10.1847 19.8082 10.3818 19.6463 10.5206 19.4386C10.6593 19.2309 10.7333 18.9867 10.7333 18.7368C10.7333 18.4018 10.6003 18.0805 10.3636 17.8437C10.1268 17.6068 9.80567 17.4737 9.47083 17.4737ZM18.3083 14.9474H8.20833C7.98511 14.9474 7.77103 14.8586 7.61319 14.7007C7.45534 14.5428 7.36667 14.3286 7.36667 14.1053C7.36667 13.8819 7.45534 13.6677 7.61319 13.5098C7.77103 13.3519 7.98511 13.2632 8.20833 13.2632H15.3551C15.9034 13.2614 16.4363 13.0819 16.8741 12.7516C17.3118 12.4212 17.6308 11.9579 17.7831 11.4309L19.1175 6.75781C19.1533 6.63248 19.1596 6.50055 19.1357 6.3724C19.1119 6.24425 19.0587 6.12338 18.9803 6.01931C18.9018 5.91524 18.8003 5.83081 18.6837 5.77266C18.5671 5.71451 18.4386 5.68423 18.3083 5.68421H7.98872C7.81448 5.19357 7.49329 4.7686 7.06891 4.46721C6.64452 4.16583 6.13759 4.00268 5.61717 4H4.84167C4.61844 4 4.40436 4.08872 4.24652 4.24665C4.08868 4.40457 4 4.61877 4 4.84211C4 5.06545 4.08868 5.27964 4.24652 5.43756C4.40436 5.59549 4.61844 5.68421 4.84167 5.68421H5.61717C5.79988 5.68485 5.97747 5.74469 6.12334 5.85476C6.26922 5.96484 6.37553 6.11923 6.42637 6.29482L6.55726 6.75355L6.55746 6.75781L7.93833 11.5933C7.29577 11.6625 6.70417 11.9755 6.28535 12.468C5.86653 12.9604 5.65237 13.5948 5.68697 14.2405C5.72158 14.8862 6.00231 15.494 6.47135 15.9388C6.9404 16.3836 7.56207 16.6316 8.20833 16.6316H18.3083C18.5316 16.6316 18.7456 16.5429 18.9035 16.3849C19.0613 16.227 19.15 16.0128 19.15 15.7895C19.15 15.5661 19.0613 15.3519 18.9035 15.194C18.7456 15.0361 18.5316 14.9474 18.3083 14.9474ZM17.1926 7.36842L16.1647 10.9679C16.1139 11.1437 16.0076 11.2982 15.8616 11.4084C15.7157 11.5185 15.5379 11.5784 15.3551 11.5789H9.68494L9.47037 10.8276L8.48307 7.36842H17.1926ZM16.2042 17.4737C15.9545 17.4737 15.7104 17.5478 15.5028 17.6866C15.2951 17.8254 15.1333 18.0226 15.0378 18.2535C14.9422 18.4843 14.9172 18.7382 14.9659 18.9833C15.0146 19.2283 15.1349 19.4534 15.3114 19.63C15.488 19.8067 15.713 19.927 15.9579 19.9757C16.2028 20.0245 16.4566 19.9995 16.6873 19.9038C16.918 19.8082 17.1152 19.6463 17.2539 19.4386C17.3926 19.2309 17.4667 18.9867 17.4667 18.7368C17.4667 18.4018 17.3337 18.0805 17.0969 17.8437C16.8601 17.6068 16.539 17.4737 16.2042 17.4737Z" />
</svg>
