<svg width="24" height="24" viewBox="0 0 24 24" fill="none" xmlns="http://www.w3.org/2000/svg">
  <path
    d="M9.86117 18.8421C9.54802 18.8421 9.2419 18.9347 8.98152 19.1082C8.72114 19.2817 8.5182 19.5283 8.39836 19.8168C8.27852 20.1053 8.24717 20.4228 8.30826 20.7291C8.36936 21.0354 8.52015 21.3167 8.74159 21.5375C8.96302 21.7584 9.24514 21.9087 9.55228 21.9697C9.85942 22.0306 10.1778 21.9993 10.4671 21.8798C10.7564 21.7603 11.0037 21.5579 11.1777 21.2983C11.3516 21.0386 11.4445 20.7333 11.4445 20.4211C11.4445 20.0023 11.2777 19.6007 10.9808 19.3046C10.6838 19.0085 10.2811 18.8421 9.86117 18.8421ZM20.9445 15.6842H8.27784C7.99789 15.6842 7.7294 15.5733 7.53145 15.3759C7.33349 15.1785 7.22228 14.9108 7.22228 14.6316C7.22228 14.3524 7.33349 14.0847 7.53145 13.8873C7.7294 13.6898 7.99789 13.5789 8.27784 13.5789H17.2408C17.9284 13.5767 18.5968 13.3524 19.1458 12.9395C19.6947 12.5266 20.0947 11.9474 20.2858 11.2887L21.9593 5.44726C22.0042 5.2906 22.0121 5.12569 21.9822 4.9655C21.9523 4.80531 21.8856 4.65423 21.7872 4.52414C21.6888 4.39405 21.5615 4.28851 21.4153 4.21582C21.269 4.14314 21.1079 4.10529 20.9445 4.10526H8.00241C7.7839 3.49196 7.38108 2.96075 6.84885 2.58401C6.31662 2.20728 5.68086 2.00335 5.0282 2H4.05562C3.77567 2 3.50718 2.1109 3.30923 2.30831C3.11127 2.50572 3.00006 2.77346 3.00006 3.05263C3.00006 3.33181 3.11127 3.59955 3.30923 3.79695C3.50718 3.99436 3.77567 4.10526 4.05562 4.10526H5.0282C5.25734 4.10606 5.48006 4.18086 5.663 4.31845C5.84595 4.45605 5.97928 4.64904 6.04303 4.86853L6.20719 5.44194L6.20744 5.44726L7.93922 11.4917C7.13337 11.5781 6.39143 11.9694 5.86617 12.585C5.34092 13.2005 5.07234 13.9935 5.11574 14.8006C5.15914 15.6077 5.5112 16.3675 6.09945 16.9235C6.6877 17.4795 7.46734 17.7895 8.27784 17.7895H20.9445C21.2245 17.7895 21.4929 17.6786 21.6909 17.4812C21.8889 17.2838 22.0001 17.016 22.0001 16.7368C22.0001 16.4577 21.8889 16.1899 21.6909 15.9925C21.4929 15.7951 21.2245 15.6842 20.9445 15.6842ZM19.5452 6.21053L18.2561 10.7099C18.1925 10.9296 18.0591 11.1227 17.876 11.2604C17.693 11.3981 17.4701 11.473 17.2408 11.4737H10.1297L9.86059 10.5345L8.62239 6.21053H19.5452ZM18.3056 18.8421C17.9925 18.8421 17.6863 18.9347 17.426 19.1082C17.1656 19.2817 16.9626 19.5283 16.8428 19.8168C16.723 20.1053 16.6916 20.4228 16.7527 20.7291C16.8138 21.0354 16.9646 21.3167 17.186 21.5375C17.4075 21.7584 17.6896 21.9087 17.9967 21.9697C18.3039 22.0306 18.6222 21.9993 18.9115 21.8798C19.2008 21.7603 19.4481 21.5579 19.6221 21.2983C19.7961 21.0386 19.889 20.7333 19.889 20.4211C19.889 20.0023 19.7221 19.6007 19.4252 19.3046C19.1283 19.0085 18.7255 18.8421 18.3056 18.8421Z" />
</svg>
