<svg width="24" height="24" viewBox="0 0 24 24" fill="none" xmlns="http://www.w3.org/2000/svg">
<path fill-rule="evenodd" clip-rule="evenodd" d="M5.5 12C5.5 12.4418 5.86377 12.8 6.3125 12.8H12.4794L10.6106 14.632C10.4568 14.7822 10.3703 14.9867 10.3703 15.2C10.3703 15.4133 10.4568 15.6178 10.6106 15.768C10.7632 15.9194 10.9709 16.0046 11.1875 16.0046C11.4041 16.0046 11.6118 15.9194 11.7644 15.768L15.0144 12.568C15.0883 12.4919 15.1463 12.4022 15.185 12.304C15.2663 12.1092 15.2663 11.8908 15.185 11.696C15.1463 11.5978 15.0883 11.5081 15.0144 11.432L11.7644 8.232C11.5583 8.02907 11.2579 7.94982 10.9763 8.0241C10.6948 8.09837 10.4749 8.31489 10.3995 8.5921C10.324 8.8693 10.4045 9.16507 10.6106 9.368L12.4794 11.2H6.3125C5.86377 11.2 5.5 11.5582 5.5 12ZM16.0625 4H7.9375C6.59131 4 5.5 5.07452 5.5 6.4V8.8C5.5 9.24183 5.86377 9.6 6.3125 9.6C6.76123 9.6 7.125 9.24183 7.125 8.8V6.4C7.125 5.95817 7.48877 5.6 7.9375 5.6H16.0625C16.5112 5.6 16.875 5.95817 16.875 6.4V17.6C16.875 18.0418 16.5112 18.4 16.0625 18.4H7.9375C7.48877 18.4 7.125 18.0418 7.125 17.6V15.2C7.125 14.7582 6.76123 14.4 6.3125 14.4C5.86377 14.4 5.5 14.7582 5.5 15.2V17.6C5.5 18.9255 6.59131 20 7.9375 20H16.0625C17.4087 20 18.5 18.9255 18.5 17.6V6.4C18.5 5.07452 17.4087 4 16.0625 4Z" fill="currentColor"/>
</svg>

