<svg width="24" height="24" viewBox="0 0 24 24" fill="none" xmlns="http://www.w3.org/2000/svg">
<path d="M16.1442 14.0342L12.3333 17.854L8.52241 14.0342C8.35514 13.867 8.12827 13.773 7.89171 13.773C7.65515 13.773 7.42828 13.867 7.261 14.0342C7.09373 14.2015 6.99976 14.4284 6.99976 14.6649C6.99976 14.9015 7.09373 15.1284 7.261 15.2957L11.7026 19.7372C11.7852 19.8205 11.8834 19.8866 11.9917 19.9317C12.0999 19.9768 12.216 20 12.3333 20C12.4506 20 12.5667 19.9768 12.6749 19.9317C12.7832 19.8866 12.8814 19.8205 12.964 19.7372L17.4056 15.2957C17.4884 15.2128 17.5541 15.1145 17.5989 15.0063C17.6438 14.8981 17.6668 14.7821 17.6668 14.6649C17.6668 14.5478 17.6438 14.4318 17.5989 14.3236C17.5541 14.2154 17.4884 14.1171 17.4056 14.0342C17.3228 13.9514 17.2244 13.8857 17.1162 13.8409C17.008 13.7961 16.892 13.773 16.7749 13.773C16.6577 13.773 16.5418 13.7961 16.4335 13.8409C16.3253 13.8857 16.227 13.9514 16.1442 14.0342ZM8.52241 9.96575L12.3333 6.14599L16.1442 9.96575C16.2267 10.049 16.325 10.1151 16.4332 10.1602C16.5415 10.2053 16.6576 10.2285 16.7749 10.2285C16.8921 10.2285 17.0082 10.2053 17.1165 10.1602C17.2247 10.1151 17.323 10.049 17.4056 9.96575C17.4888 9.88317 17.5549 9.78493 17.6 9.67668C17.6451 9.56843 17.6683 9.45232 17.6683 9.33505C17.6683 9.21778 17.6451 9.10167 17.6 8.99342C17.5549 8.88517 17.4888 8.78693 17.4056 8.70435L12.964 4.26276C12.8814 4.1795 12.7832 4.11342 12.6749 4.06832C12.5667 4.02322 12.4506 4 12.3333 4C12.216 4 12.0999 4.02322 11.9917 4.06832C11.8834 4.11342 11.7852 4.1795 11.7026 4.26276L7.261 8.70435C7.09373 8.87162 6.99976 9.09849 6.99976 9.33505C6.99976 9.57161 7.09373 9.79848 7.261 9.96575C7.42828 10.133 7.65515 10.227 7.89171 10.227C8.12827 10.227 8.35514 10.133 8.52241 9.96575Z" fill="currentColor"/>
</svg>
