<svg width="24" height="24" viewBox="0 0 24 24" fill="none" xmlns="http://www.w3.org/2000/svg">
<g id="label-alt">
<path id="Vector" d="M14.397 11.8C14.397 11.9582 14.4439 12.1129 14.5318 12.2445C14.6197 12.376 14.7446 12.4786 14.8907 12.5391C15.0368 12.5997 15.1976 12.6155 15.3528 12.5846C15.5079 12.5538 15.6504 12.4776 15.7623 12.3657C15.8741 12.2538 15.9503 12.1113 15.9812 11.9561C16.012 11.8009 15.9962 11.64 15.9356 11.4939C15.8751 11.3477 15.7726 11.2227 15.6411 11.1348C15.5096 11.0469 15.3549 11 15.1968 11C14.9846 11 14.7812 11.0843 14.6312 11.2343C14.4812 11.3844 14.397 11.5878 14.397 11.8ZM19.7634 11.232L15.7646 7.23201C15.6899 7.15787 15.6012 7.09921 15.5038 7.0594C15.4063 7.01958 15.302 6.9994 15.1968 7.00001H6.3993C5.76297 7.00001 5.1527 7.25287 4.70274 7.70296C4.25278 8.15304 4 8.76349 4 9.40001V14.2C4 14.8365 4.25278 15.447 4.70274 15.8971C5.1527 16.3472 5.76297 16.6 6.3993 16.6H15.1968C15.302 16.6006 15.4063 16.5804 15.5038 16.5406C15.6012 16.5008 15.6899 16.4422 15.7646 16.368L19.7634 12.368C19.8384 12.2936 19.8979 12.2052 19.9385 12.1077C19.9791 12.0102 20 11.9056 20 11.8C20 11.6944 19.9791 11.5898 19.9385 11.4924C19.8979 11.3949 19.8384 11.3064 19.7634 11.232ZM14.8688 15H6.3993C6.18719 15 5.98377 14.9157 5.83378 14.7657C5.6838 14.6157 5.59954 14.4122 5.59954 14.2V9.40001C5.59954 9.18784 5.6838 8.98436 5.83378 8.83433C5.98377 8.6843 6.18719 8.60001 6.3993 8.60001H14.8688L18.0679 11.8L14.8688 15Z" fill="#9C9DA0"/>
</g>
</svg>
