<svg width="24" height="24" viewBox="0 0 24 24" fill="none" xmlns="http://www.w3.org/2000/svg">
<path fill-rule="evenodd" clip-rule="evenodd" d="M8.40059 7.20043C7.73776 7.20043 7.20043 7.73776 7.20043 8.40059C7.20043 9.06342 7.73776 9.60074 8.40059 9.60074C9.06342 9.60074 9.60074 9.06342 9.60074 8.40059C9.60074 7.73776 9.06342 7.20043 8.40059 7.20043ZM19.298 10.9689L12.5691 4.23204C12.4181 4.08227 12.2137 3.99878 12.0011 4.00001H4.80012C4.35823 4.00001 4.00001 4.35823 4.00001 4.80012V12.0011C3.99878 12.2137 4.08227 12.4181 4.23204 12.5691L10.9689 19.298C11.9061 20.234 13.4242 20.234 14.3614 19.298L19.298 14.4014C20.234 13.4642 20.234 11.9461 19.298 11.0089V10.9689ZM18.1699 13.2252L13.2252 18.1619C12.9131 18.4721 12.4091 18.4721 12.0971 18.1619L5.60022 11.673V5.60022H11.673L18.1699 12.0971C18.3196 12.2481 18.4031 12.4525 18.4019 12.6651C18.401 12.875 18.3177 13.0762 18.1699 13.2252Z" fill="#818285"/>
</svg>
