<svg width="24" height="24" viewBox="0 0 24 24" fill="none" xmlns="http://www.w3.org/2000/svg">
<path fill-rule="evenodd" clip-rule="evenodd" d="M13.4086 11.9983L17.7045 7.71244C18.0962 7.32069 18.0962 6.68555 17.7045 6.29381C17.3127 5.90206 16.6776 5.90206 16.2859 6.29381L12 10.5897L7.71414 6.29381C7.3224 5.90206 6.68726 5.90206 6.29551 6.29381C5.90377 6.68555 5.90377 7.32069 6.29551 7.71244L10.5914 11.9983L6.29551 16.2842C6.10638 16.4717 6 16.7271 6 16.9935C6 17.2598 6.10638 17.5152 6.29551 17.7028C6.4831 17.8919 6.73845 17.9983 7.00483 17.9983C7.27121 17.9983 7.52656 17.8919 7.71414 17.7028L12 13.4069L16.2859 17.7028C16.4734 17.8919 16.7288 17.9983 16.9952 17.9983C17.2616 17.9983 17.5169 17.8919 17.7045 17.7028C17.8936 17.5152 18 17.2598 18 16.9935C18 16.7271 17.8936 16.4717 17.7045 16.2842L13.4086 11.9983Z" fill="currentColor"/>
</svg>
