<svg width="26" height="25" viewBox="0 0 26 25" fill="none" xmlns="http://www.w3.org/2000/svg">
<path d="M12.9993 2.0835C7.04102 2.0835 2.16602 6.771 2.16602 12.5002C2.16602 18.2293 7.04102 22.9168 12.9993 22.9168C18.9577 22.9168 23.8327 18.2293 23.8327 12.5002C23.8327 6.771 18.9577 2.0835 12.9993 2.0835ZM17.0077 14.896C17.441 15.3127 17.441 15.9377 17.0077 16.3543C16.5743 16.771 15.9243 16.771 15.491 16.3543L12.9993 13.9585L10.5077 16.3543C10.0743 16.771 9.42435 16.771 8.99102 16.3543C8.55768 15.9377 8.55768 15.3127 8.99102 14.896L11.4827 12.5002L8.99102 10.1043C8.55768 9.68766 8.55768 9.06266 8.99102 8.646C9.42435 8.22933 10.0743 8.22933 10.5077 8.646L12.9993 11.0418L15.491 8.646C15.9243 8.22933 16.5743 8.22933 17.0077 8.646C17.441 9.06266 17.441 9.68766 17.0077 10.1043L14.516 12.5002L17.0077 14.896Z" fill="#E82020"/>
</svg>
