<svg viewBox="0 0 24 24" xmlns="http://www.w3.org/2000/svg">
  <path
    d="M9.368 8.56401L11.2 6.72401V14.396C11.2 14.6082 11.2843 14.8117 11.4343 14.9617C11.5843 15.1117 11.7878 15.196 12 15.196C12.2122 15.196 12.4157 15.1117 12.5657 14.9617C12.7157 14.8117 12.8 14.6082 12.8 14.396V6.72401L14.632 8.56401C14.7064 8.63899 14.7949 8.69851 14.8923 8.73912C14.9898 8.77974 15.0944 8.80065 15.2 8.80065C15.3056 8.80065 15.4102 8.77974 15.5077 8.73912C15.6051 8.69851 15.6936 8.63899 15.768 8.56401C15.843 8.48964 15.9025 8.40116 15.9431 8.30367C15.9837 8.20618 16.0046 8.10162 16.0046 7.99601C16.0046 7.8904 15.9837 7.78584 15.9431 7.68835C15.9025 7.59086 15.843 7.50238 15.768 7.42801L12.568 4.22801C12.4919 4.15518 12.4022 4.09809 12.304 4.06001C12.1092 3.98 11.8908 3.98 11.696 4.06001C11.5978 4.09809 11.5081 4.15518 11.432 4.22801L8.232 7.42801C8.15741 7.5026 8.09824 7.59115 8.05787 7.68861C8.0175 7.78607 7.99673 7.89052 7.99673 7.99601C7.99673 8.1015 8.0175 8.20595 8.05787 8.30341C8.09824 8.40087 8.15741 8.48942 8.232 8.56401C8.30659 8.6386 8.39514 8.69777 8.4926 8.73814C8.59006 8.77851 8.69451 8.79928 8.8 8.79928C8.90549 8.79928 9.00994 8.77851 9.1074 8.73814C9.20486 8.69777 9.29341 8.6386 9.368 8.56401ZM19.2 11.996C18.9878 11.996 18.7843 12.0803 18.6343 12.2303C18.4843 12.3804 18.4 12.5838 18.4 12.796V17.596C18.4 17.8082 18.3157 18.0117 18.1657 18.1617C18.0157 18.3117 17.8122 18.396 17.6 18.396H6.4C6.18783 18.396 5.98434 18.3117 5.83431 18.1617C5.68429 18.0117 5.6 17.8082 5.6 17.596V12.796C5.6 12.5838 5.51571 12.3804 5.36569 12.2303C5.21566 12.0803 5.01217 11.996 4.8 11.996C4.58783 11.996 4.38434 12.0803 4.23431 12.2303C4.08429 12.3804 4 12.5838 4 12.796V17.596C4 18.2325 4.25286 18.843 4.70294 19.2931C5.15303 19.7432 5.76348 19.996 6.4 19.996H17.6C18.2365 19.996 18.847 19.7432 19.2971 19.2931C19.7471 18.843 20 18.2325 20 17.596V12.796C20 12.5838 19.9157 12.3804 19.7657 12.2303C19.6157 12.0803 19.4122 11.996 19.2 11.996Z"
    fill="currentColor" />
</svg>
