<svg width="24" height="24" viewBox="0 0 24 24" fill="none" xmlns="http://www.w3.org/2000/svg">
<path fill-rule="evenodd" clip-rule="evenodd" d="M11.1818 9.54545H14.4545C14.9064 9.54545 15.2727 9.17914 15.2727 8.72727C15.2727 8.2754 14.9064 7.90909 14.4545 7.90909H12.8182V7.09091C12.8182 6.63904 12.4519 6.27273 12 6.27273C11.5481 6.27273 11.1818 6.63904 11.1818 7.09091V7.90909C9.82621 7.90909 8.72727 9.00803 8.72727 10.3636C8.72727 11.7192 9.82621 12.8182 11.1818 12.8182H12.8182C13.2701 12.8182 13.6364 13.1845 13.6364 13.6364C13.6364 14.0882 13.2701 14.4545 12.8182 14.4545H9.54545C9.09359 14.4545 8.72727 14.8209 8.72727 15.2727C8.72727 15.7246 9.09359 16.0909 9.54545 16.0909H11.1818V16.9091C11.1818 17.361 11.5481 17.7273 12 17.7273C12.4519 17.7273 12.8182 17.361 12.8182 16.9091V16.0909C14.1738 16.0909 15.2727 14.992 15.2727 13.6364C15.2727 12.2808 14.1738 11.1818 12.8182 11.1818H11.1818C10.7299 11.1818 10.3636 10.8155 10.3636 10.3636C10.3636 9.91177 10.7299 9.54545 11.1818 9.54545ZM12 3C7.02944 3 3 7.02944 3 12C3 16.9706 7.02944 21 12 21C16.9706 21 21 16.9706 21 12C21 9.61305 20.0518 7.32387 18.364 5.63604C16.6761 3.94821 14.3869 3 12 3ZM12 19.3636C7.93318 19.3636 4.63636 16.0668 4.63636 12C4.63636 7.93318 7.93318 4.63636 12 4.63636C16.0668 4.63636 19.3636 7.93318 19.3636 12C19.3636 16.0668 16.0668 19.3636 12 19.3636Z" fill="currentColor"/>
</svg>
