<svg width="24" height="24" viewBox="0 0 24 24" fill="none" xmlns="http://www.w3.org/2000/svg">
<path d="M12.3154 12.22C12.8497 11.7581 13.2782 11.1869 13.5719 10.545C13.8657 9.90316 14.0177 9.20571 14.0177 8.5C14.0177 7.17392 13.4902 5.90215 12.5512 4.96447C11.6123 4.02678 10.3388 3.5 9.01088 3.5C7.68299 3.5 6.40949 4.02678 5.47054 4.96447C4.53158 5.90215 4.00408 7.17392 4.00408 8.5C4.00407 9.20571 4.15609 9.90316 4.44981 10.545C4.74353 11.1869 5.17209 11.7581 5.70639 12.22C4.30463 12.8539 3.11534 13.8775 2.28072 15.1685C1.4461 16.4596 1.00147 17.9633 1 19.5C1 19.7652 1.1055 20.0196 1.29329 20.2071C1.48108 20.3946 1.73578 20.5 2.00136 20.5C2.26694 20.5 2.52164 20.3946 2.70943 20.2071C2.89722 20.0196 3.00272 19.7652 3.00272 19.5C3.00272 17.9087 3.63572 16.3826 4.76247 15.2574C5.88922 14.1321 7.41742 13.5 9.01088 13.5C10.6043 13.5 12.1325 14.1321 13.2593 15.2574C14.386 16.3826 15.019 17.9087 15.019 19.5C15.019 19.7652 15.1245 20.0196 15.3123 20.2071C15.5001 20.3946 15.7548 20.5 16.0204 20.5C16.286 20.5 16.5407 20.3946 16.7285 20.2071C16.9163 20.0196 17.0218 19.7652 17.0218 19.5C17.0203 17.9633 16.5757 16.4596 15.741 15.1685C14.9064 13.8775 13.7171 12.8539 12.3154 12.22ZM9.01088 11.5C8.41673 11.5 7.83592 11.3241 7.3419 10.9944C6.84788 10.6648 6.46284 10.1962 6.23547 9.64805C6.0081 9.09987 5.94861 8.49667 6.06452 7.91473C6.18043 7.33279 6.46655 6.79824 6.88667 6.37868C7.3068 5.95912 7.84208 5.6734 8.42481 5.55764C9.00755 5.44189 9.61157 5.5013 10.1605 5.72836C10.7094 5.95543 11.1786 6.33994 11.5087 6.83329C11.8388 7.32664 12.015 7.90666 12.015 8.5C12.015 9.29565 11.6985 10.0587 11.1351 10.6213C10.5717 11.1839 9.80761 11.5 9.01088 11.5ZM18.7641 11.82C19.405 11.0993 19.8236 10.2091 19.9696 9.25634C20.1156 8.30362 19.9827 7.32907 19.587 6.45C19.1913 5.57093 18.5496 4.8248 17.7392 4.30142C16.9288 3.77805 15.9842 3.49974 15.019 3.5C14.7535 3.5 14.4988 3.60536 14.311 3.79289C14.1232 3.98043 14.0177 4.23478 14.0177 4.5C14.0177 4.76522 14.1232 5.01957 14.311 5.20711C14.4988 5.39464 14.7535 5.5 15.019 5.5C15.8158 5.5 16.5799 5.81607 17.1432 6.37868C17.7066 6.94129 18.0231 7.70435 18.0231 8.5C18.0217 9.02524 17.8822 9.5409 17.6186 9.99542C17.355 10.4499 16.9766 10.8274 16.5211 11.09C16.3726 11.1755 16.2486 11.2977 16.1609 11.4447C16.0733 11.5918 16.0249 11.7589 16.0204 11.93C16.0162 12.0998 16.0554 12.2678 16.1342 12.4183C16.213 12.5687 16.329 12.6967 16.471 12.79L16.8615 13.05L16.9917 13.12C18.1987 13.6917 19.217 14.596 19.9267 15.7263C20.6363 16.8566 21.0077 18.1659 20.9972 19.5C20.9972 19.7652 21.1027 20.0196 21.2904 20.2071C21.4782 20.3946 21.7329 20.5 21.9985 20.5C22.2641 20.5 22.5188 20.3946 22.7066 20.2071C22.8944 20.0196 22.9999 19.7652 22.9999 19.5C23.0081 17.9654 22.6232 16.4543 21.8818 15.1101C21.1405 13.7659 20.0672 12.6333 18.7641 11.82Z" fill="currentColor"/>
</svg>
