<svg viewBox="0 0 24 24" fill="none" xmlns="http://www.w3.org/2000/svg">
  <path
    d="M14.9022 12.5675C15.6854 11.9507 16.2571 11.105 16.5378 10.148C16.8184 9.19097 16.794 8.1702 16.4679 7.22771C16.1418 6.28521 15.5303 5.46786 14.7185 4.88937C13.9066 4.31087 12.9348 4 11.9382 4C10.9415 4 9.96969 4.31087 9.15783 4.88937C8.34598 5.46786 7.73448 6.28521 7.40841 7.22771C7.08234 8.1702 7.05792 9.19097 7.33854 10.148C7.61917 11.105 8.19088 11.9507 8.97414 12.5675C7.632 13.1056 6.46095 13.9981 5.58581 15.1499C4.71067 16.3017 4.16425 17.6696 4.00482 19.1077C3.99328 19.2127 4.00252 19.3189 4.032 19.4204C4.06149 19.5218 4.11065 19.6164 4.17668 19.6988C4.31002 19.8652 4.50397 19.9718 4.71586 19.9952C4.92775 20.0185 5.14022 19.9566 5.30653 19.8232C5.47284 19.6897 5.57936 19.4956 5.60267 19.2836C5.7781 17.7206 6.52278 16.2772 7.69443 15.229C8.86608 14.1807 10.3826 13.6013 11.9541 13.6013C13.5257 13.6013 15.0422 14.1807 16.2138 15.229C17.3855 16.2772 18.1302 17.7206 18.3056 19.2836C18.3273 19.48 18.421 19.6615 18.5685 19.7929C18.7161 19.9243 18.907 19.9964 19.1045 19.9952H19.1924C19.4018 19.9711 19.5932 19.8651 19.7249 19.7003C19.8566 19.5356 19.9179 19.3254 19.8954 19.1157C19.7353 17.6735 19.1859 16.3021 18.3063 15.1485C17.4266 13.995 16.2499 13.1027 14.9022 12.5675ZM11.9382 11.9998C11.3061 11.9998 10.6882 11.8122 10.1627 11.4608C9.63718 11.1094 9.22758 10.6099 8.98571 10.0255C8.74383 9.44112 8.68054 8.79808 8.80385 8.1777C8.92716 7.55732 9.23152 6.98746 9.67845 6.54019C10.1254 6.09292 10.6948 5.78833 11.3147 5.66492C11.9346 5.54152 12.5772 5.60486 13.1611 5.84692C13.745 6.08898 14.2441 6.49889 14.5953 7.02483C14.9464 7.55076 15.1339 8.16909 15.1339 8.80163C15.1339 9.64983 14.7972 10.4633 14.1979 11.0631C13.5985 11.6628 12.7857 11.9998 11.9382 11.9998Z"
    fill="currentColor" />
</svg>
