<svg width="24" height="24" viewBox="0 0 24 24" fill="none" xmlns="http://www.w3.org/2000/svg">
<rect x="0.5" y="3.5" width="23" height="17" rx="1.5" fill="white" stroke="#E4E4E5"/>
<path d="M8.83325 14.9286L9.84913 9.21436H11.4364L10.4523 14.9286H8.83325Z" fill="#293688"/>
<path d="M16.1985 9.27789C15.881 9.15091 15.3731 9.02393 14.7381 9.02393C13.1508 9.02393 12.008 9.81758 12.008 10.9604C12.008 11.8176 12.8016 12.262 13.4365 12.5477C14.0715 12.8334 14.2619 13.0239 14.2619 13.2779C14.2619 13.6588 13.754 13.8493 13.3096 13.8493C12.6746 13.8493 12.3254 13.7541 11.7858 13.5319L11.5635 13.4366L11.3413 14.7382C11.7223 14.8969 12.4207 15.0557 13.1508 15.0557C14.8334 15.0557 15.9445 14.262 15.9445 13.0557C15.9445 12.389 15.5318 11.8811 14.5794 11.4684C14.008 11.1827 13.6588 11.0239 13.6588 10.7382C13.6588 10.4842 13.9445 10.2303 14.5794 10.2303C15.1191 10.2303 15.5 10.3255 15.7858 10.4525L15.9445 10.516L16.1985 9.27789Z" fill="#293688"/>
<path fill-rule="evenodd" clip-rule="evenodd" d="M18.1031 9.62705C18.2619 9.2461 18.5476 9.21436 18.9285 9.21436H20.1666L21.4999 14.9286H19.9761L19.7857 13.9763H17.7539L17.4365 14.9286H15.7222L18.1031 9.62705ZM18.8333 11.3413C18.8333 11.3413 18.2936 12.7382 18.1984 13.0239V13.0556H19.5317C19.4682 12.7382 19.1507 11.3096 19.1507 11.3096L19.0555 10.7699C18.9603 10.9921 18.8333 11.3413 18.8333 11.3413Z" fill="#293688"/>
<path d="M5.91269 13.2143L5.75396 12.389C5.46825 11.4366 4.54761 10.389 3.53174 9.88101L4.96031 14.9604H6.6746L9.24602 9.24609H7.53174L5.91269 13.2143Z" fill="#293688"/>
<path d="M1.5 9.21436L1.78571 9.27785C3.81746 9.75404 5.21429 10.9604 5.75397 12.389L5.18254 9.69055C5.0873 9.30959 4.80159 9.21436 4.45238 9.21436H1.5V9.21436Z" fill="#F7981D"/>
<path d="M1.5 9.21436C3.53175 9.69055 5.21429 10.9286 5.75397 12.3572L5.21429 10.1032C5.11905 9.72229 4.80159 9.50007 4.45238 9.50007L1.5 9.21436Z" fill="#F7981D"/>
</svg>
